%TF.GenerationSoftware,KiCad,Pcbnew,(6.0.2)*%
%TF.CreationDate,2022-03-21T18:21:57-04:00*%
%TF.ProjectId,dccsniffer,64636373-6e69-4666-9665-722e6b696361,rev?*%
%TF.SameCoordinates,Original*%
%TF.FileFunction,Legend,Top*%
%TF.FilePolarity,Positive*%
%FSLAX46Y46*%
G04 Gerber Fmt 4.6, Leading zero omitted, Abs format (unit mm)*
G04 Created by KiCad (PCBNEW (6.0.2)) date 2022-03-21 18:21:57*
%MOMM*%
%LPD*%
G01*
G04 APERTURE LIST*
%ADD10C,0.150000*%
%ADD11C,0.120000*%
G04 APERTURE END LIST*
D10*
X144384380Y-46806285D02*
X143384380Y-46806285D01*
X143384380Y-46425333D01*
X143432000Y-46330095D01*
X143479619Y-46282476D01*
X143574857Y-46234857D01*
X143717714Y-46234857D01*
X143812952Y-46282476D01*
X143860571Y-46330095D01*
X143908190Y-46425333D01*
X143908190Y-46806285D01*
X144384380Y-45377714D02*
X143860571Y-45377714D01*
X143765333Y-45425333D01*
X143717714Y-45520571D01*
X143717714Y-45711047D01*
X143765333Y-45806285D01*
X144336761Y-45377714D02*
X144384380Y-45472952D01*
X144384380Y-45711047D01*
X144336761Y-45806285D01*
X144241523Y-45853904D01*
X144146285Y-45853904D01*
X144051047Y-45806285D01*
X144003428Y-45711047D01*
X144003428Y-45472952D01*
X143955809Y-45377714D01*
X144336761Y-44472952D02*
X144384380Y-44568190D01*
X144384380Y-44758666D01*
X144336761Y-44853904D01*
X144289142Y-44901523D01*
X144193904Y-44949142D01*
X143908190Y-44949142D01*
X143812952Y-44901523D01*
X143765333Y-44853904D01*
X143717714Y-44758666D01*
X143717714Y-44568190D01*
X143765333Y-44472952D01*
X144384380Y-44044380D02*
X143717714Y-44044380D01*
X143384380Y-44044380D02*
X143432000Y-44092000D01*
X143479619Y-44044380D01*
X143432000Y-43996761D01*
X143384380Y-44044380D01*
X143479619Y-44044380D01*
X143717714Y-43711047D02*
X143717714Y-43330095D01*
X144384380Y-43568190D02*
X143527238Y-43568190D01*
X143432000Y-43520571D01*
X143384380Y-43425333D01*
X143384380Y-43330095D01*
X144384380Y-42996761D02*
X143717714Y-42996761D01*
X143384380Y-42996761D02*
X143432000Y-43044380D01*
X143479619Y-42996761D01*
X143432000Y-42949142D01*
X143384380Y-42996761D01*
X143479619Y-42996761D01*
X144336761Y-42092000D02*
X144384380Y-42187238D01*
X144384380Y-42377714D01*
X144336761Y-42472952D01*
X144289142Y-42520571D01*
X144193904Y-42568190D01*
X143908190Y-42568190D01*
X143812952Y-42520571D01*
X143765333Y-42472952D01*
X143717714Y-42377714D01*
X143717714Y-42187238D01*
X143765333Y-42092000D01*
X144336761Y-40949142D02*
X144384380Y-40806285D01*
X144384380Y-40568190D01*
X144336761Y-40472952D01*
X144289142Y-40425333D01*
X144193904Y-40377714D01*
X144098666Y-40377714D01*
X144003428Y-40425333D01*
X143955809Y-40472952D01*
X143908190Y-40568190D01*
X143860571Y-40758666D01*
X143812952Y-40853904D01*
X143765333Y-40901523D01*
X143670095Y-40949142D01*
X143574857Y-40949142D01*
X143479619Y-40901523D01*
X143432000Y-40853904D01*
X143384380Y-40758666D01*
X143384380Y-40520571D01*
X143432000Y-40377714D01*
X144384380Y-39806285D02*
X144336761Y-39901523D01*
X144289142Y-39949142D01*
X144193904Y-39996761D01*
X143908190Y-39996761D01*
X143812952Y-39949142D01*
X143765333Y-39901523D01*
X143717714Y-39806285D01*
X143717714Y-39663428D01*
X143765333Y-39568190D01*
X143812952Y-39520571D01*
X143908190Y-39472952D01*
X144193904Y-39472952D01*
X144289142Y-39520571D01*
X144336761Y-39568190D01*
X144384380Y-39663428D01*
X144384380Y-39806285D01*
X143717714Y-38615809D02*
X144384380Y-38615809D01*
X143717714Y-39044380D02*
X144241523Y-39044380D01*
X144336761Y-38996761D01*
X144384380Y-38901523D01*
X144384380Y-38758666D01*
X144336761Y-38663428D01*
X144289142Y-38615809D01*
X143717714Y-38282476D02*
X143717714Y-37901523D01*
X143384380Y-38139619D02*
X144241523Y-38139619D01*
X144336761Y-38092000D01*
X144384380Y-37996761D01*
X144384380Y-37901523D01*
X144384380Y-37568190D02*
X143384380Y-37568190D01*
X144384380Y-37139619D02*
X143860571Y-37139619D01*
X143765333Y-37187238D01*
X143717714Y-37282476D01*
X143717714Y-37425333D01*
X143765333Y-37520571D01*
X143812952Y-37568190D01*
X144336761Y-36282476D02*
X144384380Y-36377714D01*
X144384380Y-36568190D01*
X144336761Y-36663428D01*
X144241523Y-36711047D01*
X143860571Y-36711047D01*
X143765333Y-36663428D01*
X143717714Y-36568190D01*
X143717714Y-36377714D01*
X143765333Y-36282476D01*
X143860571Y-36234857D01*
X143955809Y-36234857D01*
X144051047Y-36711047D01*
X144384380Y-35806285D02*
X143717714Y-35806285D01*
X143908190Y-35806285D02*
X143812952Y-35758666D01*
X143765333Y-35711047D01*
X143717714Y-35615809D01*
X143717714Y-35520571D01*
X143717714Y-35187238D02*
X144384380Y-35187238D01*
X143812952Y-35187238D02*
X143765333Y-35139619D01*
X143717714Y-35044380D01*
X143717714Y-34901523D01*
X143765333Y-34806285D01*
X143860571Y-34758666D01*
X144384380Y-34758666D01*
X144384380Y-32949142D02*
X143908190Y-33282476D01*
X144384380Y-33520571D02*
X143384380Y-33520571D01*
X143384380Y-33139619D01*
X143432000Y-33044380D01*
X143479619Y-32996761D01*
X143574857Y-32949142D01*
X143717714Y-32949142D01*
X143812952Y-32996761D01*
X143860571Y-33044380D01*
X143908190Y-33139619D01*
X143908190Y-33520571D01*
X144384380Y-32092000D02*
X143860571Y-32092000D01*
X143765333Y-32139619D01*
X143717714Y-32234857D01*
X143717714Y-32425333D01*
X143765333Y-32520571D01*
X144336761Y-32092000D02*
X144384380Y-32187238D01*
X144384380Y-32425333D01*
X144336761Y-32520571D01*
X144241523Y-32568190D01*
X144146285Y-32568190D01*
X144051047Y-32520571D01*
X144003428Y-32425333D01*
X144003428Y-32187238D01*
X143955809Y-32092000D01*
X144384380Y-31615809D02*
X143717714Y-31615809D01*
X143384380Y-31615809D02*
X143432000Y-31663428D01*
X143479619Y-31615809D01*
X143432000Y-31568190D01*
X143384380Y-31615809D01*
X143479619Y-31615809D01*
X144384380Y-30996761D02*
X144336761Y-31092000D01*
X144241523Y-31139619D01*
X143384380Y-31139619D01*
X143717714Y-30711047D02*
X144384380Y-30520571D01*
X143908190Y-30330095D01*
X144384380Y-30139619D01*
X143717714Y-29949142D01*
X144384380Y-29139619D02*
X143860571Y-29139619D01*
X143765333Y-29187238D01*
X143717714Y-29282476D01*
X143717714Y-29472952D01*
X143765333Y-29568190D01*
X144336761Y-29139619D02*
X144384380Y-29234857D01*
X144384380Y-29472952D01*
X144336761Y-29568190D01*
X144241523Y-29615809D01*
X144146285Y-29615809D01*
X144051047Y-29568190D01*
X144003428Y-29472952D01*
X144003428Y-29234857D01*
X143955809Y-29139619D01*
X143717714Y-28758666D02*
X144384380Y-28520571D01*
X143717714Y-28282476D02*
X144384380Y-28520571D01*
X144622476Y-28615809D01*
X144670095Y-28663428D01*
X144717714Y-28758666D01*
X145994380Y-41711047D02*
X144994380Y-41711047D01*
X144994380Y-41472952D01*
X145042000Y-41330095D01*
X145137238Y-41234857D01*
X145232476Y-41187238D01*
X145422952Y-41139619D01*
X145565809Y-41139619D01*
X145756285Y-41187238D01*
X145851523Y-41234857D01*
X145946761Y-41330095D01*
X145994380Y-41472952D01*
X145994380Y-41711047D01*
X145899142Y-40139619D02*
X145946761Y-40187238D01*
X145994380Y-40330095D01*
X145994380Y-40425333D01*
X145946761Y-40568190D01*
X145851523Y-40663428D01*
X145756285Y-40711047D01*
X145565809Y-40758666D01*
X145422952Y-40758666D01*
X145232476Y-40711047D01*
X145137238Y-40663428D01*
X145042000Y-40568190D01*
X144994380Y-40425333D01*
X144994380Y-40330095D01*
X145042000Y-40187238D01*
X145089619Y-40139619D01*
X145899142Y-39139619D02*
X145946761Y-39187238D01*
X145994380Y-39330095D01*
X145994380Y-39425333D01*
X145946761Y-39568190D01*
X145851523Y-39663428D01*
X145756285Y-39711047D01*
X145565809Y-39758666D01*
X145422952Y-39758666D01*
X145232476Y-39711047D01*
X145137238Y-39663428D01*
X145042000Y-39568190D01*
X144994380Y-39425333D01*
X144994380Y-39330095D01*
X145042000Y-39187238D01*
X145089619Y-39139619D01*
X145946761Y-37996761D02*
X145994380Y-37853904D01*
X145994380Y-37615809D01*
X145946761Y-37520571D01*
X145899142Y-37472952D01*
X145803904Y-37425333D01*
X145708666Y-37425333D01*
X145613428Y-37472952D01*
X145565809Y-37520571D01*
X145518190Y-37615809D01*
X145470571Y-37806285D01*
X145422952Y-37901523D01*
X145375333Y-37949142D01*
X145280095Y-37996761D01*
X145184857Y-37996761D01*
X145089619Y-37949142D01*
X145042000Y-37901523D01*
X144994380Y-37806285D01*
X144994380Y-37568190D01*
X145042000Y-37425333D01*
X145327714Y-36996761D02*
X145994380Y-36996761D01*
X145422952Y-36996761D02*
X145375333Y-36949142D01*
X145327714Y-36853904D01*
X145327714Y-36711047D01*
X145375333Y-36615809D01*
X145470571Y-36568190D01*
X145994380Y-36568190D01*
X145994380Y-36092000D02*
X145327714Y-36092000D01*
X144994380Y-36092000D02*
X145042000Y-36139619D01*
X145089619Y-36092000D01*
X145042000Y-36044380D01*
X144994380Y-36092000D01*
X145089619Y-36092000D01*
X145327714Y-35758666D02*
X145327714Y-35377714D01*
X145994380Y-35615809D02*
X145137238Y-35615809D01*
X145042000Y-35568190D01*
X144994380Y-35472952D01*
X144994380Y-35377714D01*
X145327714Y-35187238D02*
X145327714Y-34806285D01*
X145994380Y-35044380D02*
X145137238Y-35044380D01*
X145042000Y-34996761D01*
X144994380Y-34901523D01*
X144994380Y-34806285D01*
X145946761Y-34092000D02*
X145994380Y-34187238D01*
X145994380Y-34377714D01*
X145946761Y-34472952D01*
X145851523Y-34520571D01*
X145470571Y-34520571D01*
X145375333Y-34472952D01*
X145327714Y-34377714D01*
X145327714Y-34187238D01*
X145375333Y-34092000D01*
X145470571Y-34044380D01*
X145565809Y-34044380D01*
X145661047Y-34520571D01*
X145994380Y-33615809D02*
X145327714Y-33615809D01*
X145518190Y-33615809D02*
X145422952Y-33568190D01*
X145375333Y-33520571D01*
X145327714Y-33425333D01*
X145327714Y-33330095D01*
X146699619Y-41496761D02*
X146652000Y-41449142D01*
X146604380Y-41353904D01*
X146604380Y-41115809D01*
X146652000Y-41020571D01*
X146699619Y-40972952D01*
X146794857Y-40925333D01*
X146890095Y-40925333D01*
X147032952Y-40972952D01*
X147604380Y-41544380D01*
X147604380Y-40925333D01*
X146699619Y-40544380D02*
X146652000Y-40496761D01*
X146604380Y-40401523D01*
X146604380Y-40163428D01*
X146652000Y-40068190D01*
X146699619Y-40020571D01*
X146794857Y-39972952D01*
X146890095Y-39972952D01*
X147032952Y-40020571D01*
X147604380Y-40592000D01*
X147604380Y-39972952D01*
X147223428Y-39544380D02*
X147223428Y-38782476D01*
X146604380Y-38115809D02*
X146604380Y-38020571D01*
X146652000Y-37925333D01*
X146699619Y-37877714D01*
X146794857Y-37830095D01*
X146985333Y-37782476D01*
X147223428Y-37782476D01*
X147413904Y-37830095D01*
X147509142Y-37877714D01*
X147556761Y-37925333D01*
X147604380Y-38020571D01*
X147604380Y-38115809D01*
X147556761Y-38211047D01*
X147509142Y-38258666D01*
X147413904Y-38306285D01*
X147223428Y-38353904D01*
X146985333Y-38353904D01*
X146794857Y-38306285D01*
X146699619Y-38258666D01*
X146652000Y-38211047D01*
X146604380Y-38115809D01*
X146604380Y-37449142D02*
X146604380Y-36830095D01*
X146985333Y-37163428D01*
X146985333Y-37020571D01*
X147032952Y-36925333D01*
X147080571Y-36877714D01*
X147175809Y-36830095D01*
X147413904Y-36830095D01*
X147509142Y-36877714D01*
X147556761Y-36925333D01*
X147604380Y-37020571D01*
X147604380Y-37306285D01*
X147556761Y-37401523D01*
X147509142Y-37449142D01*
X147223428Y-36401523D02*
X147223428Y-35639619D01*
X146699619Y-35211047D02*
X146652000Y-35163428D01*
X146604380Y-35068190D01*
X146604380Y-34830095D01*
X146652000Y-34734857D01*
X146699619Y-34687238D01*
X146794857Y-34639619D01*
X146890095Y-34639619D01*
X147032952Y-34687238D01*
X147604380Y-35258666D01*
X147604380Y-34639619D01*
X147604380Y-33687238D02*
X147604380Y-34258666D01*
X147604380Y-33972952D02*
X146604380Y-33972952D01*
X146747238Y-34068190D01*
X146842476Y-34163428D01*
X146890095Y-34258666D01*
X105545142Y-56289380D02*
X105545142Y-55289380D01*
X105783238Y-55289380D01*
X105926095Y-55337000D01*
X106021333Y-55432238D01*
X106068952Y-55527476D01*
X106116571Y-55717952D01*
X106116571Y-55860809D01*
X106068952Y-56051285D01*
X106021333Y-56146523D01*
X105926095Y-56241761D01*
X105783238Y-56289380D01*
X105545142Y-56289380D01*
X107116571Y-56194142D02*
X107068952Y-56241761D01*
X106926095Y-56289380D01*
X106830857Y-56289380D01*
X106688000Y-56241761D01*
X106592761Y-56146523D01*
X106545142Y-56051285D01*
X106497523Y-55860809D01*
X106497523Y-55717952D01*
X106545142Y-55527476D01*
X106592761Y-55432238D01*
X106688000Y-55337000D01*
X106830857Y-55289380D01*
X106926095Y-55289380D01*
X107068952Y-55337000D01*
X107116571Y-55384619D01*
X108116571Y-56194142D02*
X108068952Y-56241761D01*
X107926095Y-56289380D01*
X107830857Y-56289380D01*
X107688000Y-56241761D01*
X107592761Y-56146523D01*
X107545142Y-56051285D01*
X107497523Y-55860809D01*
X107497523Y-55717952D01*
X107545142Y-55527476D01*
X107592761Y-55432238D01*
X107688000Y-55337000D01*
X107830857Y-55289380D01*
X107926095Y-55289380D01*
X108068952Y-55337000D01*
X108116571Y-55384619D01*
X105545142Y-57899380D02*
X105545142Y-56899380D01*
X106021333Y-57232714D02*
X106021333Y-57899380D01*
X106021333Y-57327952D02*
X106068952Y-57280333D01*
X106164190Y-57232714D01*
X106307047Y-57232714D01*
X106402285Y-57280333D01*
X106449904Y-57375571D01*
X106449904Y-57899380D01*
X106926095Y-57232714D02*
X106926095Y-58232714D01*
X106926095Y-57280333D02*
X107021333Y-57232714D01*
X107211809Y-57232714D01*
X107307047Y-57280333D01*
X107354666Y-57327952D01*
X107402285Y-57423190D01*
X107402285Y-57708904D01*
X107354666Y-57804142D01*
X107307047Y-57851761D01*
X107211809Y-57899380D01*
X107021333Y-57899380D01*
X106926095Y-57851761D01*
X108259428Y-57232714D02*
X108259428Y-57899380D01*
X107830857Y-57232714D02*
X107830857Y-57756523D01*
X107878476Y-57851761D01*
X107973714Y-57899380D01*
X108116571Y-57899380D01*
X108211809Y-57851761D01*
X108259428Y-57804142D01*
X108592761Y-57232714D02*
X108973714Y-57232714D01*
X108735619Y-56899380D02*
X108735619Y-57756523D01*
X108783238Y-57851761D01*
X108878476Y-57899380D01*
X108973714Y-57899380D01*
%TO.C,D1*%
X112545904Y-47442380D02*
X112545904Y-46442380D01*
X112784000Y-46442380D01*
X112926857Y-46490000D01*
X113022095Y-46585238D01*
X113069714Y-46680476D01*
X113117333Y-46870952D01*
X113117333Y-47013809D01*
X113069714Y-47204285D01*
X113022095Y-47299523D01*
X112926857Y-47394761D01*
X112784000Y-47442380D01*
X112545904Y-47442380D01*
X114069714Y-47442380D02*
X113498285Y-47442380D01*
X113784000Y-47442380D02*
X113784000Y-46442380D01*
X113688761Y-46585238D01*
X113593523Y-46680476D01*
X113498285Y-46728095D01*
%TO.C,R2*%
X113625333Y-16200380D02*
X113292000Y-15724190D01*
X113053904Y-16200380D02*
X113053904Y-15200380D01*
X113434857Y-15200380D01*
X113530095Y-15248000D01*
X113577714Y-15295619D01*
X113625333Y-15390857D01*
X113625333Y-15533714D01*
X113577714Y-15628952D01*
X113530095Y-15676571D01*
X113434857Y-15724190D01*
X113053904Y-15724190D01*
X114006285Y-15295619D02*
X114053904Y-15248000D01*
X114149142Y-15200380D01*
X114387238Y-15200380D01*
X114482476Y-15248000D01*
X114530095Y-15295619D01*
X114577714Y-15390857D01*
X114577714Y-15486095D01*
X114530095Y-15628952D01*
X113958666Y-16200380D01*
X114577714Y-16200380D01*
%TO.C,C1*%
X105259142Y-41568666D02*
X105306761Y-41616285D01*
X105354380Y-41759142D01*
X105354380Y-41854380D01*
X105306761Y-41997238D01*
X105211523Y-42092476D01*
X105116285Y-42140095D01*
X104925809Y-42187714D01*
X104782952Y-42187714D01*
X104592476Y-42140095D01*
X104497238Y-42092476D01*
X104402000Y-41997238D01*
X104354380Y-41854380D01*
X104354380Y-41759142D01*
X104402000Y-41616285D01*
X104449619Y-41568666D01*
X105354380Y-40616285D02*
X105354380Y-41187714D01*
X105354380Y-40902000D02*
X104354380Y-40902000D01*
X104497238Y-40997238D01*
X104592476Y-41092476D01*
X104640095Y-41187714D01*
%TO.C,U1*%
X112736380Y-39613904D02*
X113545904Y-39613904D01*
X113641142Y-39566285D01*
X113688761Y-39518666D01*
X113736380Y-39423428D01*
X113736380Y-39232952D01*
X113688761Y-39137714D01*
X113641142Y-39090095D01*
X113545904Y-39042476D01*
X112736380Y-39042476D01*
X113736380Y-38042476D02*
X113736380Y-38613904D01*
X113736380Y-38328190D02*
X112736380Y-38328190D01*
X112879238Y-38423428D01*
X112974476Y-38518666D01*
X113022095Y-38613904D01*
%TO.C,R3*%
X113625333Y-22042380D02*
X113292000Y-21566190D01*
X113053904Y-22042380D02*
X113053904Y-21042380D01*
X113434857Y-21042380D01*
X113530095Y-21090000D01*
X113577714Y-21137619D01*
X113625333Y-21232857D01*
X113625333Y-21375714D01*
X113577714Y-21470952D01*
X113530095Y-21518571D01*
X113434857Y-21566190D01*
X113053904Y-21566190D01*
X113958666Y-21042380D02*
X114577714Y-21042380D01*
X114244380Y-21423333D01*
X114387238Y-21423333D01*
X114482476Y-21470952D01*
X114530095Y-21518571D01*
X114577714Y-21613809D01*
X114577714Y-21851904D01*
X114530095Y-21947142D01*
X114482476Y-21994761D01*
X114387238Y-22042380D01*
X114101523Y-22042380D01*
X114006285Y-21994761D01*
X113958666Y-21947142D01*
%TO.C,C3*%
X117451142Y-28614666D02*
X117498761Y-28662285D01*
X117546380Y-28805142D01*
X117546380Y-28900380D01*
X117498761Y-29043238D01*
X117403523Y-29138476D01*
X117308285Y-29186095D01*
X117117809Y-29233714D01*
X116974952Y-29233714D01*
X116784476Y-29186095D01*
X116689238Y-29138476D01*
X116594000Y-29043238D01*
X116546380Y-28900380D01*
X116546380Y-28805142D01*
X116594000Y-28662285D01*
X116641619Y-28614666D01*
X116546380Y-28281333D02*
X116546380Y-27662285D01*
X116927333Y-27995619D01*
X116927333Y-27852761D01*
X116974952Y-27757523D01*
X117022571Y-27709904D01*
X117117809Y-27662285D01*
X117355904Y-27662285D01*
X117451142Y-27709904D01*
X117498761Y-27757523D01*
X117546380Y-27852761D01*
X117546380Y-28138476D01*
X117498761Y-28233714D01*
X117451142Y-28281333D01*
%TO.C,C2*%
X112371142Y-28913554D02*
X112418761Y-28961173D01*
X112466380Y-29104030D01*
X112466380Y-29199268D01*
X112418761Y-29342126D01*
X112323523Y-29437364D01*
X112228285Y-29484983D01*
X112037809Y-29532602D01*
X111894952Y-29532602D01*
X111704476Y-29484983D01*
X111609238Y-29437364D01*
X111514000Y-29342126D01*
X111466380Y-29199268D01*
X111466380Y-29104030D01*
X111514000Y-28961173D01*
X111561619Y-28913554D01*
X111561619Y-28532602D02*
X111514000Y-28484983D01*
X111466380Y-28389745D01*
X111466380Y-28151649D01*
X111514000Y-28056411D01*
X111561619Y-28008792D01*
X111656857Y-27961173D01*
X111752095Y-27961173D01*
X111894952Y-28008792D01*
X112466380Y-28580221D01*
X112466380Y-27961173D01*
%TO.C,A1*%
X131230666Y-38306285D02*
X131230666Y-37830095D01*
X131516380Y-38401523D02*
X130516380Y-38068190D01*
X131516380Y-37734857D01*
X131516380Y-36877714D02*
X131516380Y-37449142D01*
X131516380Y-37163428D02*
X130516380Y-37163428D01*
X130659238Y-37258666D01*
X130754476Y-37353904D01*
X130802095Y-37449142D01*
%TO.C,J1*%
X114728666Y-58126380D02*
X114728666Y-58840666D01*
X114681047Y-58983523D01*
X114585809Y-59078761D01*
X114442952Y-59126380D01*
X114347714Y-59126380D01*
X115728666Y-59126380D02*
X115157238Y-59126380D01*
X115442952Y-59126380D02*
X115442952Y-58126380D01*
X115347714Y-58269238D01*
X115252476Y-58364476D01*
X115157238Y-58412095D01*
%TO.C,R1*%
X100528380Y-42076666D02*
X100052190Y-42410000D01*
X100528380Y-42648095D02*
X99528380Y-42648095D01*
X99528380Y-42267142D01*
X99576000Y-42171904D01*
X99623619Y-42124285D01*
X99718857Y-42076666D01*
X99861714Y-42076666D01*
X99956952Y-42124285D01*
X100004571Y-42171904D01*
X100052190Y-42267142D01*
X100052190Y-42648095D01*
X100528380Y-41124285D02*
X100528380Y-41695714D01*
X100528380Y-41410000D02*
X99528380Y-41410000D01*
X99671238Y-41505238D01*
X99766476Y-41600476D01*
X99814095Y-41695714D01*
D11*
%TO.C,D1*%
X114896000Y-45870000D02*
X110656000Y-45870000D01*
X114896000Y-48110000D02*
X114896000Y-45870000D01*
X111376000Y-45870000D02*
X111376000Y-48110000D01*
X111496000Y-45870000D02*
X111496000Y-48110000D01*
X115546000Y-46990000D02*
X114896000Y-46990000D01*
X110656000Y-45870000D02*
X110656000Y-48110000D01*
X110006000Y-46990000D02*
X110656000Y-46990000D01*
X111256000Y-45870000D02*
X111256000Y-48110000D01*
X110656000Y-48110000D02*
X114896000Y-48110000D01*
%TO.C,R2*%
X118412000Y-14028000D02*
X109172000Y-14028000D01*
X119102000Y-15748000D02*
X118412000Y-15748000D01*
X109172000Y-14028000D02*
X109172000Y-17468000D01*
X109172000Y-17468000D02*
X118412000Y-17468000D01*
X118412000Y-17468000D02*
X118412000Y-14028000D01*
X108482000Y-15748000D02*
X109172000Y-15748000D01*
%TO.C,C1*%
X103847000Y-38782000D02*
X103532000Y-38782000D01*
X106272000Y-44022000D02*
X105957000Y-44022000D01*
X106272000Y-38782000D02*
X106272000Y-44022000D01*
X106272000Y-38782000D02*
X105957000Y-38782000D01*
X103847000Y-44022000D02*
X103532000Y-44022000D01*
X103532000Y-38782000D02*
X103532000Y-44022000D01*
%TO.C,U1*%
X118434000Y-36202000D02*
X108154000Y-36202000D01*
X108154000Y-41502000D02*
X118434000Y-41502000D01*
X118434000Y-41502000D02*
X118434000Y-36202000D01*
X108154000Y-36202000D02*
X108154000Y-37852000D01*
X108154000Y-39852000D02*
X108154000Y-41502000D01*
X108154000Y-39852000D02*
G75*
G03*
X108154000Y-37852000I0J1000000D01*
G01*
%TO.C,R3*%
X108482000Y-21590000D02*
X109172000Y-21590000D01*
X118412000Y-23310000D02*
X118412000Y-19870000D01*
X119102000Y-21590000D02*
X118412000Y-21590000D01*
X109172000Y-23310000D02*
X118412000Y-23310000D01*
X118412000Y-19870000D02*
X109172000Y-19870000D01*
X109172000Y-19870000D02*
X109172000Y-23310000D01*
%TO.C,C3*%
X116039000Y-31068000D02*
X115724000Y-31068000D01*
X115724000Y-25828000D02*
X115724000Y-31068000D01*
X118464000Y-31068000D02*
X118149000Y-31068000D01*
X118464000Y-25828000D02*
X118149000Y-25828000D01*
X116039000Y-25828000D02*
X115724000Y-25828000D01*
X118464000Y-25828000D02*
X118464000Y-31068000D01*
%TO.C,C2*%
X111679000Y-30907888D02*
X111276000Y-30907888D01*
X109196000Y-30427888D02*
X108265000Y-30427888D01*
X111414000Y-31067888D02*
X109058000Y-31067888D01*
X111619000Y-30947888D02*
X111276000Y-30947888D01*
X112756000Y-29306888D02*
X111276000Y-29306888D01*
X109196000Y-30267888D02*
X108141000Y-30267888D01*
X112546000Y-29907888D02*
X111276000Y-29907888D01*
X112772000Y-29226888D02*
X111276000Y-29226888D01*
X109196000Y-31027888D02*
X108985000Y-31027888D01*
X112664000Y-29627888D02*
X111276000Y-29627888D01*
X112173000Y-30467888D02*
X111276000Y-30467888D01*
X109196000Y-29787888D02*
X107871000Y-29787888D01*
X112331000Y-30267888D02*
X111276000Y-30267888D01*
X112565000Y-29867888D02*
X111276000Y-29867888D01*
X112786000Y-29146888D02*
X111276000Y-29146888D01*
X109196000Y-29066888D02*
X107675000Y-29066888D01*
X109196000Y-30107888D02*
X108036000Y-30107888D01*
X109196000Y-29386888D02*
X107735000Y-29386888D01*
X109196000Y-29106888D02*
X107680000Y-29106888D01*
X111487000Y-31027888D02*
X111276000Y-31027888D01*
X111711000Y-25942113D02*
X111711000Y-26442113D01*
X112737000Y-29386888D02*
X111276000Y-29386888D01*
X112678000Y-29587888D02*
X111276000Y-29587888D01*
X109196000Y-30147888D02*
X108061000Y-30147888D01*
X109196000Y-28986888D02*
X107667000Y-28986888D01*
X109196000Y-30827888D02*
X108682000Y-30827888D01*
X109196000Y-29266888D02*
X107708000Y-29266888D01*
X109196000Y-29547888D02*
X107781000Y-29547888D01*
X109196000Y-30507888D02*
X108335000Y-30507888D01*
X111889000Y-30747888D02*
X111276000Y-30747888D01*
X109196000Y-30587888D02*
X108410000Y-30587888D01*
X112207000Y-30427888D02*
X111276000Y-30427888D01*
X109196000Y-29186888D02*
X107693000Y-29186888D01*
X109196000Y-29306888D02*
X107716000Y-29306888D01*
X109196000Y-30547888D02*
X108372000Y-30547888D01*
X112809000Y-28946888D02*
X107663000Y-28946888D01*
X111334000Y-31107888D02*
X109138000Y-31107888D01*
X112504000Y-29987888D02*
X111276000Y-29987888D01*
X111979000Y-30667888D02*
X111276000Y-30667888D01*
X110913000Y-31267888D02*
X109559000Y-31267888D01*
X109196000Y-29507888D02*
X107768000Y-29507888D01*
X112271000Y-30347888D02*
X111276000Y-30347888D01*
X109196000Y-29426888D02*
X107745000Y-29426888D01*
X109196000Y-29587888D02*
X107794000Y-29587888D01*
X112797000Y-29066888D02*
X111276000Y-29066888D01*
X112601000Y-29787888D02*
X111276000Y-29787888D01*
X109196000Y-29827888D02*
X107888000Y-29827888D01*
X112385000Y-30187888D02*
X111276000Y-30187888D01*
X109196000Y-30067888D02*
X108012000Y-30067888D01*
X109196000Y-29627888D02*
X107808000Y-29627888D01*
X111151000Y-31187888D02*
X109321000Y-31187888D01*
X112812000Y-28906888D02*
X107660000Y-28906888D01*
X112240000Y-30387888D02*
X111276000Y-30387888D01*
X112815000Y-28826888D02*
X107657000Y-28826888D01*
X109196000Y-30307888D02*
X108171000Y-30307888D01*
X109196000Y-30987888D02*
X108917000Y-30987888D01*
X112137000Y-30507888D02*
X111276000Y-30507888D01*
X112801000Y-29026888D02*
X111276000Y-29026888D01*
X111961000Y-26192113D02*
X111461000Y-26192113D01*
X109196000Y-30347888D02*
X108201000Y-30347888D01*
X112816000Y-28786888D02*
X107656000Y-28786888D01*
X109196000Y-30627888D02*
X108451000Y-30627888D01*
X112483000Y-30027888D02*
X111276000Y-30027888D01*
X109196000Y-29467888D02*
X107756000Y-29467888D01*
X112358000Y-30227888D02*
X111276000Y-30227888D01*
X109196000Y-29987888D02*
X107968000Y-29987888D01*
X112814000Y-28866888D02*
X107658000Y-28866888D01*
X111841000Y-30787888D02*
X111276000Y-30787888D01*
X109196000Y-30667888D02*
X108493000Y-30667888D01*
X112062000Y-30587888D02*
X111276000Y-30587888D01*
X109196000Y-30387888D02*
X108232000Y-30387888D01*
X109196000Y-30907888D02*
X108793000Y-30907888D01*
X109196000Y-29707888D02*
X107838000Y-29707888D01*
X109196000Y-30867888D02*
X108736000Y-30867888D01*
X110520000Y-31347888D02*
X109952000Y-31347888D01*
X109196000Y-29747888D02*
X107854000Y-29747888D01*
X109196000Y-29146888D02*
X107686000Y-29146888D01*
X112747000Y-29346888D02*
X111276000Y-29346888D01*
X109196000Y-29947888D02*
X107946000Y-29947888D01*
X111935000Y-30707888D02*
X111276000Y-30707888D01*
X109196000Y-29026888D02*
X107671000Y-29026888D01*
X109196000Y-30027888D02*
X107989000Y-30027888D01*
X109196000Y-30227888D02*
X108114000Y-30227888D01*
X112021000Y-30627888D02*
X111276000Y-30627888D01*
X111247000Y-31147888D02*
X109225000Y-31147888D01*
X111736000Y-30867888D02*
X111276000Y-30867888D01*
X112764000Y-29266888D02*
X111276000Y-29266888D01*
X112704000Y-29507888D02*
X111276000Y-29507888D01*
X109196000Y-30707888D02*
X108537000Y-30707888D01*
X109196000Y-29667888D02*
X107822000Y-29667888D01*
X109196000Y-29346888D02*
X107725000Y-29346888D01*
X112460000Y-30067888D02*
X111276000Y-30067888D01*
X112779000Y-29186888D02*
X111276000Y-29186888D01*
X112301000Y-30307888D02*
X111276000Y-30307888D01*
X109196000Y-30947888D02*
X108853000Y-30947888D01*
X109196000Y-30467888D02*
X108299000Y-30467888D01*
X112805000Y-28986888D02*
X111276000Y-28986888D01*
X112634000Y-29707888D02*
X111276000Y-29707888D01*
X111041000Y-31227888D02*
X109431000Y-31227888D01*
X112716000Y-29467888D02*
X111276000Y-29467888D01*
X109196000Y-30187888D02*
X108087000Y-30187888D01*
X112792000Y-29106888D02*
X111276000Y-29106888D01*
X112691000Y-29547888D02*
X111276000Y-29547888D01*
X112526000Y-29947888D02*
X111276000Y-29947888D01*
X110754000Y-31307888D02*
X109718000Y-31307888D01*
X112584000Y-29827888D02*
X111276000Y-29827888D01*
X109196000Y-30747888D02*
X108583000Y-30747888D01*
X111555000Y-30987888D02*
X111276000Y-30987888D01*
X112618000Y-29747888D02*
X111276000Y-29747888D01*
X109196000Y-29907888D02*
X107926000Y-29907888D01*
X111790000Y-30827888D02*
X111276000Y-30827888D01*
X112816000Y-28746888D02*
X107656000Y-28746888D01*
X112100000Y-30547888D02*
X111276000Y-30547888D01*
X109196000Y-29226888D02*
X107700000Y-29226888D01*
X109196000Y-30787888D02*
X108631000Y-30787888D01*
X109196000Y-29867888D02*
X107907000Y-29867888D01*
X112436000Y-30107888D02*
X111276000Y-30107888D01*
X112650000Y-29667888D02*
X111276000Y-29667888D01*
X112411000Y-30147888D02*
X111276000Y-30147888D01*
X112727000Y-29426888D02*
X111276000Y-29426888D01*
X112856000Y-28746888D02*
G75*
G03*
X112856000Y-28746888I-2620000J0D01*
G01*
%TO.C,A1*%
X138694000Y-17272000D02*
X141364000Y-17272000D01*
X125994000Y-19812000D02*
X125994000Y-55372000D01*
X138694000Y-55372000D02*
X141364000Y-55372000D01*
X123324000Y-19812000D02*
X123324000Y-58042000D01*
X123324000Y-14602000D02*
X123324000Y-17272000D01*
X125994000Y-17272000D02*
X123324000Y-17272000D01*
X141364000Y-14602000D02*
X123324000Y-14602000D01*
X141364000Y-58042000D02*
X141364000Y-14602000D01*
X138694000Y-17272000D02*
X138694000Y-55372000D01*
X125994000Y-19812000D02*
X125994000Y-17272000D01*
X125994000Y-55372000D02*
X123324000Y-55372000D01*
X125994000Y-19812000D02*
X123324000Y-19812000D01*
X123324000Y-58042000D02*
X141364000Y-58042000D01*
%TO.C,J1*%
X109682000Y-59786000D02*
X109682000Y-60526000D01*
X116568000Y-56865000D02*
X116533000Y-56900000D01*
X109922000Y-50365000D02*
X120202000Y-50365000D01*
X109922000Y-59726000D02*
X120202000Y-59726000D01*
X116375000Y-56649000D02*
X116328000Y-56695000D01*
X120202000Y-50365000D02*
X120202000Y-60286000D01*
X118877000Y-54557000D02*
X118830000Y-54603000D01*
X109922000Y-58226000D02*
X120202000Y-58226000D01*
X109922000Y-50365000D02*
X109922000Y-60286000D01*
X118672000Y-54351000D02*
X118637000Y-54387000D01*
X109922000Y-60286000D02*
X120202000Y-60286000D01*
X109682000Y-60526000D02*
X110182000Y-60526000D01*
X109922000Y-53325000D02*
X120202000Y-53325000D01*
X112522000Y-57306000D02*
G75*
G03*
X113205318Y-57160756I1J1679992D01*
G01*
X111838000Y-57161000D02*
G75*
G03*
X112550805Y-57306253I683999J1535001D01*
G01*
X110987000Y-54942000D02*
G75*
G03*
X110986573Y-56309042I1534993J-684001D01*
G01*
X113206000Y-54091000D02*
G75*
G03*
X111838958Y-54090573I-684001J-1534993D01*
G01*
X114057000Y-56310000D02*
G75*
G03*
X114057427Y-54942958I-1534993J684001D01*
G01*
X119282000Y-55626000D02*
G75*
G03*
X119282000Y-55626000I-1680000J0D01*
G01*
%TO.C,R1*%
X98356000Y-46530000D02*
X101796000Y-46530000D01*
X100076000Y-36600000D02*
X100076000Y-37290000D01*
X100076000Y-47220000D02*
X100076000Y-46530000D01*
X101796000Y-46530000D02*
X101796000Y-37290000D01*
X98356000Y-37290000D02*
X98356000Y-46530000D01*
X101796000Y-37290000D02*
X98356000Y-37290000D01*
%TD*%
M02*
