%TF.GenerationSoftware,KiCad,Pcbnew,(6.0.2)*%
%TF.CreationDate,2022-03-21T18:21:57-04:00*%
%TF.ProjectId,dccsniffer,64636373-6e69-4666-9665-722e6b696361,rev?*%
%TF.SameCoordinates,Original*%
%TF.FileFunction,Copper,L2,Bot*%
%TF.FilePolarity,Positive*%
%FSLAX46Y46*%
G04 Gerber Fmt 4.6, Leading zero omitted, Abs format (unit mm)*
G04 Created by KiCad (PCBNEW (6.0.2)) date 2022-03-21 18:21:57*
%MOMM*%
%LPD*%
G01*
G04 APERTURE LIST*
%TA.AperFunction,ComponentPad*%
%ADD10R,1.600000X1.600000*%
%TD*%
%TA.AperFunction,ComponentPad*%
%ADD11O,1.600000X1.600000*%
%TD*%
%TA.AperFunction,ComponentPad*%
%ADD12C,1.600000*%
%TD*%
%TA.AperFunction,ComponentPad*%
%ADD13R,2.600000X2.600000*%
%TD*%
%TA.AperFunction,ComponentPad*%
%ADD14C,2.600000*%
%TD*%
%TA.AperFunction,Conductor*%
%ADD15C,0.400000*%
%TD*%
G04 APERTURE END LIST*
D10*
%TO.P,D1,1,K*%
%TO.N,Net-(C1-Pad1)*%
X108966000Y-46990000D03*
D11*
%TO.P,D1,2,A*%
%TO.N,Net-(C1-Pad2)*%
X116586000Y-46990000D03*
%TD*%
D12*
%TO.P,R2,1*%
%TO.N,+5V*%
X120142000Y-15748000D03*
D11*
%TO.P,R2,2*%
%TO.N,Net-(R2-Pad2)*%
X107442000Y-15748000D03*
%TD*%
D12*
%TO.P,C1,1*%
%TO.N,Net-(C1-Pad1)*%
X104902000Y-38902000D03*
%TO.P,C1,2*%
%TO.N,Net-(C1-Pad2)*%
X104902000Y-43902000D03*
%TD*%
D10*
%TO.P,U1,1,NC*%
%TO.N,unconnected-(U1-Pad1)*%
X109484000Y-42662000D03*
D11*
%TO.P,U1,2,A*%
%TO.N,Net-(C1-Pad1)*%
X112024000Y-42662000D03*
%TO.P,U1,3,C*%
%TO.N,Net-(C1-Pad2)*%
X114564000Y-42662000D03*
%TO.P,U1,4*%
%TO.N,N/C*%
X117104000Y-42662000D03*
%TO.P,U1,5,GND*%
%TO.N,GND*%
X117104000Y-35042000D03*
%TO.P,U1,6,VO*%
%TO.N,Net-(A1-Pad5)*%
X114564000Y-35042000D03*
%TO.P,U1,7,EN*%
%TO.N,Net-(R2-Pad2)*%
X112024000Y-35042000D03*
%TO.P,U1,8,VCC*%
%TO.N,+5V*%
X109484000Y-35042000D03*
%TD*%
D12*
%TO.P,R3,1*%
%TO.N,+5V*%
X107442000Y-21590000D03*
D11*
%TO.P,R3,2*%
%TO.N,Net-(A1-Pad5)*%
X120142000Y-21590000D03*
%TD*%
D12*
%TO.P,C3,1*%
%TO.N,+5V*%
X117094000Y-25948000D03*
%TO.P,C3,2*%
%TO.N,GND*%
X117094000Y-30948000D03*
%TD*%
D10*
%TO.P,C2,1*%
%TO.N,+5V*%
X110236000Y-27496888D03*
D12*
%TO.P,C2,2*%
%TO.N,GND*%
X110236000Y-29996888D03*
%TD*%
D10*
%TO.P,A1,1,D1/TX*%
%TO.N,unconnected-(A1-Pad1)*%
X124724000Y-18542000D03*
D11*
%TO.P,A1,2,D0/RX*%
%TO.N,unconnected-(A1-Pad2)*%
X124724000Y-21082000D03*
%TO.P,A1,3,~{RESET}*%
%TO.N,unconnected-(A1-Pad3)*%
X124724000Y-23622000D03*
%TO.P,A1,4,GND*%
%TO.N,GND*%
X124724000Y-26162000D03*
%TO.P,A1,5,D2*%
%TO.N,Net-(A1-Pad5)*%
X124724000Y-28702000D03*
%TO.P,A1,6,D3*%
%TO.N,unconnected-(A1-Pad6)*%
X124724000Y-31242000D03*
%TO.P,A1,7,D4*%
%TO.N,unconnected-(A1-Pad7)*%
X124724000Y-33782000D03*
%TO.P,A1,8,D5*%
%TO.N,unconnected-(A1-Pad8)*%
X124724000Y-36322000D03*
%TO.P,A1,9,D6*%
%TO.N,unconnected-(A1-Pad9)*%
X124724000Y-38862000D03*
%TO.P,A1,10,D7*%
%TO.N,unconnected-(A1-Pad10)*%
X124724000Y-41402000D03*
%TO.P,A1,11,D8*%
%TO.N,unconnected-(A1-Pad11)*%
X124724000Y-43942000D03*
%TO.P,A1,12,D9*%
%TO.N,unconnected-(A1-Pad12)*%
X124724000Y-46482000D03*
%TO.P,A1,13,D10*%
%TO.N,unconnected-(A1-Pad13)*%
X124724000Y-49022000D03*
%TO.P,A1,14,D11*%
%TO.N,unconnected-(A1-Pad14)*%
X124724000Y-51562000D03*
%TO.P,A1,15,D12*%
%TO.N,unconnected-(A1-Pad15)*%
X124724000Y-54102000D03*
%TO.P,A1,16,D13*%
%TO.N,unconnected-(A1-Pad16)*%
X139964000Y-54102000D03*
%TO.P,A1,17,3V3*%
%TO.N,unconnected-(A1-Pad17)*%
X139964000Y-51562000D03*
%TO.P,A1,18,AREF*%
%TO.N,unconnected-(A1-Pad18)*%
X139964000Y-49022000D03*
%TO.P,A1,19,A0*%
%TO.N,unconnected-(A1-Pad19)*%
X139964000Y-46482000D03*
%TO.P,A1,20,A1*%
%TO.N,unconnected-(A1-Pad20)*%
X139964000Y-43942000D03*
%TO.P,A1,21,A2*%
%TO.N,unconnected-(A1-Pad21)*%
X139964000Y-41402000D03*
%TO.P,A1,22,A3*%
%TO.N,unconnected-(A1-Pad22)*%
X139964000Y-38862000D03*
%TO.P,A1,23,A4*%
%TO.N,unconnected-(A1-Pad23)*%
X139964000Y-36322000D03*
%TO.P,A1,24,A5*%
%TO.N,unconnected-(A1-Pad24)*%
X139964000Y-33782000D03*
%TO.P,A1,25,A6*%
%TO.N,unconnected-(A1-Pad25)*%
X139964000Y-31242000D03*
%TO.P,A1,26,A7*%
%TO.N,unconnected-(A1-Pad26)*%
X139964000Y-28702000D03*
%TO.P,A1,27,+5V*%
%TO.N,+5V*%
X139964000Y-26162000D03*
%TO.P,A1,28,~{RESET}*%
%TO.N,unconnected-(A1-Pad28)*%
X139964000Y-23622000D03*
%TO.P,A1,29,GND*%
%TO.N,GND*%
X139964000Y-21082000D03*
%TO.P,A1,30,VIN*%
%TO.N,unconnected-(A1-Pad30)*%
X139964000Y-18542000D03*
%TD*%
D13*
%TO.P,J1,1,Pin_1*%
%TO.N,Net-(J1-Pad1)*%
X112522000Y-55626000D03*
D14*
%TO.P,J1,2,Pin_2*%
%TO.N,Net-(C1-Pad2)*%
X117602000Y-55626000D03*
%TD*%
D12*
%TO.P,R1,1*%
%TO.N,Net-(J1-Pad1)*%
X100076000Y-48260000D03*
D11*
%TO.P,R1,2*%
%TO.N,Net-(C1-Pad1)*%
X100076000Y-35560000D03*
%TD*%
D15*
%TO.N,Net-(R2-Pad2)*%
X112024000Y-32268000D02*
X112034000Y-32258000D01*
X112024000Y-35042000D02*
X112024000Y-32268000D01*
X113538000Y-32258000D02*
X113538000Y-15748000D01*
X113538000Y-15748000D02*
X107442000Y-15748000D01*
X112034000Y-32258000D02*
X113538000Y-32258000D01*
%TD*%
%TA.AperFunction,Conductor*%
%TO.N,GND*%
G36*
X149294121Y-13228002D02*
G01*
X149340614Y-13281658D01*
X149352000Y-13334000D01*
X149352000Y-60326000D01*
X149331998Y-60394121D01*
X149278342Y-60440614D01*
X149226000Y-60452000D01*
X97154000Y-60452000D01*
X97085879Y-60431998D01*
X97039386Y-60378342D01*
X97028000Y-60326000D01*
X97028000Y-56774703D01*
X98982743Y-56774703D01*
X99020268Y-57059734D01*
X99096129Y-57337036D01*
X99208923Y-57601476D01*
X99356561Y-57848161D01*
X99536313Y-58072528D01*
X99744851Y-58270423D01*
X99978317Y-58438186D01*
X99982112Y-58440195D01*
X99982113Y-58440196D01*
X100003869Y-58451715D01*
X100232392Y-58572712D01*
X100502373Y-58671511D01*
X100783264Y-58732755D01*
X100811841Y-58735004D01*
X101006282Y-58750307D01*
X101006291Y-58750307D01*
X101008739Y-58750500D01*
X101164271Y-58750500D01*
X101166407Y-58750354D01*
X101166418Y-58750354D01*
X101374548Y-58736165D01*
X101374554Y-58736164D01*
X101378825Y-58735873D01*
X101383020Y-58735004D01*
X101383022Y-58735004D01*
X101519584Y-58706723D01*
X101660342Y-58677574D01*
X101931343Y-58581607D01*
X102186812Y-58449750D01*
X102190313Y-58447289D01*
X102190317Y-58447287D01*
X102304418Y-58367095D01*
X102422023Y-58284441D01*
X102632622Y-58088740D01*
X102814713Y-57866268D01*
X102964927Y-57621142D01*
X103045197Y-57438283D01*
X103078757Y-57361830D01*
X103080483Y-57357898D01*
X103085364Y-57340765D01*
X103155181Y-57095669D01*
X103159244Y-57081406D01*
X103174511Y-56974134D01*
X110713500Y-56974134D01*
X110720255Y-57036316D01*
X110771385Y-57172705D01*
X110858739Y-57289261D01*
X110975295Y-57376615D01*
X111111684Y-57427745D01*
X111173866Y-57434500D01*
X113870134Y-57434500D01*
X113932316Y-57427745D01*
X114068705Y-57376615D01*
X114185261Y-57289261D01*
X114272615Y-57172705D01*
X114323745Y-57036316D01*
X114330500Y-56974134D01*
X114330500Y-55578526D01*
X115789050Y-55578526D01*
X115789274Y-55583192D01*
X115789274Y-55583197D01*
X115794235Y-55686476D01*
X115801947Y-55847019D01*
X115854388Y-56110656D01*
X115945220Y-56363646D01*
X116072450Y-56600431D01*
X116075241Y-56604168D01*
X116075245Y-56604175D01*
X116156887Y-56713506D01*
X116233281Y-56815810D01*
X116236590Y-56819090D01*
X116236595Y-56819096D01*
X116420863Y-57001762D01*
X116424180Y-57005050D01*
X116427942Y-57007808D01*
X116427945Y-57007811D01*
X116540299Y-57090192D01*
X116640954Y-57163995D01*
X116645089Y-57166171D01*
X116645093Y-57166173D01*
X116874698Y-57286975D01*
X116878840Y-57289154D01*
X117132613Y-57377775D01*
X117137206Y-57378647D01*
X117392109Y-57427042D01*
X117392112Y-57427042D01*
X117396698Y-57427913D01*
X117524370Y-57432929D01*
X117660625Y-57438283D01*
X117660630Y-57438283D01*
X117665293Y-57438466D01*
X117769607Y-57427042D01*
X117927844Y-57409713D01*
X117927850Y-57409712D01*
X117932497Y-57409203D01*
X118044302Y-57379767D01*
X118187918Y-57341956D01*
X118187920Y-57341955D01*
X118192441Y-57340765D01*
X118196738Y-57338919D01*
X118435120Y-57236502D01*
X118435122Y-57236501D01*
X118439414Y-57234657D01*
X118558071Y-57161230D01*
X118664017Y-57095669D01*
X118664021Y-57095666D01*
X118667990Y-57093210D01*
X118873149Y-56919530D01*
X119000159Y-56774703D01*
X144194743Y-56774703D01*
X144232268Y-57059734D01*
X144308129Y-57337036D01*
X144420923Y-57601476D01*
X144568561Y-57848161D01*
X144748313Y-58072528D01*
X144956851Y-58270423D01*
X145190317Y-58438186D01*
X145194112Y-58440195D01*
X145194113Y-58440196D01*
X145215869Y-58451715D01*
X145444392Y-58572712D01*
X145714373Y-58671511D01*
X145995264Y-58732755D01*
X146023841Y-58735004D01*
X146218282Y-58750307D01*
X146218291Y-58750307D01*
X146220739Y-58750500D01*
X146376271Y-58750500D01*
X146378407Y-58750354D01*
X146378418Y-58750354D01*
X146586548Y-58736165D01*
X146586554Y-58736164D01*
X146590825Y-58735873D01*
X146595020Y-58735004D01*
X146595022Y-58735004D01*
X146731584Y-58706723D01*
X146872342Y-58677574D01*
X147143343Y-58581607D01*
X147398812Y-58449750D01*
X147402313Y-58447289D01*
X147402317Y-58447287D01*
X147516418Y-58367095D01*
X147634023Y-58284441D01*
X147844622Y-58088740D01*
X148026713Y-57866268D01*
X148176927Y-57621142D01*
X148257197Y-57438283D01*
X148290757Y-57361830D01*
X148292483Y-57357898D01*
X148297364Y-57340765D01*
X148367181Y-57095669D01*
X148371244Y-57081406D01*
X148411751Y-56796784D01*
X148411845Y-56778951D01*
X148413235Y-56513583D01*
X148413235Y-56513576D01*
X148413257Y-56509297D01*
X148375732Y-56224266D01*
X148299871Y-55946964D01*
X148255249Y-55842349D01*
X148188763Y-55686476D01*
X148188761Y-55686472D01*
X148187077Y-55682524D01*
X148039439Y-55435839D01*
X147859687Y-55211472D01*
X147651149Y-55013577D01*
X147417683Y-54845814D01*
X147395843Y-54834250D01*
X147261760Y-54763257D01*
X147163608Y-54711288D01*
X146893627Y-54612489D01*
X146612736Y-54551245D01*
X146581685Y-54548801D01*
X146389718Y-54533693D01*
X146389709Y-54533693D01*
X146387261Y-54533500D01*
X146231729Y-54533500D01*
X146229593Y-54533646D01*
X146229582Y-54533646D01*
X146021452Y-54547835D01*
X146021446Y-54547836D01*
X146017175Y-54548127D01*
X146012980Y-54548996D01*
X146012978Y-54548996D01*
X145915127Y-54569260D01*
X145735658Y-54606426D01*
X145464657Y-54702393D01*
X145209188Y-54834250D01*
X145205687Y-54836711D01*
X145205683Y-54836713D01*
X145091582Y-54916905D01*
X144973977Y-54999559D01*
X144763378Y-55195260D01*
X144581287Y-55417732D01*
X144431073Y-55662858D01*
X144315517Y-55926102D01*
X144236756Y-56202594D01*
X144196249Y-56487216D01*
X144196227Y-56491505D01*
X144196226Y-56491512D01*
X144194765Y-56770417D01*
X144194743Y-56774703D01*
X119000159Y-56774703D01*
X119050382Y-56717434D01*
X119195797Y-56491361D01*
X119306199Y-56246278D01*
X119343209Y-56115051D01*
X119377893Y-55992072D01*
X119377894Y-55992069D01*
X119379163Y-55987568D01*
X119397043Y-55847019D01*
X119412688Y-55724045D01*
X119412688Y-55724041D01*
X119413086Y-55720915D01*
X119415571Y-55626000D01*
X119395650Y-55357937D01*
X119394619Y-55353379D01*
X119337361Y-55100331D01*
X119337360Y-55100326D01*
X119336327Y-55095763D01*
X119238902Y-54845238D01*
X119105518Y-54611864D01*
X119102359Y-54607856D01*
X119039416Y-54528014D01*
X118939105Y-54400769D01*
X118743317Y-54216591D01*
X118578136Y-54102000D01*
X123410502Y-54102000D01*
X123430457Y-54330087D01*
X123431881Y-54335400D01*
X123431881Y-54335402D01*
X123441095Y-54369787D01*
X123489716Y-54551243D01*
X123492039Y-54556224D01*
X123492039Y-54556225D01*
X123584151Y-54753762D01*
X123584154Y-54753767D01*
X123586477Y-54758749D01*
X123717802Y-54946300D01*
X123879700Y-55108198D01*
X123884208Y-55111355D01*
X123884211Y-55111357D01*
X123962389Y-55166098D01*
X124067251Y-55239523D01*
X124072233Y-55241846D01*
X124072238Y-55241849D01*
X124210966Y-55306538D01*
X124274757Y-55336284D01*
X124280065Y-55337706D01*
X124280067Y-55337707D01*
X124490598Y-55394119D01*
X124490600Y-55394119D01*
X124495913Y-55395543D01*
X124724000Y-55415498D01*
X124952087Y-55395543D01*
X124957400Y-55394119D01*
X124957402Y-55394119D01*
X125167933Y-55337707D01*
X125167935Y-55337706D01*
X125173243Y-55336284D01*
X125237034Y-55306538D01*
X125375762Y-55241849D01*
X125375767Y-55241846D01*
X125380749Y-55239523D01*
X125485611Y-55166098D01*
X125563789Y-55111357D01*
X125563792Y-55111355D01*
X125568300Y-55108198D01*
X125730198Y-54946300D01*
X125861523Y-54758749D01*
X125863846Y-54753767D01*
X125863849Y-54753762D01*
X125955961Y-54556225D01*
X125955961Y-54556224D01*
X125958284Y-54551243D01*
X126006906Y-54369787D01*
X126016119Y-54335402D01*
X126016119Y-54335400D01*
X126017543Y-54330087D01*
X126037498Y-54102000D01*
X138650502Y-54102000D01*
X138670457Y-54330087D01*
X138671881Y-54335400D01*
X138671881Y-54335402D01*
X138681095Y-54369787D01*
X138729716Y-54551243D01*
X138732039Y-54556224D01*
X138732039Y-54556225D01*
X138824151Y-54753762D01*
X138824154Y-54753767D01*
X138826477Y-54758749D01*
X138957802Y-54946300D01*
X139119700Y-55108198D01*
X139124208Y-55111355D01*
X139124211Y-55111357D01*
X139202389Y-55166098D01*
X139307251Y-55239523D01*
X139312233Y-55241846D01*
X139312238Y-55241849D01*
X139450966Y-55306538D01*
X139514757Y-55336284D01*
X139520065Y-55337706D01*
X139520067Y-55337707D01*
X139730598Y-55394119D01*
X139730600Y-55394119D01*
X139735913Y-55395543D01*
X139964000Y-55415498D01*
X140192087Y-55395543D01*
X140197400Y-55394119D01*
X140197402Y-55394119D01*
X140407933Y-55337707D01*
X140407935Y-55337706D01*
X140413243Y-55336284D01*
X140477034Y-55306538D01*
X140615762Y-55241849D01*
X140615767Y-55241846D01*
X140620749Y-55239523D01*
X140725611Y-55166098D01*
X140803789Y-55111357D01*
X140803792Y-55111355D01*
X140808300Y-55108198D01*
X140970198Y-54946300D01*
X141101523Y-54758749D01*
X141103846Y-54753767D01*
X141103849Y-54753762D01*
X141195961Y-54556225D01*
X141195961Y-54556224D01*
X141198284Y-54551243D01*
X141246906Y-54369787D01*
X141256119Y-54335402D01*
X141256119Y-54335400D01*
X141257543Y-54330087D01*
X141277498Y-54102000D01*
X141257543Y-53873913D01*
X141252038Y-53853368D01*
X141199707Y-53658067D01*
X141199706Y-53658065D01*
X141198284Y-53652757D01*
X141195961Y-53647775D01*
X141103849Y-53450238D01*
X141103846Y-53450233D01*
X141101523Y-53445251D01*
X140970198Y-53257700D01*
X140808300Y-53095802D01*
X140803792Y-53092645D01*
X140803789Y-53092643D01*
X140725611Y-53037902D01*
X140620749Y-52964477D01*
X140615767Y-52962154D01*
X140615762Y-52962151D01*
X140581543Y-52946195D01*
X140528258Y-52899278D01*
X140508797Y-52831001D01*
X140529339Y-52763041D01*
X140581543Y-52717805D01*
X140615762Y-52701849D01*
X140615767Y-52701846D01*
X140620749Y-52699523D01*
X140725611Y-52626098D01*
X140803789Y-52571357D01*
X140803792Y-52571355D01*
X140808300Y-52568198D01*
X140970198Y-52406300D01*
X141101523Y-52218749D01*
X141103846Y-52213767D01*
X141103849Y-52213762D01*
X141195961Y-52016225D01*
X141195961Y-52016224D01*
X141198284Y-52011243D01*
X141257543Y-51790087D01*
X141277498Y-51562000D01*
X141257543Y-51333913D01*
X141198284Y-51112757D01*
X141195961Y-51107775D01*
X141103849Y-50910238D01*
X141103846Y-50910233D01*
X141101523Y-50905251D01*
X140970198Y-50717700D01*
X140808300Y-50555802D01*
X140803792Y-50552645D01*
X140803789Y-50552643D01*
X140725611Y-50497902D01*
X140620749Y-50424477D01*
X140615767Y-50422154D01*
X140615762Y-50422151D01*
X140581543Y-50406195D01*
X140528258Y-50359278D01*
X140508797Y-50291001D01*
X140529339Y-50223041D01*
X140581543Y-50177805D01*
X140615762Y-50161849D01*
X140615767Y-50161846D01*
X140620749Y-50159523D01*
X140725611Y-50086098D01*
X140803789Y-50031357D01*
X140803792Y-50031355D01*
X140808300Y-50028198D01*
X140970198Y-49866300D01*
X141101523Y-49678749D01*
X141103846Y-49673767D01*
X141103849Y-49673762D01*
X141195961Y-49476225D01*
X141195961Y-49476224D01*
X141198284Y-49471243D01*
X141218038Y-49397523D01*
X141256119Y-49255402D01*
X141256119Y-49255400D01*
X141257543Y-49250087D01*
X141277498Y-49022000D01*
X141257543Y-48793913D01*
X141198284Y-48572757D01*
X141195961Y-48567775D01*
X141103849Y-48370238D01*
X141103846Y-48370233D01*
X141101523Y-48365251D01*
X140970198Y-48177700D01*
X140808300Y-48015802D01*
X140803792Y-48012645D01*
X140803789Y-48012643D01*
X140643369Y-47900316D01*
X140620749Y-47884477D01*
X140615767Y-47882154D01*
X140615762Y-47882151D01*
X140581543Y-47866195D01*
X140528258Y-47819278D01*
X140508797Y-47751001D01*
X140529339Y-47683041D01*
X140581543Y-47637805D01*
X140615762Y-47621849D01*
X140615767Y-47621846D01*
X140620749Y-47619523D01*
X140725611Y-47546098D01*
X140803789Y-47491357D01*
X140803792Y-47491355D01*
X140808300Y-47488198D01*
X140970198Y-47326300D01*
X141101523Y-47138749D01*
X141103846Y-47133767D01*
X141103849Y-47133762D01*
X141195961Y-46936225D01*
X141195961Y-46936224D01*
X141198284Y-46931243D01*
X141257543Y-46710087D01*
X141277498Y-46482000D01*
X141257543Y-46253913D01*
X141228547Y-46145700D01*
X141199707Y-46038067D01*
X141199706Y-46038065D01*
X141198284Y-46032757D01*
X141160488Y-45951703D01*
X141103849Y-45830238D01*
X141103846Y-45830233D01*
X141101523Y-45825251D01*
X141011005Y-45695978D01*
X140973357Y-45642211D01*
X140973355Y-45642208D01*
X140970198Y-45637700D01*
X140808300Y-45475802D01*
X140803792Y-45472645D01*
X140803789Y-45472643D01*
X140725611Y-45417902D01*
X140620749Y-45344477D01*
X140615767Y-45342154D01*
X140615762Y-45342151D01*
X140581543Y-45326195D01*
X140528258Y-45279278D01*
X140508797Y-45211001D01*
X140529339Y-45143041D01*
X140581543Y-45097805D01*
X140615762Y-45081849D01*
X140615767Y-45081846D01*
X140620749Y-45079523D01*
X140725611Y-45006098D01*
X140803789Y-44951357D01*
X140803792Y-44951355D01*
X140808300Y-44948198D01*
X140970198Y-44786300D01*
X140998207Y-44746300D01*
X141098366Y-44603257D01*
X141101523Y-44598749D01*
X141103846Y-44593767D01*
X141103849Y-44593762D01*
X141195961Y-44396225D01*
X141195961Y-44396224D01*
X141198284Y-44391243D01*
X141257543Y-44170087D01*
X141277498Y-43942000D01*
X141257543Y-43713913D01*
X141245294Y-43668198D01*
X141199707Y-43498067D01*
X141199706Y-43498065D01*
X141198284Y-43492757D01*
X141177309Y-43447775D01*
X141103849Y-43290238D01*
X141103846Y-43290233D01*
X141101523Y-43285251D01*
X140983861Y-43117213D01*
X140973357Y-43102211D01*
X140973355Y-43102208D01*
X140970198Y-43097700D01*
X140808300Y-42935802D01*
X140803792Y-42932645D01*
X140803789Y-42932643D01*
X140725611Y-42877902D01*
X140620749Y-42804477D01*
X140615767Y-42802154D01*
X140615762Y-42802151D01*
X140581543Y-42786195D01*
X140528258Y-42739278D01*
X140508797Y-42671001D01*
X140529339Y-42603041D01*
X140581543Y-42557805D01*
X140615762Y-42541849D01*
X140615767Y-42541846D01*
X140620749Y-42539523D01*
X140763749Y-42439393D01*
X140803789Y-42411357D01*
X140803792Y-42411355D01*
X140808300Y-42408198D01*
X140970198Y-42246300D01*
X140997866Y-42206787D01*
X141060593Y-42117203D01*
X141101523Y-42058749D01*
X141103846Y-42053767D01*
X141103849Y-42053762D01*
X141195961Y-41856225D01*
X141195961Y-41856224D01*
X141198284Y-41851243D01*
X141209210Y-41810469D01*
X141256119Y-41635402D01*
X141256119Y-41635400D01*
X141257543Y-41630087D01*
X141277498Y-41402000D01*
X141257543Y-41173913D01*
X141198284Y-40952757D01*
X141195961Y-40947775D01*
X141103849Y-40750238D01*
X141103846Y-40750233D01*
X141101523Y-40745251D01*
X140970198Y-40557700D01*
X140808300Y-40395802D01*
X140803792Y-40392645D01*
X140803789Y-40392643D01*
X140725611Y-40337902D01*
X140620749Y-40264477D01*
X140615767Y-40262154D01*
X140615762Y-40262151D01*
X140581543Y-40246195D01*
X140528258Y-40199278D01*
X140508797Y-40131001D01*
X140529339Y-40063041D01*
X140581543Y-40017805D01*
X140615762Y-40001849D01*
X140615767Y-40001846D01*
X140620749Y-39999523D01*
X140756740Y-39904301D01*
X140803789Y-39871357D01*
X140803792Y-39871355D01*
X140808300Y-39868198D01*
X140970198Y-39706300D01*
X141101523Y-39518749D01*
X141103846Y-39513767D01*
X141103849Y-39513762D01*
X141195961Y-39316225D01*
X141195961Y-39316224D01*
X141198284Y-39311243D01*
X141257543Y-39090087D01*
X141277498Y-38862000D01*
X141257543Y-38633913D01*
X141198284Y-38412757D01*
X141122501Y-38250238D01*
X141103849Y-38210238D01*
X141103846Y-38210233D01*
X141101523Y-38205251D01*
X141001365Y-38062211D01*
X140973357Y-38022211D01*
X140973355Y-38022208D01*
X140970198Y-38017700D01*
X140808300Y-37855802D01*
X140803792Y-37852645D01*
X140803789Y-37852643D01*
X140682383Y-37767634D01*
X140620749Y-37724477D01*
X140615767Y-37722154D01*
X140615762Y-37722151D01*
X140581543Y-37706195D01*
X140528258Y-37659278D01*
X140508797Y-37591001D01*
X140529339Y-37523041D01*
X140581543Y-37477805D01*
X140615762Y-37461849D01*
X140615767Y-37461846D01*
X140620749Y-37459523D01*
X140725611Y-37386098D01*
X140803789Y-37331357D01*
X140803792Y-37331355D01*
X140808300Y-37328198D01*
X140970198Y-37166300D01*
X141101523Y-36978749D01*
X141103846Y-36973767D01*
X141103849Y-36973762D01*
X141195961Y-36776225D01*
X141195961Y-36776224D01*
X141198284Y-36771243D01*
X141218038Y-36697523D01*
X141256119Y-36555402D01*
X141256119Y-36555400D01*
X141257543Y-36550087D01*
X141277498Y-36322000D01*
X141257543Y-36093913D01*
X141245294Y-36048198D01*
X141199707Y-35878067D01*
X141199706Y-35878065D01*
X141198284Y-35872757D01*
X141195961Y-35867775D01*
X141103849Y-35670238D01*
X141103846Y-35670233D01*
X141101523Y-35665251D01*
X141023992Y-35554525D01*
X140973357Y-35482211D01*
X140973355Y-35482208D01*
X140970198Y-35477700D01*
X140808300Y-35315802D01*
X140803792Y-35312645D01*
X140803789Y-35312643D01*
X140725611Y-35257902D01*
X140620749Y-35184477D01*
X140615767Y-35182154D01*
X140615762Y-35182151D01*
X140581543Y-35166195D01*
X140528258Y-35119278D01*
X140508797Y-35051001D01*
X140529339Y-34983041D01*
X140581543Y-34937805D01*
X140615762Y-34921849D01*
X140615767Y-34921846D01*
X140620749Y-34919523D01*
X140763749Y-34819393D01*
X140803789Y-34791357D01*
X140803792Y-34791355D01*
X140808300Y-34788198D01*
X140970198Y-34626300D01*
X141101523Y-34438749D01*
X141103846Y-34433767D01*
X141103849Y-34433762D01*
X141195961Y-34236225D01*
X141195961Y-34236224D01*
X141198284Y-34231243D01*
X141249609Y-34039699D01*
X141256119Y-34015402D01*
X141256119Y-34015400D01*
X141257543Y-34010087D01*
X141277498Y-33782000D01*
X141257543Y-33553913D01*
X141198284Y-33332757D01*
X141195961Y-33327775D01*
X141103849Y-33130238D01*
X141103846Y-33130233D01*
X141101523Y-33125251D01*
X140990668Y-32966934D01*
X140973357Y-32942211D01*
X140973355Y-32942208D01*
X140970198Y-32937700D01*
X140808300Y-32775802D01*
X140803792Y-32772645D01*
X140803789Y-32772643D01*
X140725611Y-32717902D01*
X140620749Y-32644477D01*
X140615767Y-32642154D01*
X140615762Y-32642151D01*
X140581543Y-32626195D01*
X140528258Y-32579278D01*
X140508797Y-32511001D01*
X140529339Y-32443041D01*
X140581543Y-32397805D01*
X140615762Y-32381849D01*
X140615767Y-32381846D01*
X140620749Y-32379523D01*
X140790707Y-32260517D01*
X140803789Y-32251357D01*
X140803792Y-32251355D01*
X140808300Y-32248198D01*
X140970198Y-32086300D01*
X140997263Y-32047648D01*
X141085127Y-31922165D01*
X141101523Y-31898749D01*
X141103846Y-31893767D01*
X141103849Y-31893762D01*
X141195961Y-31696225D01*
X141195961Y-31696224D01*
X141198284Y-31691243D01*
X141201911Y-31677709D01*
X141256119Y-31475402D01*
X141256119Y-31475400D01*
X141257543Y-31470087D01*
X141277498Y-31242000D01*
X141257543Y-31013913D01*
X141198284Y-30792757D01*
X141161880Y-30714688D01*
X141103849Y-30590238D01*
X141103846Y-30590233D01*
X141101523Y-30585251D01*
X140970198Y-30397700D01*
X140808300Y-30235802D01*
X140803792Y-30232645D01*
X140803789Y-30232643D01*
X140725611Y-30177902D01*
X140620749Y-30104477D01*
X140615767Y-30102154D01*
X140615762Y-30102151D01*
X140581543Y-30086195D01*
X140528258Y-30039278D01*
X140508797Y-29971001D01*
X140529339Y-29903041D01*
X140581543Y-29857805D01*
X140615762Y-29841849D01*
X140615767Y-29841846D01*
X140620749Y-29839523D01*
X140729212Y-29763576D01*
X140803789Y-29711357D01*
X140803792Y-29711355D01*
X140808300Y-29708198D01*
X140970198Y-29546300D01*
X141101523Y-29358749D01*
X141103846Y-29353767D01*
X141103849Y-29353762D01*
X141195961Y-29156225D01*
X141195961Y-29156224D01*
X141198284Y-29151243D01*
X141257543Y-28930087D01*
X141277498Y-28702000D01*
X141257543Y-28473913D01*
X141198284Y-28252757D01*
X141195961Y-28247775D01*
X141103849Y-28050238D01*
X141103846Y-28050233D01*
X141101523Y-28045251D01*
X140970198Y-27857700D01*
X140808300Y-27695802D01*
X140803792Y-27692645D01*
X140803789Y-27692643D01*
X140725611Y-27637902D01*
X140620749Y-27564477D01*
X140615767Y-27562154D01*
X140615762Y-27562151D01*
X140581543Y-27546195D01*
X140528258Y-27499278D01*
X140508797Y-27431001D01*
X140529339Y-27363041D01*
X140581543Y-27317805D01*
X140615762Y-27301849D01*
X140615767Y-27301846D01*
X140620749Y-27299523D01*
X140786151Y-27183707D01*
X140803789Y-27171357D01*
X140803792Y-27171355D01*
X140808300Y-27168198D01*
X140970198Y-27006300D01*
X141004469Y-26957357D01*
X141098366Y-26823257D01*
X141101523Y-26818749D01*
X141103846Y-26813767D01*
X141103849Y-26813762D01*
X141195961Y-26616225D01*
X141195961Y-26616224D01*
X141198284Y-26611243D01*
X141201361Y-26599762D01*
X141256119Y-26395402D01*
X141256119Y-26395400D01*
X141257543Y-26390087D01*
X141277498Y-26162000D01*
X141257543Y-25933913D01*
X141201670Y-25725393D01*
X141199707Y-25718067D01*
X141199706Y-25718065D01*
X141198284Y-25712757D01*
X141103966Y-25510489D01*
X141103849Y-25510238D01*
X141103846Y-25510233D01*
X141101523Y-25505251D01*
X140970198Y-25317700D01*
X140808300Y-25155802D01*
X140803792Y-25152645D01*
X140803789Y-25152643D01*
X140725611Y-25097902D01*
X140620749Y-25024477D01*
X140615767Y-25022154D01*
X140615762Y-25022151D01*
X140581543Y-25006195D01*
X140528258Y-24959278D01*
X140508797Y-24891001D01*
X140529339Y-24823041D01*
X140581543Y-24777805D01*
X140615762Y-24761849D01*
X140615767Y-24761846D01*
X140620749Y-24759523D01*
X140768765Y-24655881D01*
X140803789Y-24631357D01*
X140803792Y-24631355D01*
X140808300Y-24628198D01*
X140970198Y-24466300D01*
X141101523Y-24278749D01*
X141103846Y-24273767D01*
X141103849Y-24273762D01*
X141195961Y-24076225D01*
X141195961Y-24076224D01*
X141198284Y-24071243D01*
X141257543Y-23850087D01*
X141277498Y-23622000D01*
X141257543Y-23393913D01*
X141198284Y-23172757D01*
X141195961Y-23167775D01*
X141103849Y-22970238D01*
X141103846Y-22970233D01*
X141101523Y-22965251D01*
X140970198Y-22777700D01*
X140808300Y-22615802D01*
X140803792Y-22612645D01*
X140803789Y-22612643D01*
X140725611Y-22557902D01*
X140620749Y-22484477D01*
X140615767Y-22482154D01*
X140615762Y-22482151D01*
X140580951Y-22465919D01*
X140527666Y-22419002D01*
X140508205Y-22350725D01*
X140528747Y-22282765D01*
X140580951Y-22237529D01*
X140615511Y-22221414D01*
X140625007Y-22215931D01*
X140803467Y-22090972D01*
X140811875Y-22083916D01*
X140965916Y-21929875D01*
X140972972Y-21921467D01*
X141097931Y-21743007D01*
X141103414Y-21733511D01*
X141195490Y-21536053D01*
X141199236Y-21525761D01*
X141245394Y-21353497D01*
X141245058Y-21339401D01*
X141237116Y-21336000D01*
X138696033Y-21336000D01*
X138682502Y-21339973D01*
X138681273Y-21348522D01*
X138728764Y-21525761D01*
X138732510Y-21536053D01*
X138824586Y-21733511D01*
X138830069Y-21743007D01*
X138955028Y-21921467D01*
X138962084Y-21929875D01*
X139116125Y-22083916D01*
X139124533Y-22090972D01*
X139302993Y-22215931D01*
X139312489Y-22221414D01*
X139347049Y-22237529D01*
X139400334Y-22284446D01*
X139419795Y-22352723D01*
X139399253Y-22420683D01*
X139347049Y-22465919D01*
X139312238Y-22482151D01*
X139312233Y-22482154D01*
X139307251Y-22484477D01*
X139202389Y-22557902D01*
X139124211Y-22612643D01*
X139124208Y-22612645D01*
X139119700Y-22615802D01*
X138957802Y-22777700D01*
X138826477Y-22965251D01*
X138824154Y-22970233D01*
X138824151Y-22970238D01*
X138732039Y-23167775D01*
X138729716Y-23172757D01*
X138670457Y-23393913D01*
X138650502Y-23622000D01*
X138670457Y-23850087D01*
X138729716Y-24071243D01*
X138732039Y-24076224D01*
X138732039Y-24076225D01*
X138824151Y-24273762D01*
X138824154Y-24273767D01*
X138826477Y-24278749D01*
X138957802Y-24466300D01*
X139119700Y-24628198D01*
X139124208Y-24631355D01*
X139124211Y-24631357D01*
X139159235Y-24655881D01*
X139307251Y-24759523D01*
X139312233Y-24761846D01*
X139312238Y-24761849D01*
X139346457Y-24777805D01*
X139399742Y-24824722D01*
X139419203Y-24892999D01*
X139398661Y-24960959D01*
X139346457Y-25006195D01*
X139312238Y-25022151D01*
X139312233Y-25022154D01*
X139307251Y-25024477D01*
X139202389Y-25097902D01*
X139124211Y-25152643D01*
X139124208Y-25152645D01*
X139119700Y-25155802D01*
X138957802Y-25317700D01*
X138826477Y-25505251D01*
X138824154Y-25510233D01*
X138824151Y-25510238D01*
X138824034Y-25510489D01*
X138729716Y-25712757D01*
X138728294Y-25718065D01*
X138728293Y-25718067D01*
X138726330Y-25725393D01*
X138670457Y-25933913D01*
X138650502Y-26162000D01*
X138670457Y-26390087D01*
X138671881Y-26395400D01*
X138671881Y-26395402D01*
X138726640Y-26599762D01*
X138729716Y-26611243D01*
X138732039Y-26616224D01*
X138732039Y-26616225D01*
X138824151Y-26813762D01*
X138824154Y-26813767D01*
X138826477Y-26818749D01*
X138829634Y-26823257D01*
X138923532Y-26957357D01*
X138957802Y-27006300D01*
X139119700Y-27168198D01*
X139124208Y-27171355D01*
X139124211Y-27171357D01*
X139141849Y-27183707D01*
X139307251Y-27299523D01*
X139312233Y-27301846D01*
X139312238Y-27301849D01*
X139346457Y-27317805D01*
X139399742Y-27364722D01*
X139419203Y-27432999D01*
X139398661Y-27500959D01*
X139346457Y-27546195D01*
X139312238Y-27562151D01*
X139312233Y-27562154D01*
X139307251Y-27564477D01*
X139202389Y-27637902D01*
X139124211Y-27692643D01*
X139124208Y-27692645D01*
X139119700Y-27695802D01*
X138957802Y-27857700D01*
X138826477Y-28045251D01*
X138824154Y-28050233D01*
X138824151Y-28050238D01*
X138732039Y-28247775D01*
X138729716Y-28252757D01*
X138670457Y-28473913D01*
X138650502Y-28702000D01*
X138670457Y-28930087D01*
X138729716Y-29151243D01*
X138732039Y-29156224D01*
X138732039Y-29156225D01*
X138824151Y-29353762D01*
X138824154Y-29353767D01*
X138826477Y-29358749D01*
X138957802Y-29546300D01*
X139119700Y-29708198D01*
X139124208Y-29711355D01*
X139124211Y-29711357D01*
X139198788Y-29763576D01*
X139307251Y-29839523D01*
X139312233Y-29841846D01*
X139312238Y-29841849D01*
X139346457Y-29857805D01*
X139399742Y-29904722D01*
X139419203Y-29972999D01*
X139398661Y-30040959D01*
X139346457Y-30086195D01*
X139312238Y-30102151D01*
X139312233Y-30102154D01*
X139307251Y-30104477D01*
X139202389Y-30177902D01*
X139124211Y-30232643D01*
X139124208Y-30232645D01*
X139119700Y-30235802D01*
X138957802Y-30397700D01*
X138826477Y-30585251D01*
X138824154Y-30590233D01*
X138824151Y-30590238D01*
X138766120Y-30714688D01*
X138729716Y-30792757D01*
X138670457Y-31013913D01*
X138650502Y-31242000D01*
X138670457Y-31470087D01*
X138671881Y-31475400D01*
X138671881Y-31475402D01*
X138726090Y-31677709D01*
X138729716Y-31691243D01*
X138732039Y-31696224D01*
X138732039Y-31696225D01*
X138824151Y-31893762D01*
X138824154Y-31893767D01*
X138826477Y-31898749D01*
X138842873Y-31922165D01*
X138930738Y-32047648D01*
X138957802Y-32086300D01*
X139119700Y-32248198D01*
X139124208Y-32251355D01*
X139124211Y-32251357D01*
X139137293Y-32260517D01*
X139307251Y-32379523D01*
X139312233Y-32381846D01*
X139312238Y-32381849D01*
X139346457Y-32397805D01*
X139399742Y-32444722D01*
X139419203Y-32512999D01*
X139398661Y-32580959D01*
X139346457Y-32626195D01*
X139312238Y-32642151D01*
X139312233Y-32642154D01*
X139307251Y-32644477D01*
X139202389Y-32717902D01*
X139124211Y-32772643D01*
X139124208Y-32772645D01*
X139119700Y-32775802D01*
X138957802Y-32937700D01*
X138954645Y-32942208D01*
X138954643Y-32942211D01*
X138937332Y-32966934D01*
X138826477Y-33125251D01*
X138824154Y-33130233D01*
X138824151Y-33130238D01*
X138732039Y-33327775D01*
X138729716Y-33332757D01*
X138670457Y-33553913D01*
X138650502Y-33782000D01*
X138670457Y-34010087D01*
X138671881Y-34015400D01*
X138671881Y-34015402D01*
X138678392Y-34039699D01*
X138729716Y-34231243D01*
X138732039Y-34236224D01*
X138732039Y-34236225D01*
X138824151Y-34433762D01*
X138824154Y-34433767D01*
X138826477Y-34438749D01*
X138957802Y-34626300D01*
X139119700Y-34788198D01*
X139124208Y-34791355D01*
X139124211Y-34791357D01*
X139164251Y-34819393D01*
X139307251Y-34919523D01*
X139312233Y-34921846D01*
X139312238Y-34921849D01*
X139346457Y-34937805D01*
X139399742Y-34984722D01*
X139419203Y-35052999D01*
X139398661Y-35120959D01*
X139346457Y-35166195D01*
X139312238Y-35182151D01*
X139312233Y-35182154D01*
X139307251Y-35184477D01*
X139202389Y-35257902D01*
X139124211Y-35312643D01*
X139124208Y-35312645D01*
X139119700Y-35315802D01*
X138957802Y-35477700D01*
X138954645Y-35482208D01*
X138954643Y-35482211D01*
X138904008Y-35554525D01*
X138826477Y-35665251D01*
X138824154Y-35670233D01*
X138824151Y-35670238D01*
X138732039Y-35867775D01*
X138729716Y-35872757D01*
X138728294Y-35878065D01*
X138728293Y-35878067D01*
X138682706Y-36048198D01*
X138670457Y-36093913D01*
X138650502Y-36322000D01*
X138670457Y-36550087D01*
X138671881Y-36555400D01*
X138671881Y-36555402D01*
X138709963Y-36697523D01*
X138729716Y-36771243D01*
X138732039Y-36776224D01*
X138732039Y-36776225D01*
X138824151Y-36973762D01*
X138824154Y-36973767D01*
X138826477Y-36978749D01*
X138957802Y-37166300D01*
X139119700Y-37328198D01*
X139124208Y-37331355D01*
X139124211Y-37331357D01*
X139202389Y-37386098D01*
X139307251Y-37459523D01*
X139312233Y-37461846D01*
X139312238Y-37461849D01*
X139346457Y-37477805D01*
X139399742Y-37524722D01*
X139419203Y-37592999D01*
X139398661Y-37660959D01*
X139346457Y-37706195D01*
X139312238Y-37722151D01*
X139312233Y-37722154D01*
X139307251Y-37724477D01*
X139245617Y-37767634D01*
X139124211Y-37852643D01*
X139124208Y-37852645D01*
X139119700Y-37855802D01*
X138957802Y-38017700D01*
X138954645Y-38022208D01*
X138954643Y-38022211D01*
X138926635Y-38062211D01*
X138826477Y-38205251D01*
X138824154Y-38210233D01*
X138824151Y-38210238D01*
X138805499Y-38250238D01*
X138729716Y-38412757D01*
X138670457Y-38633913D01*
X138650502Y-38862000D01*
X138670457Y-39090087D01*
X138729716Y-39311243D01*
X138732039Y-39316224D01*
X138732039Y-39316225D01*
X138824151Y-39513762D01*
X138824154Y-39513767D01*
X138826477Y-39518749D01*
X138957802Y-39706300D01*
X139119700Y-39868198D01*
X139124208Y-39871355D01*
X139124211Y-39871357D01*
X139171260Y-39904301D01*
X139307251Y-39999523D01*
X139312233Y-40001846D01*
X139312238Y-40001849D01*
X139346457Y-40017805D01*
X139399742Y-40064722D01*
X139419203Y-40132999D01*
X139398661Y-40200959D01*
X139346457Y-40246195D01*
X139312238Y-40262151D01*
X139312233Y-40262154D01*
X139307251Y-40264477D01*
X139202389Y-40337902D01*
X139124211Y-40392643D01*
X139124208Y-40392645D01*
X139119700Y-40395802D01*
X138957802Y-40557700D01*
X138826477Y-40745251D01*
X138824154Y-40750233D01*
X138824151Y-40750238D01*
X138732039Y-40947775D01*
X138729716Y-40952757D01*
X138670457Y-41173913D01*
X138650502Y-41402000D01*
X138670457Y-41630087D01*
X138671881Y-41635400D01*
X138671881Y-41635402D01*
X138718791Y-41810469D01*
X138729716Y-41851243D01*
X138732039Y-41856224D01*
X138732039Y-41856225D01*
X138824151Y-42053762D01*
X138824154Y-42053767D01*
X138826477Y-42058749D01*
X138867407Y-42117203D01*
X138930135Y-42206787D01*
X138957802Y-42246300D01*
X139119700Y-42408198D01*
X139124208Y-42411355D01*
X139124211Y-42411357D01*
X139164251Y-42439393D01*
X139307251Y-42539523D01*
X139312233Y-42541846D01*
X139312238Y-42541849D01*
X139346457Y-42557805D01*
X139399742Y-42604722D01*
X139419203Y-42672999D01*
X139398661Y-42740959D01*
X139346457Y-42786195D01*
X139312238Y-42802151D01*
X139312233Y-42802154D01*
X139307251Y-42804477D01*
X139202389Y-42877902D01*
X139124211Y-42932643D01*
X139124208Y-42932645D01*
X139119700Y-42935802D01*
X138957802Y-43097700D01*
X138954645Y-43102208D01*
X138954643Y-43102211D01*
X138944139Y-43117213D01*
X138826477Y-43285251D01*
X138824154Y-43290233D01*
X138824151Y-43290238D01*
X138750691Y-43447775D01*
X138729716Y-43492757D01*
X138728294Y-43498065D01*
X138728293Y-43498067D01*
X138682706Y-43668198D01*
X138670457Y-43713913D01*
X138650502Y-43942000D01*
X138670457Y-44170087D01*
X138729716Y-44391243D01*
X138732039Y-44396224D01*
X138732039Y-44396225D01*
X138824151Y-44593762D01*
X138824154Y-44593767D01*
X138826477Y-44598749D01*
X138829634Y-44603257D01*
X138929794Y-44746300D01*
X138957802Y-44786300D01*
X139119700Y-44948198D01*
X139124208Y-44951355D01*
X139124211Y-44951357D01*
X139202389Y-45006098D01*
X139307251Y-45079523D01*
X139312233Y-45081846D01*
X139312238Y-45081849D01*
X139346457Y-45097805D01*
X139399742Y-45144722D01*
X139419203Y-45212999D01*
X139398661Y-45280959D01*
X139346457Y-45326195D01*
X139312238Y-45342151D01*
X139312233Y-45342154D01*
X139307251Y-45344477D01*
X139202389Y-45417902D01*
X139124211Y-45472643D01*
X139124208Y-45472645D01*
X139119700Y-45475802D01*
X138957802Y-45637700D01*
X138954645Y-45642208D01*
X138954643Y-45642211D01*
X138916995Y-45695978D01*
X138826477Y-45825251D01*
X138824154Y-45830233D01*
X138824151Y-45830238D01*
X138767512Y-45951703D01*
X138729716Y-46032757D01*
X138728294Y-46038065D01*
X138728293Y-46038067D01*
X138699453Y-46145700D01*
X138670457Y-46253913D01*
X138650502Y-46482000D01*
X138670457Y-46710087D01*
X138729716Y-46931243D01*
X138732039Y-46936224D01*
X138732039Y-46936225D01*
X138824151Y-47133762D01*
X138824154Y-47133767D01*
X138826477Y-47138749D01*
X138957802Y-47326300D01*
X139119700Y-47488198D01*
X139124208Y-47491355D01*
X139124211Y-47491357D01*
X139202389Y-47546098D01*
X139307251Y-47619523D01*
X139312233Y-47621846D01*
X139312238Y-47621849D01*
X139346457Y-47637805D01*
X139399742Y-47684722D01*
X139419203Y-47752999D01*
X139398661Y-47820959D01*
X139346457Y-47866195D01*
X139312238Y-47882151D01*
X139312233Y-47882154D01*
X139307251Y-47884477D01*
X139284631Y-47900316D01*
X139124211Y-48012643D01*
X139124208Y-48012645D01*
X139119700Y-48015802D01*
X138957802Y-48177700D01*
X138826477Y-48365251D01*
X138824154Y-48370233D01*
X138824151Y-48370238D01*
X138732039Y-48567775D01*
X138729716Y-48572757D01*
X138670457Y-48793913D01*
X138650502Y-49022000D01*
X138670457Y-49250087D01*
X138671881Y-49255400D01*
X138671881Y-49255402D01*
X138709963Y-49397523D01*
X138729716Y-49471243D01*
X138732039Y-49476224D01*
X138732039Y-49476225D01*
X138824151Y-49673762D01*
X138824154Y-49673767D01*
X138826477Y-49678749D01*
X138957802Y-49866300D01*
X139119700Y-50028198D01*
X139124208Y-50031355D01*
X139124211Y-50031357D01*
X139202389Y-50086098D01*
X139307251Y-50159523D01*
X139312233Y-50161846D01*
X139312238Y-50161849D01*
X139346457Y-50177805D01*
X139399742Y-50224722D01*
X139419203Y-50292999D01*
X139398661Y-50360959D01*
X139346457Y-50406195D01*
X139312238Y-50422151D01*
X139312233Y-50422154D01*
X139307251Y-50424477D01*
X139202389Y-50497902D01*
X139124211Y-50552643D01*
X139124208Y-50552645D01*
X139119700Y-50555802D01*
X138957802Y-50717700D01*
X138826477Y-50905251D01*
X138824154Y-50910233D01*
X138824151Y-50910238D01*
X138732039Y-51107775D01*
X138729716Y-51112757D01*
X138670457Y-51333913D01*
X138650502Y-51562000D01*
X138670457Y-51790087D01*
X138729716Y-52011243D01*
X138732039Y-52016224D01*
X138732039Y-52016225D01*
X138824151Y-52213762D01*
X138824154Y-52213767D01*
X138826477Y-52218749D01*
X138957802Y-52406300D01*
X139119700Y-52568198D01*
X139124208Y-52571355D01*
X139124211Y-52571357D01*
X139202389Y-52626098D01*
X139307251Y-52699523D01*
X139312233Y-52701846D01*
X139312238Y-52701849D01*
X139346457Y-52717805D01*
X139399742Y-52764722D01*
X139419203Y-52832999D01*
X139398661Y-52900959D01*
X139346457Y-52946195D01*
X139312238Y-52962151D01*
X139312233Y-52962154D01*
X139307251Y-52964477D01*
X139202389Y-53037902D01*
X139124211Y-53092643D01*
X139124208Y-53092645D01*
X139119700Y-53095802D01*
X138957802Y-53257700D01*
X138826477Y-53445251D01*
X138824154Y-53450233D01*
X138824151Y-53450238D01*
X138732039Y-53647775D01*
X138729716Y-53652757D01*
X138728294Y-53658065D01*
X138728293Y-53658067D01*
X138675962Y-53853368D01*
X138670457Y-53873913D01*
X138650502Y-54102000D01*
X126037498Y-54102000D01*
X126017543Y-53873913D01*
X126012038Y-53853368D01*
X125959707Y-53658067D01*
X125959706Y-53658065D01*
X125958284Y-53652757D01*
X125955961Y-53647775D01*
X125863849Y-53450238D01*
X125863846Y-53450233D01*
X125861523Y-53445251D01*
X125730198Y-53257700D01*
X125568300Y-53095802D01*
X125563792Y-53092645D01*
X125563789Y-53092643D01*
X125485611Y-53037902D01*
X125380749Y-52964477D01*
X125375767Y-52962154D01*
X125375762Y-52962151D01*
X125341543Y-52946195D01*
X125288258Y-52899278D01*
X125268797Y-52831001D01*
X125289339Y-52763041D01*
X125341543Y-52717805D01*
X125375762Y-52701849D01*
X125375767Y-52701846D01*
X125380749Y-52699523D01*
X125485611Y-52626098D01*
X125563789Y-52571357D01*
X125563792Y-52571355D01*
X125568300Y-52568198D01*
X125730198Y-52406300D01*
X125861523Y-52218749D01*
X125863846Y-52213767D01*
X125863849Y-52213762D01*
X125955961Y-52016225D01*
X125955961Y-52016224D01*
X125958284Y-52011243D01*
X126017543Y-51790087D01*
X126037498Y-51562000D01*
X126017543Y-51333913D01*
X125958284Y-51112757D01*
X125955961Y-51107775D01*
X125863849Y-50910238D01*
X125863846Y-50910233D01*
X125861523Y-50905251D01*
X125730198Y-50717700D01*
X125568300Y-50555802D01*
X125563792Y-50552645D01*
X125563789Y-50552643D01*
X125485611Y-50497902D01*
X125380749Y-50424477D01*
X125375767Y-50422154D01*
X125375762Y-50422151D01*
X125341543Y-50406195D01*
X125288258Y-50359278D01*
X125268797Y-50291001D01*
X125289339Y-50223041D01*
X125341543Y-50177805D01*
X125375762Y-50161849D01*
X125375767Y-50161846D01*
X125380749Y-50159523D01*
X125485611Y-50086098D01*
X125563789Y-50031357D01*
X125563792Y-50031355D01*
X125568300Y-50028198D01*
X125730198Y-49866300D01*
X125861523Y-49678749D01*
X125863846Y-49673767D01*
X125863849Y-49673762D01*
X125955961Y-49476225D01*
X125955961Y-49476224D01*
X125958284Y-49471243D01*
X125978038Y-49397523D01*
X126016119Y-49255402D01*
X126016119Y-49255400D01*
X126017543Y-49250087D01*
X126037498Y-49022000D01*
X126017543Y-48793913D01*
X125958284Y-48572757D01*
X125955961Y-48567775D01*
X125863849Y-48370238D01*
X125863846Y-48370233D01*
X125861523Y-48365251D01*
X125730198Y-48177700D01*
X125568300Y-48015802D01*
X125563792Y-48012645D01*
X125563789Y-48012643D01*
X125403369Y-47900316D01*
X125380749Y-47884477D01*
X125375767Y-47882154D01*
X125375762Y-47882151D01*
X125341543Y-47866195D01*
X125288258Y-47819278D01*
X125268797Y-47751001D01*
X125289339Y-47683041D01*
X125341543Y-47637805D01*
X125375762Y-47621849D01*
X125375767Y-47621846D01*
X125380749Y-47619523D01*
X125485611Y-47546098D01*
X125563789Y-47491357D01*
X125563792Y-47491355D01*
X125568300Y-47488198D01*
X125730198Y-47326300D01*
X125861523Y-47138749D01*
X125863846Y-47133767D01*
X125863849Y-47133762D01*
X125955961Y-46936225D01*
X125955961Y-46936224D01*
X125958284Y-46931243D01*
X126017543Y-46710087D01*
X126037498Y-46482000D01*
X126017543Y-46253913D01*
X125988547Y-46145700D01*
X125959707Y-46038067D01*
X125959706Y-46038065D01*
X125958284Y-46032757D01*
X125920488Y-45951703D01*
X125863849Y-45830238D01*
X125863846Y-45830233D01*
X125861523Y-45825251D01*
X125771005Y-45695978D01*
X125733357Y-45642211D01*
X125733355Y-45642208D01*
X125730198Y-45637700D01*
X125568300Y-45475802D01*
X125563792Y-45472645D01*
X125563789Y-45472643D01*
X125485611Y-45417902D01*
X125380749Y-45344477D01*
X125375767Y-45342154D01*
X125375762Y-45342151D01*
X125341543Y-45326195D01*
X125288258Y-45279278D01*
X125268797Y-45211001D01*
X125289339Y-45143041D01*
X125341543Y-45097805D01*
X125375762Y-45081849D01*
X125375767Y-45081846D01*
X125380749Y-45079523D01*
X125485611Y-45006098D01*
X125563789Y-44951357D01*
X125563792Y-44951355D01*
X125568300Y-44948198D01*
X125730198Y-44786300D01*
X125758207Y-44746300D01*
X125858366Y-44603257D01*
X125861523Y-44598749D01*
X125863846Y-44593767D01*
X125863849Y-44593762D01*
X125955961Y-44396225D01*
X125955961Y-44396224D01*
X125958284Y-44391243D01*
X126017543Y-44170087D01*
X126037498Y-43942000D01*
X126017543Y-43713913D01*
X126005294Y-43668198D01*
X125959707Y-43498067D01*
X125959706Y-43498065D01*
X125958284Y-43492757D01*
X125937309Y-43447775D01*
X125863849Y-43290238D01*
X125863846Y-43290233D01*
X125861523Y-43285251D01*
X125743861Y-43117213D01*
X125733357Y-43102211D01*
X125733355Y-43102208D01*
X125730198Y-43097700D01*
X125568300Y-42935802D01*
X125563792Y-42932645D01*
X125563789Y-42932643D01*
X125485611Y-42877902D01*
X125380749Y-42804477D01*
X125375767Y-42802154D01*
X125375762Y-42802151D01*
X125341543Y-42786195D01*
X125288258Y-42739278D01*
X125268797Y-42671001D01*
X125289339Y-42603041D01*
X125341543Y-42557805D01*
X125375762Y-42541849D01*
X125375767Y-42541846D01*
X125380749Y-42539523D01*
X125523749Y-42439393D01*
X125563789Y-42411357D01*
X125563792Y-42411355D01*
X125568300Y-42408198D01*
X125730198Y-42246300D01*
X125757866Y-42206787D01*
X125820593Y-42117203D01*
X125861523Y-42058749D01*
X125863846Y-42053767D01*
X125863849Y-42053762D01*
X125955961Y-41856225D01*
X125955961Y-41856224D01*
X125958284Y-41851243D01*
X125969210Y-41810469D01*
X126016119Y-41635402D01*
X126016119Y-41635400D01*
X126017543Y-41630087D01*
X126037498Y-41402000D01*
X126017543Y-41173913D01*
X125958284Y-40952757D01*
X125955961Y-40947775D01*
X125863849Y-40750238D01*
X125863846Y-40750233D01*
X125861523Y-40745251D01*
X125730198Y-40557700D01*
X125568300Y-40395802D01*
X125563792Y-40392645D01*
X125563789Y-40392643D01*
X125485611Y-40337902D01*
X125380749Y-40264477D01*
X125375767Y-40262154D01*
X125375762Y-40262151D01*
X125341543Y-40246195D01*
X125288258Y-40199278D01*
X125268797Y-40131001D01*
X125289339Y-40063041D01*
X125341543Y-40017805D01*
X125375762Y-40001849D01*
X125375767Y-40001846D01*
X125380749Y-39999523D01*
X125516740Y-39904301D01*
X125563789Y-39871357D01*
X125563792Y-39871355D01*
X125568300Y-39868198D01*
X125730198Y-39706300D01*
X125861523Y-39518749D01*
X125863846Y-39513767D01*
X125863849Y-39513762D01*
X125955961Y-39316225D01*
X125955961Y-39316224D01*
X125958284Y-39311243D01*
X126017543Y-39090087D01*
X126037498Y-38862000D01*
X126017543Y-38633913D01*
X125958284Y-38412757D01*
X125882501Y-38250238D01*
X125863849Y-38210238D01*
X125863846Y-38210233D01*
X125861523Y-38205251D01*
X125761365Y-38062211D01*
X125733357Y-38022211D01*
X125733355Y-38022208D01*
X125730198Y-38017700D01*
X125568300Y-37855802D01*
X125563792Y-37852645D01*
X125563789Y-37852643D01*
X125442383Y-37767634D01*
X125380749Y-37724477D01*
X125375767Y-37722154D01*
X125375762Y-37722151D01*
X125341543Y-37706195D01*
X125288258Y-37659278D01*
X125268797Y-37591001D01*
X125289339Y-37523041D01*
X125341543Y-37477805D01*
X125375762Y-37461849D01*
X125375767Y-37461846D01*
X125380749Y-37459523D01*
X125485611Y-37386098D01*
X125563789Y-37331357D01*
X125563792Y-37331355D01*
X125568300Y-37328198D01*
X125730198Y-37166300D01*
X125861523Y-36978749D01*
X125863846Y-36973767D01*
X125863849Y-36973762D01*
X125955961Y-36776225D01*
X125955961Y-36776224D01*
X125958284Y-36771243D01*
X125978038Y-36697523D01*
X126016119Y-36555402D01*
X126016119Y-36555400D01*
X126017543Y-36550087D01*
X126037498Y-36322000D01*
X126017543Y-36093913D01*
X126005294Y-36048198D01*
X125959707Y-35878067D01*
X125959706Y-35878065D01*
X125958284Y-35872757D01*
X125955961Y-35867775D01*
X125863849Y-35670238D01*
X125863846Y-35670233D01*
X125861523Y-35665251D01*
X125783992Y-35554525D01*
X125733357Y-35482211D01*
X125733355Y-35482208D01*
X125730198Y-35477700D01*
X125568300Y-35315802D01*
X125563792Y-35312645D01*
X125563789Y-35312643D01*
X125485611Y-35257902D01*
X125380749Y-35184477D01*
X125375767Y-35182154D01*
X125375762Y-35182151D01*
X125341543Y-35166195D01*
X125288258Y-35119278D01*
X125268797Y-35051001D01*
X125289339Y-34983041D01*
X125341543Y-34937805D01*
X125375762Y-34921849D01*
X125375767Y-34921846D01*
X125380749Y-34919523D01*
X125523749Y-34819393D01*
X125563789Y-34791357D01*
X125563792Y-34791355D01*
X125568300Y-34788198D01*
X125730198Y-34626300D01*
X125861523Y-34438749D01*
X125863846Y-34433767D01*
X125863849Y-34433762D01*
X125955961Y-34236225D01*
X125955961Y-34236224D01*
X125958284Y-34231243D01*
X126009609Y-34039699D01*
X126016119Y-34015402D01*
X126016119Y-34015400D01*
X126017543Y-34010087D01*
X126037498Y-33782000D01*
X126017543Y-33553913D01*
X125958284Y-33332757D01*
X125955961Y-33327775D01*
X125863849Y-33130238D01*
X125863846Y-33130233D01*
X125861523Y-33125251D01*
X125750668Y-32966934D01*
X125733357Y-32942211D01*
X125733355Y-32942208D01*
X125730198Y-32937700D01*
X125568300Y-32775802D01*
X125563792Y-32772645D01*
X125563789Y-32772643D01*
X125485611Y-32717902D01*
X125380749Y-32644477D01*
X125375767Y-32642154D01*
X125375762Y-32642151D01*
X125341543Y-32626195D01*
X125288258Y-32579278D01*
X125268797Y-32511001D01*
X125289339Y-32443041D01*
X125341543Y-32397805D01*
X125375762Y-32381849D01*
X125375767Y-32381846D01*
X125380749Y-32379523D01*
X125550707Y-32260517D01*
X125563789Y-32251357D01*
X125563792Y-32251355D01*
X125568300Y-32248198D01*
X125730198Y-32086300D01*
X125757263Y-32047648D01*
X125845127Y-31922165D01*
X125861523Y-31898749D01*
X125863846Y-31893767D01*
X125863849Y-31893762D01*
X125955961Y-31696225D01*
X125955961Y-31696224D01*
X125958284Y-31691243D01*
X125961911Y-31677709D01*
X126016119Y-31475402D01*
X126016119Y-31475400D01*
X126017543Y-31470087D01*
X126037498Y-31242000D01*
X126017543Y-31013913D01*
X125958284Y-30792757D01*
X125921880Y-30714688D01*
X125863849Y-30590238D01*
X125863846Y-30590233D01*
X125861523Y-30585251D01*
X125730198Y-30397700D01*
X125568300Y-30235802D01*
X125563792Y-30232645D01*
X125563789Y-30232643D01*
X125485611Y-30177902D01*
X125380749Y-30104477D01*
X125375767Y-30102154D01*
X125375762Y-30102151D01*
X125341543Y-30086195D01*
X125288258Y-30039278D01*
X125268797Y-29971001D01*
X125289339Y-29903041D01*
X125341543Y-29857805D01*
X125375762Y-29841849D01*
X125375767Y-29841846D01*
X125380749Y-29839523D01*
X125489212Y-29763576D01*
X125563789Y-29711357D01*
X125563792Y-29711355D01*
X125568300Y-29708198D01*
X125730198Y-29546300D01*
X125861523Y-29358749D01*
X125863846Y-29353767D01*
X125863849Y-29353762D01*
X125955961Y-29156225D01*
X125955961Y-29156224D01*
X125958284Y-29151243D01*
X126017543Y-28930087D01*
X126037498Y-28702000D01*
X126017543Y-28473913D01*
X125958284Y-28252757D01*
X125955961Y-28247775D01*
X125863849Y-28050238D01*
X125863846Y-28050233D01*
X125861523Y-28045251D01*
X125730198Y-27857700D01*
X125568300Y-27695802D01*
X125563792Y-27692645D01*
X125563789Y-27692643D01*
X125485611Y-27637902D01*
X125380749Y-27564477D01*
X125375767Y-27562154D01*
X125375762Y-27562151D01*
X125340951Y-27545919D01*
X125287666Y-27499002D01*
X125268205Y-27430725D01*
X125288747Y-27362765D01*
X125340951Y-27317529D01*
X125375511Y-27301414D01*
X125385007Y-27295931D01*
X125563467Y-27170972D01*
X125571875Y-27163916D01*
X125725916Y-27009875D01*
X125732972Y-27001467D01*
X125857931Y-26823007D01*
X125863414Y-26813511D01*
X125955490Y-26616053D01*
X125959236Y-26605761D01*
X126005394Y-26433497D01*
X126005058Y-26419401D01*
X125997116Y-26416000D01*
X123456033Y-26416000D01*
X123442502Y-26419973D01*
X123441273Y-26428522D01*
X123488764Y-26605761D01*
X123492510Y-26616053D01*
X123584586Y-26813511D01*
X123590069Y-26823007D01*
X123715028Y-27001467D01*
X123722084Y-27009875D01*
X123876125Y-27163916D01*
X123884533Y-27170972D01*
X124062993Y-27295931D01*
X124072489Y-27301414D01*
X124107049Y-27317529D01*
X124160334Y-27364446D01*
X124179795Y-27432723D01*
X124159253Y-27500683D01*
X124107049Y-27545919D01*
X124072238Y-27562151D01*
X124072233Y-27562154D01*
X124067251Y-27564477D01*
X123962389Y-27637902D01*
X123884211Y-27692643D01*
X123884208Y-27692645D01*
X123879700Y-27695802D01*
X123717802Y-27857700D01*
X123586477Y-28045251D01*
X123584154Y-28050233D01*
X123584151Y-28050238D01*
X123492039Y-28247775D01*
X123489716Y-28252757D01*
X123430457Y-28473913D01*
X123410502Y-28702000D01*
X123430457Y-28930087D01*
X123489716Y-29151243D01*
X123492039Y-29156224D01*
X123492039Y-29156225D01*
X123584151Y-29353762D01*
X123584154Y-29353767D01*
X123586477Y-29358749D01*
X123717802Y-29546300D01*
X123879700Y-29708198D01*
X123884208Y-29711355D01*
X123884211Y-29711357D01*
X123958788Y-29763576D01*
X124067251Y-29839523D01*
X124072233Y-29841846D01*
X124072238Y-29841849D01*
X124106457Y-29857805D01*
X124159742Y-29904722D01*
X124179203Y-29972999D01*
X124158661Y-30040959D01*
X124106457Y-30086195D01*
X124072238Y-30102151D01*
X124072233Y-30102154D01*
X124067251Y-30104477D01*
X123962389Y-30177902D01*
X123884211Y-30232643D01*
X123884208Y-30232645D01*
X123879700Y-30235802D01*
X123717802Y-30397700D01*
X123586477Y-30585251D01*
X123584154Y-30590233D01*
X123584151Y-30590238D01*
X123526120Y-30714688D01*
X123489716Y-30792757D01*
X123430457Y-31013913D01*
X123410502Y-31242000D01*
X123430457Y-31470087D01*
X123431881Y-31475400D01*
X123431881Y-31475402D01*
X123486090Y-31677709D01*
X123489716Y-31691243D01*
X123492039Y-31696224D01*
X123492039Y-31696225D01*
X123584151Y-31893762D01*
X123584154Y-31893767D01*
X123586477Y-31898749D01*
X123602873Y-31922165D01*
X123690738Y-32047648D01*
X123717802Y-32086300D01*
X123879700Y-32248198D01*
X123884208Y-32251355D01*
X123884211Y-32251357D01*
X123897293Y-32260517D01*
X124067251Y-32379523D01*
X124072233Y-32381846D01*
X124072238Y-32381849D01*
X124106457Y-32397805D01*
X124159742Y-32444722D01*
X124179203Y-32512999D01*
X124158661Y-32580959D01*
X124106457Y-32626195D01*
X124072238Y-32642151D01*
X124072233Y-32642154D01*
X124067251Y-32644477D01*
X123962389Y-32717902D01*
X123884211Y-32772643D01*
X123884208Y-32772645D01*
X123879700Y-32775802D01*
X123717802Y-32937700D01*
X123714645Y-32942208D01*
X123714643Y-32942211D01*
X123697332Y-32966934D01*
X123586477Y-33125251D01*
X123584154Y-33130233D01*
X123584151Y-33130238D01*
X123492039Y-33327775D01*
X123489716Y-33332757D01*
X123430457Y-33553913D01*
X123410502Y-33782000D01*
X123430457Y-34010087D01*
X123431881Y-34015400D01*
X123431881Y-34015402D01*
X123438392Y-34039699D01*
X123489716Y-34231243D01*
X123492039Y-34236224D01*
X123492039Y-34236225D01*
X123584151Y-34433762D01*
X123584154Y-34433767D01*
X123586477Y-34438749D01*
X123717802Y-34626300D01*
X123879700Y-34788198D01*
X123884208Y-34791355D01*
X123884211Y-34791357D01*
X123924251Y-34819393D01*
X124067251Y-34919523D01*
X124072233Y-34921846D01*
X124072238Y-34921849D01*
X124106457Y-34937805D01*
X124159742Y-34984722D01*
X124179203Y-35052999D01*
X124158661Y-35120959D01*
X124106457Y-35166195D01*
X124072238Y-35182151D01*
X124072233Y-35182154D01*
X124067251Y-35184477D01*
X123962389Y-35257902D01*
X123884211Y-35312643D01*
X123884208Y-35312645D01*
X123879700Y-35315802D01*
X123717802Y-35477700D01*
X123714645Y-35482208D01*
X123714643Y-35482211D01*
X123664008Y-35554525D01*
X123586477Y-35665251D01*
X123584154Y-35670233D01*
X123584151Y-35670238D01*
X123492039Y-35867775D01*
X123489716Y-35872757D01*
X123488294Y-35878065D01*
X123488293Y-35878067D01*
X123442706Y-36048198D01*
X123430457Y-36093913D01*
X123410502Y-36322000D01*
X123430457Y-36550087D01*
X123431881Y-36555400D01*
X123431881Y-36555402D01*
X123469963Y-36697523D01*
X123489716Y-36771243D01*
X123492039Y-36776224D01*
X123492039Y-36776225D01*
X123584151Y-36973762D01*
X123584154Y-36973767D01*
X123586477Y-36978749D01*
X123717802Y-37166300D01*
X123879700Y-37328198D01*
X123884208Y-37331355D01*
X123884211Y-37331357D01*
X123962389Y-37386098D01*
X124067251Y-37459523D01*
X124072233Y-37461846D01*
X124072238Y-37461849D01*
X124106457Y-37477805D01*
X124159742Y-37524722D01*
X124179203Y-37592999D01*
X124158661Y-37660959D01*
X124106457Y-37706195D01*
X124072238Y-37722151D01*
X124072233Y-37722154D01*
X124067251Y-37724477D01*
X124005617Y-37767634D01*
X123884211Y-37852643D01*
X123884208Y-37852645D01*
X123879700Y-37855802D01*
X123717802Y-38017700D01*
X123714645Y-38022208D01*
X123714643Y-38022211D01*
X123686635Y-38062211D01*
X123586477Y-38205251D01*
X123584154Y-38210233D01*
X123584151Y-38210238D01*
X123565499Y-38250238D01*
X123489716Y-38412757D01*
X123430457Y-38633913D01*
X123410502Y-38862000D01*
X123430457Y-39090087D01*
X123489716Y-39311243D01*
X123492039Y-39316224D01*
X123492039Y-39316225D01*
X123584151Y-39513762D01*
X123584154Y-39513767D01*
X123586477Y-39518749D01*
X123717802Y-39706300D01*
X123879700Y-39868198D01*
X123884208Y-39871355D01*
X123884211Y-39871357D01*
X123931260Y-39904301D01*
X124067251Y-39999523D01*
X124072233Y-40001846D01*
X124072238Y-40001849D01*
X124106457Y-40017805D01*
X124159742Y-40064722D01*
X124179203Y-40132999D01*
X124158661Y-40200959D01*
X124106457Y-40246195D01*
X124072238Y-40262151D01*
X124072233Y-40262154D01*
X124067251Y-40264477D01*
X123962389Y-40337902D01*
X123884211Y-40392643D01*
X123884208Y-40392645D01*
X123879700Y-40395802D01*
X123717802Y-40557700D01*
X123586477Y-40745251D01*
X123584154Y-40750233D01*
X123584151Y-40750238D01*
X123492039Y-40947775D01*
X123489716Y-40952757D01*
X123430457Y-41173913D01*
X123410502Y-41402000D01*
X123430457Y-41630087D01*
X123431881Y-41635400D01*
X123431881Y-41635402D01*
X123478791Y-41810469D01*
X123489716Y-41851243D01*
X123492039Y-41856224D01*
X123492039Y-41856225D01*
X123584151Y-42053762D01*
X123584154Y-42053767D01*
X123586477Y-42058749D01*
X123627407Y-42117203D01*
X123690135Y-42206787D01*
X123717802Y-42246300D01*
X123879700Y-42408198D01*
X123884208Y-42411355D01*
X123884211Y-42411357D01*
X123924251Y-42439393D01*
X124067251Y-42539523D01*
X124072233Y-42541846D01*
X124072238Y-42541849D01*
X124106457Y-42557805D01*
X124159742Y-42604722D01*
X124179203Y-42672999D01*
X124158661Y-42740959D01*
X124106457Y-42786195D01*
X124072238Y-42802151D01*
X124072233Y-42802154D01*
X124067251Y-42804477D01*
X123962389Y-42877902D01*
X123884211Y-42932643D01*
X123884208Y-42932645D01*
X123879700Y-42935802D01*
X123717802Y-43097700D01*
X123714645Y-43102208D01*
X123714643Y-43102211D01*
X123704139Y-43117213D01*
X123586477Y-43285251D01*
X123584154Y-43290233D01*
X123584151Y-43290238D01*
X123510691Y-43447775D01*
X123489716Y-43492757D01*
X123488294Y-43498065D01*
X123488293Y-43498067D01*
X123442706Y-43668198D01*
X123430457Y-43713913D01*
X123410502Y-43942000D01*
X123430457Y-44170087D01*
X123489716Y-44391243D01*
X123492039Y-44396224D01*
X123492039Y-44396225D01*
X123584151Y-44593762D01*
X123584154Y-44593767D01*
X123586477Y-44598749D01*
X123589634Y-44603257D01*
X123689794Y-44746300D01*
X123717802Y-44786300D01*
X123879700Y-44948198D01*
X123884208Y-44951355D01*
X123884211Y-44951357D01*
X123962389Y-45006098D01*
X124067251Y-45079523D01*
X124072233Y-45081846D01*
X124072238Y-45081849D01*
X124106457Y-45097805D01*
X124159742Y-45144722D01*
X124179203Y-45212999D01*
X124158661Y-45280959D01*
X124106457Y-45326195D01*
X124072238Y-45342151D01*
X124072233Y-45342154D01*
X124067251Y-45344477D01*
X123962389Y-45417902D01*
X123884211Y-45472643D01*
X123884208Y-45472645D01*
X123879700Y-45475802D01*
X123717802Y-45637700D01*
X123714645Y-45642208D01*
X123714643Y-45642211D01*
X123676995Y-45695978D01*
X123586477Y-45825251D01*
X123584154Y-45830233D01*
X123584151Y-45830238D01*
X123527512Y-45951703D01*
X123489716Y-46032757D01*
X123488294Y-46038065D01*
X123488293Y-46038067D01*
X123459453Y-46145700D01*
X123430457Y-46253913D01*
X123410502Y-46482000D01*
X123430457Y-46710087D01*
X123489716Y-46931243D01*
X123492039Y-46936224D01*
X123492039Y-46936225D01*
X123584151Y-47133762D01*
X123584154Y-47133767D01*
X123586477Y-47138749D01*
X123717802Y-47326300D01*
X123879700Y-47488198D01*
X123884208Y-47491355D01*
X123884211Y-47491357D01*
X123962389Y-47546098D01*
X124067251Y-47619523D01*
X124072233Y-47621846D01*
X124072238Y-47621849D01*
X124106457Y-47637805D01*
X124159742Y-47684722D01*
X124179203Y-47752999D01*
X124158661Y-47820959D01*
X124106457Y-47866195D01*
X124072238Y-47882151D01*
X124072233Y-47882154D01*
X124067251Y-47884477D01*
X124044631Y-47900316D01*
X123884211Y-48012643D01*
X123884208Y-48012645D01*
X123879700Y-48015802D01*
X123717802Y-48177700D01*
X123586477Y-48365251D01*
X123584154Y-48370233D01*
X123584151Y-48370238D01*
X123492039Y-48567775D01*
X123489716Y-48572757D01*
X123430457Y-48793913D01*
X123410502Y-49022000D01*
X123430457Y-49250087D01*
X123431881Y-49255400D01*
X123431881Y-49255402D01*
X123469963Y-49397523D01*
X123489716Y-49471243D01*
X123492039Y-49476224D01*
X123492039Y-49476225D01*
X123584151Y-49673762D01*
X123584154Y-49673767D01*
X123586477Y-49678749D01*
X123717802Y-49866300D01*
X123879700Y-50028198D01*
X123884208Y-50031355D01*
X123884211Y-50031357D01*
X123962389Y-50086098D01*
X124067251Y-50159523D01*
X124072233Y-50161846D01*
X124072238Y-50161849D01*
X124106457Y-50177805D01*
X124159742Y-50224722D01*
X124179203Y-50292999D01*
X124158661Y-50360959D01*
X124106457Y-50406195D01*
X124072238Y-50422151D01*
X124072233Y-50422154D01*
X124067251Y-50424477D01*
X123962389Y-50497902D01*
X123884211Y-50552643D01*
X123884208Y-50552645D01*
X123879700Y-50555802D01*
X123717802Y-50717700D01*
X123586477Y-50905251D01*
X123584154Y-50910233D01*
X123584151Y-50910238D01*
X123492039Y-51107775D01*
X123489716Y-51112757D01*
X123430457Y-51333913D01*
X123410502Y-51562000D01*
X123430457Y-51790087D01*
X123489716Y-52011243D01*
X123492039Y-52016224D01*
X123492039Y-52016225D01*
X123584151Y-52213762D01*
X123584154Y-52213767D01*
X123586477Y-52218749D01*
X123717802Y-52406300D01*
X123879700Y-52568198D01*
X123884208Y-52571355D01*
X123884211Y-52571357D01*
X123962389Y-52626098D01*
X124067251Y-52699523D01*
X124072233Y-52701846D01*
X124072238Y-52701849D01*
X124106457Y-52717805D01*
X124159742Y-52764722D01*
X124179203Y-52832999D01*
X124158661Y-52900959D01*
X124106457Y-52946195D01*
X124072238Y-52962151D01*
X124072233Y-52962154D01*
X124067251Y-52964477D01*
X123962389Y-53037902D01*
X123884211Y-53092643D01*
X123884208Y-53092645D01*
X123879700Y-53095802D01*
X123717802Y-53257700D01*
X123586477Y-53445251D01*
X123584154Y-53450233D01*
X123584151Y-53450238D01*
X123492039Y-53647775D01*
X123489716Y-53652757D01*
X123488294Y-53658065D01*
X123488293Y-53658067D01*
X123435962Y-53853368D01*
X123430457Y-53873913D01*
X123410502Y-54102000D01*
X118578136Y-54102000D01*
X118545407Y-54079295D01*
X118526299Y-54066039D01*
X118526296Y-54066037D01*
X118522457Y-54063374D01*
X118518264Y-54061306D01*
X118285564Y-53946551D01*
X118285561Y-53946550D01*
X118281376Y-53944486D01*
X118233745Y-53929239D01*
X118065504Y-53875385D01*
X118025370Y-53862538D01*
X118020763Y-53861788D01*
X118020760Y-53861787D01*
X117807337Y-53827029D01*
X117760063Y-53819330D01*
X117629719Y-53817624D01*
X117495961Y-53815873D01*
X117495958Y-53815873D01*
X117491284Y-53815812D01*
X117224937Y-53852060D01*
X116966874Y-53927278D01*
X116722763Y-54039815D01*
X116718854Y-54042378D01*
X116501881Y-54184631D01*
X116501876Y-54184635D01*
X116497968Y-54187197D01*
X116494476Y-54190314D01*
X116337874Y-54330087D01*
X116297426Y-54366188D01*
X116125544Y-54572854D01*
X115986096Y-54802656D01*
X115984287Y-54806970D01*
X115984285Y-54806974D01*
X115971815Y-54836713D01*
X115882148Y-55050545D01*
X115815981Y-55311077D01*
X115789050Y-55578526D01*
X114330500Y-55578526D01*
X114330500Y-54277866D01*
X114323745Y-54215684D01*
X114272615Y-54079295D01*
X114185261Y-53962739D01*
X114068705Y-53875385D01*
X113932316Y-53824255D01*
X113870134Y-53817500D01*
X111173866Y-53817500D01*
X111111684Y-53824255D01*
X110975295Y-53875385D01*
X110858739Y-53962739D01*
X110771385Y-54079295D01*
X110720255Y-54215684D01*
X110713500Y-54277866D01*
X110713500Y-56974134D01*
X103174511Y-56974134D01*
X103199751Y-56796784D01*
X103199845Y-56778951D01*
X103201235Y-56513583D01*
X103201235Y-56513576D01*
X103201257Y-56509297D01*
X103163732Y-56224266D01*
X103087871Y-55946964D01*
X103043249Y-55842349D01*
X102976763Y-55686476D01*
X102976761Y-55686472D01*
X102975077Y-55682524D01*
X102827439Y-55435839D01*
X102647687Y-55211472D01*
X102439149Y-55013577D01*
X102205683Y-54845814D01*
X102183843Y-54834250D01*
X102049760Y-54763257D01*
X101951608Y-54711288D01*
X101681627Y-54612489D01*
X101400736Y-54551245D01*
X101369685Y-54548801D01*
X101177718Y-54533693D01*
X101177709Y-54533693D01*
X101175261Y-54533500D01*
X101019729Y-54533500D01*
X101017593Y-54533646D01*
X101017582Y-54533646D01*
X100809452Y-54547835D01*
X100809446Y-54547836D01*
X100805175Y-54548127D01*
X100800980Y-54548996D01*
X100800978Y-54548996D01*
X100703127Y-54569260D01*
X100523658Y-54606426D01*
X100252657Y-54702393D01*
X99997188Y-54834250D01*
X99993687Y-54836711D01*
X99993683Y-54836713D01*
X99879582Y-54916905D01*
X99761977Y-54999559D01*
X99551378Y-55195260D01*
X99369287Y-55417732D01*
X99219073Y-55662858D01*
X99103517Y-55926102D01*
X99024756Y-56202594D01*
X98984249Y-56487216D01*
X98984227Y-56491505D01*
X98984226Y-56491512D01*
X98982765Y-56770417D01*
X98982743Y-56774703D01*
X97028000Y-56774703D01*
X97028000Y-48260000D01*
X98762502Y-48260000D01*
X98782457Y-48488087D01*
X98841716Y-48709243D01*
X98844039Y-48714224D01*
X98844039Y-48714225D01*
X98936151Y-48911762D01*
X98936154Y-48911767D01*
X98938477Y-48916749D01*
X99069802Y-49104300D01*
X99231700Y-49266198D01*
X99236208Y-49269355D01*
X99236211Y-49269357D01*
X99314389Y-49324098D01*
X99419251Y-49397523D01*
X99424233Y-49399846D01*
X99424238Y-49399849D01*
X99577345Y-49471243D01*
X99626757Y-49494284D01*
X99632065Y-49495706D01*
X99632067Y-49495707D01*
X99842598Y-49552119D01*
X99842600Y-49552119D01*
X99847913Y-49553543D01*
X100076000Y-49573498D01*
X100304087Y-49553543D01*
X100309400Y-49552119D01*
X100309402Y-49552119D01*
X100519933Y-49495707D01*
X100519935Y-49495706D01*
X100525243Y-49494284D01*
X100574655Y-49471243D01*
X100727762Y-49399849D01*
X100727767Y-49399846D01*
X100732749Y-49397523D01*
X100837611Y-49324098D01*
X100915789Y-49269357D01*
X100915792Y-49269355D01*
X100920300Y-49266198D01*
X101082198Y-49104300D01*
X101213523Y-48916749D01*
X101215846Y-48911767D01*
X101215849Y-48911762D01*
X101307961Y-48714225D01*
X101307961Y-48714224D01*
X101310284Y-48709243D01*
X101369543Y-48488087D01*
X101389498Y-48260000D01*
X101369543Y-48031913D01*
X101336264Y-47907715D01*
X101317620Y-47838134D01*
X107657500Y-47838134D01*
X107664255Y-47900316D01*
X107715385Y-48036705D01*
X107802739Y-48153261D01*
X107919295Y-48240615D01*
X108055684Y-48291745D01*
X108117866Y-48298500D01*
X109814134Y-48298500D01*
X109876316Y-48291745D01*
X110012705Y-48240615D01*
X110129261Y-48153261D01*
X110216615Y-48036705D01*
X110267745Y-47900316D01*
X110274500Y-47838134D01*
X110274500Y-46990000D01*
X115272502Y-46990000D01*
X115292457Y-47218087D01*
X115293881Y-47223400D01*
X115293881Y-47223402D01*
X115345408Y-47415700D01*
X115351716Y-47439243D01*
X115354039Y-47444224D01*
X115354039Y-47444225D01*
X115446151Y-47641762D01*
X115446154Y-47641767D01*
X115448477Y-47646749D01*
X115451634Y-47651257D01*
X115570461Y-47820959D01*
X115579802Y-47834300D01*
X115741700Y-47996198D01*
X115746208Y-47999355D01*
X115746211Y-47999357D01*
X115787542Y-48028297D01*
X115929251Y-48127523D01*
X115934233Y-48129846D01*
X115934238Y-48129849D01*
X116131775Y-48221961D01*
X116136757Y-48224284D01*
X116142065Y-48225706D01*
X116142067Y-48225707D01*
X116352598Y-48282119D01*
X116352600Y-48282119D01*
X116357913Y-48283543D01*
X116586000Y-48303498D01*
X116814087Y-48283543D01*
X116819400Y-48282119D01*
X116819402Y-48282119D01*
X117029933Y-48225707D01*
X117029935Y-48225706D01*
X117035243Y-48224284D01*
X117040225Y-48221961D01*
X117237762Y-48129849D01*
X117237767Y-48129846D01*
X117242749Y-48127523D01*
X117384458Y-48028297D01*
X117425789Y-47999357D01*
X117425792Y-47999355D01*
X117430300Y-47996198D01*
X117592198Y-47834300D01*
X117601540Y-47820959D01*
X117720366Y-47651257D01*
X117723523Y-47646749D01*
X117725846Y-47641767D01*
X117725849Y-47641762D01*
X117817961Y-47444225D01*
X117817961Y-47444224D01*
X117820284Y-47439243D01*
X117826593Y-47415700D01*
X117878119Y-47223402D01*
X117878119Y-47223400D01*
X117879543Y-47218087D01*
X117899498Y-46990000D01*
X117879543Y-46761913D01*
X117820284Y-46540757D01*
X117817961Y-46535775D01*
X117725849Y-46338238D01*
X117725846Y-46338233D01*
X117723523Y-46333251D01*
X117592198Y-46145700D01*
X117430300Y-45983802D01*
X117425792Y-45980645D01*
X117425789Y-45980643D01*
X117347611Y-45925902D01*
X117242749Y-45852477D01*
X117237767Y-45850154D01*
X117237762Y-45850151D01*
X117040225Y-45758039D01*
X117040224Y-45758039D01*
X117035243Y-45755716D01*
X117029935Y-45754294D01*
X117029933Y-45754293D01*
X116819402Y-45697881D01*
X116819400Y-45697881D01*
X116814087Y-45696457D01*
X116586000Y-45676502D01*
X116357913Y-45696457D01*
X116352600Y-45697881D01*
X116352598Y-45697881D01*
X116142067Y-45754293D01*
X116142065Y-45754294D01*
X116136757Y-45755716D01*
X116131776Y-45758039D01*
X116131775Y-45758039D01*
X115934238Y-45850151D01*
X115934233Y-45850154D01*
X115929251Y-45852477D01*
X115824389Y-45925902D01*
X115746211Y-45980643D01*
X115746208Y-45980645D01*
X115741700Y-45983802D01*
X115579802Y-46145700D01*
X115448477Y-46333251D01*
X115446154Y-46338233D01*
X115446151Y-46338238D01*
X115354039Y-46535775D01*
X115351716Y-46540757D01*
X115292457Y-46761913D01*
X115272502Y-46990000D01*
X110274500Y-46990000D01*
X110274500Y-46141866D01*
X110267745Y-46079684D01*
X110216615Y-45943295D01*
X110129261Y-45826739D01*
X110012705Y-45739385D01*
X109876316Y-45688255D01*
X109814134Y-45681500D01*
X108117866Y-45681500D01*
X108055684Y-45688255D01*
X107919295Y-45739385D01*
X107802739Y-45826739D01*
X107715385Y-45943295D01*
X107664255Y-46079684D01*
X107657500Y-46141866D01*
X107657500Y-47838134D01*
X101317620Y-47838134D01*
X101311707Y-47816067D01*
X101311706Y-47816065D01*
X101310284Y-47810757D01*
X101283351Y-47752999D01*
X101215849Y-47608238D01*
X101215846Y-47608233D01*
X101213523Y-47603251D01*
X101130233Y-47484301D01*
X101085357Y-47420211D01*
X101085355Y-47420208D01*
X101082198Y-47415700D01*
X100920300Y-47253802D01*
X100915792Y-47250645D01*
X100915789Y-47250643D01*
X100837611Y-47195902D01*
X100732749Y-47122477D01*
X100727767Y-47120154D01*
X100727762Y-47120151D01*
X100530225Y-47028039D01*
X100530224Y-47028039D01*
X100525243Y-47025716D01*
X100519935Y-47024294D01*
X100519933Y-47024293D01*
X100309402Y-46967881D01*
X100309400Y-46967881D01*
X100304087Y-46966457D01*
X100076000Y-46946502D01*
X99847913Y-46966457D01*
X99842600Y-46967881D01*
X99842598Y-46967881D01*
X99632067Y-47024293D01*
X99632065Y-47024294D01*
X99626757Y-47025716D01*
X99621776Y-47028039D01*
X99621775Y-47028039D01*
X99424238Y-47120151D01*
X99424233Y-47120154D01*
X99419251Y-47122477D01*
X99314389Y-47195902D01*
X99236211Y-47250643D01*
X99236208Y-47250645D01*
X99231700Y-47253802D01*
X99069802Y-47415700D01*
X99066645Y-47420208D01*
X99066643Y-47420211D01*
X99021767Y-47484301D01*
X98938477Y-47603251D01*
X98936154Y-47608233D01*
X98936151Y-47608238D01*
X98868649Y-47752999D01*
X98841716Y-47810757D01*
X98840294Y-47816065D01*
X98840293Y-47816067D01*
X98815736Y-47907715D01*
X98782457Y-48031913D01*
X98762502Y-48260000D01*
X97028000Y-48260000D01*
X97028000Y-43902000D01*
X103588502Y-43902000D01*
X103608457Y-44130087D01*
X103667716Y-44351243D01*
X103670039Y-44356224D01*
X103670039Y-44356225D01*
X103762151Y-44553762D01*
X103762154Y-44553767D01*
X103764477Y-44558749D01*
X103895802Y-44746300D01*
X104057700Y-44908198D01*
X104062208Y-44911355D01*
X104062211Y-44911357D01*
X104109260Y-44944301D01*
X104245251Y-45039523D01*
X104250233Y-45041846D01*
X104250238Y-45041849D01*
X104447775Y-45133961D01*
X104452757Y-45136284D01*
X104458065Y-45137706D01*
X104458067Y-45137707D01*
X104668598Y-45194119D01*
X104668600Y-45194119D01*
X104673913Y-45195543D01*
X104902000Y-45215498D01*
X105130087Y-45195543D01*
X105135400Y-45194119D01*
X105135402Y-45194119D01*
X105345933Y-45137707D01*
X105345935Y-45137706D01*
X105351243Y-45136284D01*
X105356225Y-45133961D01*
X105553762Y-45041849D01*
X105553767Y-45041846D01*
X105558749Y-45039523D01*
X105694740Y-44944301D01*
X105741789Y-44911357D01*
X105741792Y-44911355D01*
X105746300Y-44908198D01*
X105908198Y-44746300D01*
X106039523Y-44558749D01*
X106041846Y-44553767D01*
X106041849Y-44553762D01*
X106133961Y-44356225D01*
X106133961Y-44356224D01*
X106136284Y-44351243D01*
X106195543Y-44130087D01*
X106215498Y-43902000D01*
X106195543Y-43673913D01*
X106194012Y-43668198D01*
X106151658Y-43510134D01*
X108175500Y-43510134D01*
X108182255Y-43572316D01*
X108233385Y-43708705D01*
X108320739Y-43825261D01*
X108437295Y-43912615D01*
X108573684Y-43963745D01*
X108635866Y-43970500D01*
X110332134Y-43970500D01*
X110394316Y-43963745D01*
X110530705Y-43912615D01*
X110647261Y-43825261D01*
X110734615Y-43708705D01*
X110785745Y-43572316D01*
X110786917Y-43561526D01*
X110787803Y-43559394D01*
X110788425Y-43556778D01*
X110788848Y-43556879D01*
X110814155Y-43495965D01*
X110872517Y-43455537D01*
X110943471Y-43453078D01*
X111004490Y-43489371D01*
X111011489Y-43498031D01*
X111014643Y-43501789D01*
X111017802Y-43506300D01*
X111179700Y-43668198D01*
X111184208Y-43671355D01*
X111184211Y-43671357D01*
X111247812Y-43715891D01*
X111367251Y-43799523D01*
X111372233Y-43801846D01*
X111372238Y-43801849D01*
X111569775Y-43893961D01*
X111574757Y-43896284D01*
X111580065Y-43897706D01*
X111580067Y-43897707D01*
X111790598Y-43954119D01*
X111790600Y-43954119D01*
X111795913Y-43955543D01*
X112024000Y-43975498D01*
X112252087Y-43955543D01*
X112257400Y-43954119D01*
X112257402Y-43954119D01*
X112467933Y-43897707D01*
X112467935Y-43897706D01*
X112473243Y-43896284D01*
X112478225Y-43893961D01*
X112675762Y-43801849D01*
X112675767Y-43801846D01*
X112680749Y-43799523D01*
X112800188Y-43715891D01*
X112863789Y-43671357D01*
X112863792Y-43671355D01*
X112868300Y-43668198D01*
X113030198Y-43506300D01*
X113043170Y-43487775D01*
X113158366Y-43323257D01*
X113161523Y-43318749D01*
X113163846Y-43313767D01*
X113163849Y-43313762D01*
X113179805Y-43279543D01*
X113226722Y-43226258D01*
X113294999Y-43206797D01*
X113362959Y-43227339D01*
X113408195Y-43279543D01*
X113424151Y-43313762D01*
X113424154Y-43313767D01*
X113426477Y-43318749D01*
X113429634Y-43323257D01*
X113544831Y-43487775D01*
X113557802Y-43506300D01*
X113719700Y-43668198D01*
X113724208Y-43671355D01*
X113724211Y-43671357D01*
X113787812Y-43715891D01*
X113907251Y-43799523D01*
X113912233Y-43801846D01*
X113912238Y-43801849D01*
X114109775Y-43893961D01*
X114114757Y-43896284D01*
X114120065Y-43897706D01*
X114120067Y-43897707D01*
X114330598Y-43954119D01*
X114330600Y-43954119D01*
X114335913Y-43955543D01*
X114564000Y-43975498D01*
X114792087Y-43955543D01*
X114797400Y-43954119D01*
X114797402Y-43954119D01*
X115007933Y-43897707D01*
X115007935Y-43897706D01*
X115013243Y-43896284D01*
X115018225Y-43893961D01*
X115215762Y-43801849D01*
X115215767Y-43801846D01*
X115220749Y-43799523D01*
X115340188Y-43715891D01*
X115403789Y-43671357D01*
X115403792Y-43671355D01*
X115408300Y-43668198D01*
X115570198Y-43506300D01*
X115583170Y-43487775D01*
X115698366Y-43323257D01*
X115701523Y-43318749D01*
X115703846Y-43313767D01*
X115703849Y-43313762D01*
X115719805Y-43279543D01*
X115766722Y-43226258D01*
X115834999Y-43206797D01*
X115902959Y-43227339D01*
X115948195Y-43279543D01*
X115964151Y-43313762D01*
X115964154Y-43313767D01*
X115966477Y-43318749D01*
X115969634Y-43323257D01*
X116084831Y-43487775D01*
X116097802Y-43506300D01*
X116259700Y-43668198D01*
X116264208Y-43671355D01*
X116264211Y-43671357D01*
X116327812Y-43715891D01*
X116447251Y-43799523D01*
X116452233Y-43801846D01*
X116452238Y-43801849D01*
X116649775Y-43893961D01*
X116654757Y-43896284D01*
X116660065Y-43897706D01*
X116660067Y-43897707D01*
X116870598Y-43954119D01*
X116870600Y-43954119D01*
X116875913Y-43955543D01*
X117104000Y-43975498D01*
X117332087Y-43955543D01*
X117337400Y-43954119D01*
X117337402Y-43954119D01*
X117547933Y-43897707D01*
X117547935Y-43897706D01*
X117553243Y-43896284D01*
X117558225Y-43893961D01*
X117755762Y-43801849D01*
X117755767Y-43801846D01*
X117760749Y-43799523D01*
X117880188Y-43715891D01*
X117943789Y-43671357D01*
X117943792Y-43671355D01*
X117948300Y-43668198D01*
X118110198Y-43506300D01*
X118123170Y-43487775D01*
X118238366Y-43323257D01*
X118241523Y-43318749D01*
X118243846Y-43313767D01*
X118243849Y-43313762D01*
X118335961Y-43116225D01*
X118335961Y-43116224D01*
X118338284Y-43111243D01*
X118384250Y-42939699D01*
X118396119Y-42895402D01*
X118396119Y-42895400D01*
X118397543Y-42890087D01*
X118417498Y-42662000D01*
X118397543Y-42433913D01*
X118390653Y-42408198D01*
X118339707Y-42218067D01*
X118339706Y-42218065D01*
X118338284Y-42212757D01*
X118284148Y-42096661D01*
X118243849Y-42010238D01*
X118243846Y-42010233D01*
X118241523Y-42005251D01*
X118110198Y-41817700D01*
X117948300Y-41655802D01*
X117943792Y-41652645D01*
X117943789Y-41652643D01*
X117865611Y-41597902D01*
X117760749Y-41524477D01*
X117755767Y-41522154D01*
X117755762Y-41522151D01*
X117558225Y-41430039D01*
X117558224Y-41430039D01*
X117553243Y-41427716D01*
X117547935Y-41426294D01*
X117547933Y-41426293D01*
X117337402Y-41369881D01*
X117337400Y-41369881D01*
X117332087Y-41368457D01*
X117104000Y-41348502D01*
X116875913Y-41368457D01*
X116870600Y-41369881D01*
X116870598Y-41369881D01*
X116660067Y-41426293D01*
X116660065Y-41426294D01*
X116654757Y-41427716D01*
X116649776Y-41430039D01*
X116649775Y-41430039D01*
X116452238Y-41522151D01*
X116452233Y-41522154D01*
X116447251Y-41524477D01*
X116342389Y-41597902D01*
X116264211Y-41652643D01*
X116264208Y-41652645D01*
X116259700Y-41655802D01*
X116097802Y-41817700D01*
X115966477Y-42005251D01*
X115964154Y-42010233D01*
X115964151Y-42010238D01*
X115948195Y-42044457D01*
X115901278Y-42097742D01*
X115833001Y-42117203D01*
X115765041Y-42096661D01*
X115719805Y-42044457D01*
X115703849Y-42010238D01*
X115703846Y-42010233D01*
X115701523Y-42005251D01*
X115570198Y-41817700D01*
X115408300Y-41655802D01*
X115403792Y-41652645D01*
X115403789Y-41652643D01*
X115325611Y-41597902D01*
X115220749Y-41524477D01*
X115215767Y-41522154D01*
X115215762Y-41522151D01*
X115018225Y-41430039D01*
X115018224Y-41430039D01*
X115013243Y-41427716D01*
X115007935Y-41426294D01*
X115007933Y-41426293D01*
X114797402Y-41369881D01*
X114797400Y-41369881D01*
X114792087Y-41368457D01*
X114564000Y-41348502D01*
X114335913Y-41368457D01*
X114330600Y-41369881D01*
X114330598Y-41369881D01*
X114120067Y-41426293D01*
X114120065Y-41426294D01*
X114114757Y-41427716D01*
X114109776Y-41430039D01*
X114109775Y-41430039D01*
X113912238Y-41522151D01*
X113912233Y-41522154D01*
X113907251Y-41524477D01*
X113802389Y-41597902D01*
X113724211Y-41652643D01*
X113724208Y-41652645D01*
X113719700Y-41655802D01*
X113557802Y-41817700D01*
X113426477Y-42005251D01*
X113424154Y-42010233D01*
X113424151Y-42010238D01*
X113408195Y-42044457D01*
X113361278Y-42097742D01*
X113293001Y-42117203D01*
X113225041Y-42096661D01*
X113179805Y-42044457D01*
X113163849Y-42010238D01*
X113163846Y-42010233D01*
X113161523Y-42005251D01*
X113030198Y-41817700D01*
X112868300Y-41655802D01*
X112863792Y-41652645D01*
X112863789Y-41652643D01*
X112785611Y-41597902D01*
X112680749Y-41524477D01*
X112675767Y-41522154D01*
X112675762Y-41522151D01*
X112478225Y-41430039D01*
X112478224Y-41430039D01*
X112473243Y-41427716D01*
X112467935Y-41426294D01*
X112467933Y-41426293D01*
X112257402Y-41369881D01*
X112257400Y-41369881D01*
X112252087Y-41368457D01*
X112024000Y-41348502D01*
X111795913Y-41368457D01*
X111790600Y-41369881D01*
X111790598Y-41369881D01*
X111580067Y-41426293D01*
X111580065Y-41426294D01*
X111574757Y-41427716D01*
X111569776Y-41430039D01*
X111569775Y-41430039D01*
X111372238Y-41522151D01*
X111372233Y-41522154D01*
X111367251Y-41524477D01*
X111262389Y-41597902D01*
X111184211Y-41652643D01*
X111184208Y-41652645D01*
X111179700Y-41655802D01*
X111017802Y-41817700D01*
X111014643Y-41822211D01*
X111011108Y-41826424D01*
X111009974Y-41825473D01*
X110959929Y-41865471D01*
X110889310Y-41872776D01*
X110825951Y-41840742D01*
X110789970Y-41779538D01*
X110786918Y-41762483D01*
X110785745Y-41751684D01*
X110734615Y-41615295D01*
X110647261Y-41498739D01*
X110530705Y-41411385D01*
X110394316Y-41360255D01*
X110332134Y-41353500D01*
X108635866Y-41353500D01*
X108573684Y-41360255D01*
X108437295Y-41411385D01*
X108320739Y-41498739D01*
X108233385Y-41615295D01*
X108182255Y-41751684D01*
X108175500Y-41813866D01*
X108175500Y-43510134D01*
X106151658Y-43510134D01*
X106137707Y-43458067D01*
X106137706Y-43458065D01*
X106136284Y-43452757D01*
X106075898Y-43323257D01*
X106041849Y-43250238D01*
X106041846Y-43250233D01*
X106039523Y-43245251D01*
X105939365Y-43102211D01*
X105911357Y-43062211D01*
X105911355Y-43062208D01*
X105908198Y-43057700D01*
X105746300Y-42895802D01*
X105741792Y-42892645D01*
X105741789Y-42892643D01*
X105620383Y-42807634D01*
X105558749Y-42764477D01*
X105553767Y-42762154D01*
X105553762Y-42762151D01*
X105356225Y-42670039D01*
X105356224Y-42670039D01*
X105351243Y-42667716D01*
X105345935Y-42666294D01*
X105345933Y-42666293D01*
X105135402Y-42609881D01*
X105135400Y-42609881D01*
X105130087Y-42608457D01*
X104902000Y-42588502D01*
X104673913Y-42608457D01*
X104668600Y-42609881D01*
X104668598Y-42609881D01*
X104458067Y-42666293D01*
X104458065Y-42666294D01*
X104452757Y-42667716D01*
X104447776Y-42670039D01*
X104447775Y-42670039D01*
X104250238Y-42762151D01*
X104250233Y-42762154D01*
X104245251Y-42764477D01*
X104183617Y-42807634D01*
X104062211Y-42892643D01*
X104062208Y-42892645D01*
X104057700Y-42895802D01*
X103895802Y-43057700D01*
X103892645Y-43062208D01*
X103892643Y-43062211D01*
X103864635Y-43102211D01*
X103764477Y-43245251D01*
X103762154Y-43250233D01*
X103762151Y-43250238D01*
X103728102Y-43323257D01*
X103667716Y-43452757D01*
X103666294Y-43458065D01*
X103666293Y-43458067D01*
X103609988Y-43668198D01*
X103608457Y-43673913D01*
X103588502Y-43902000D01*
X97028000Y-43902000D01*
X97028000Y-38902000D01*
X103588502Y-38902000D01*
X103608457Y-39130087D01*
X103667716Y-39351243D01*
X103670039Y-39356224D01*
X103670039Y-39356225D01*
X103762151Y-39553762D01*
X103762154Y-39553767D01*
X103764477Y-39558749D01*
X103767634Y-39563257D01*
X103867794Y-39706300D01*
X103895802Y-39746300D01*
X104057700Y-39908198D01*
X104062208Y-39911355D01*
X104062211Y-39911357D01*
X104140389Y-39966098D01*
X104245251Y-40039523D01*
X104250233Y-40041846D01*
X104250238Y-40041849D01*
X104366976Y-40096284D01*
X104452757Y-40136284D01*
X104458065Y-40137706D01*
X104458067Y-40137707D01*
X104668598Y-40194119D01*
X104668600Y-40194119D01*
X104673913Y-40195543D01*
X104902000Y-40215498D01*
X105130087Y-40195543D01*
X105135400Y-40194119D01*
X105135402Y-40194119D01*
X105345933Y-40137707D01*
X105345935Y-40137706D01*
X105351243Y-40136284D01*
X105437024Y-40096284D01*
X105553762Y-40041849D01*
X105553767Y-40041846D01*
X105558749Y-40039523D01*
X105663611Y-39966098D01*
X105741789Y-39911357D01*
X105741792Y-39911355D01*
X105746300Y-39908198D01*
X105908198Y-39746300D01*
X105936207Y-39706300D01*
X106036366Y-39563257D01*
X106039523Y-39558749D01*
X106041846Y-39553767D01*
X106041849Y-39553762D01*
X106133961Y-39356225D01*
X106133961Y-39356224D01*
X106136284Y-39351243D01*
X106195543Y-39130087D01*
X106215498Y-38902000D01*
X106195543Y-38673913D01*
X106136284Y-38452757D01*
X106115309Y-38407775D01*
X106041849Y-38250238D01*
X106041846Y-38250233D01*
X106039523Y-38245251D01*
X105908198Y-38057700D01*
X105746300Y-37895802D01*
X105741792Y-37892645D01*
X105741789Y-37892643D01*
X105663611Y-37837902D01*
X105558749Y-37764477D01*
X105553767Y-37762154D01*
X105553762Y-37762151D01*
X105356225Y-37670039D01*
X105356224Y-37670039D01*
X105351243Y-37667716D01*
X105345935Y-37666294D01*
X105345933Y-37666293D01*
X105135402Y-37609881D01*
X105135400Y-37609881D01*
X105130087Y-37608457D01*
X104902000Y-37588502D01*
X104673913Y-37608457D01*
X104668600Y-37609881D01*
X104668598Y-37609881D01*
X104458067Y-37666293D01*
X104458065Y-37666294D01*
X104452757Y-37667716D01*
X104447776Y-37670039D01*
X104447775Y-37670039D01*
X104250238Y-37762151D01*
X104250233Y-37762154D01*
X104245251Y-37764477D01*
X104140389Y-37837902D01*
X104062211Y-37892643D01*
X104062208Y-37892645D01*
X104057700Y-37895802D01*
X103895802Y-38057700D01*
X103764477Y-38245251D01*
X103762154Y-38250233D01*
X103762151Y-38250238D01*
X103688691Y-38407775D01*
X103667716Y-38452757D01*
X103608457Y-38673913D01*
X103588502Y-38902000D01*
X97028000Y-38902000D01*
X97028000Y-35560000D01*
X98762502Y-35560000D01*
X98782457Y-35788087D01*
X98783881Y-35793400D01*
X98783881Y-35793402D01*
X98807565Y-35881789D01*
X98841716Y-36009243D01*
X98844039Y-36014224D01*
X98844039Y-36014225D01*
X98936151Y-36211762D01*
X98936154Y-36211767D01*
X98938477Y-36216749D01*
X99069802Y-36404300D01*
X99231700Y-36566198D01*
X99236208Y-36569355D01*
X99236211Y-36569357D01*
X99314389Y-36624098D01*
X99419251Y-36697523D01*
X99424233Y-36699846D01*
X99424238Y-36699849D01*
X99577345Y-36771243D01*
X99626757Y-36794284D01*
X99632065Y-36795706D01*
X99632067Y-36795707D01*
X99842598Y-36852119D01*
X99842600Y-36852119D01*
X99847913Y-36853543D01*
X100076000Y-36873498D01*
X100304087Y-36853543D01*
X100309400Y-36852119D01*
X100309402Y-36852119D01*
X100519933Y-36795707D01*
X100519935Y-36795706D01*
X100525243Y-36794284D01*
X100574655Y-36771243D01*
X100727762Y-36699849D01*
X100727767Y-36699846D01*
X100732749Y-36697523D01*
X100837611Y-36624098D01*
X100915789Y-36569357D01*
X100915792Y-36569355D01*
X100920300Y-36566198D01*
X101082198Y-36404300D01*
X101213523Y-36216749D01*
X101215846Y-36211767D01*
X101215849Y-36211762D01*
X101307961Y-36014225D01*
X101307961Y-36014224D01*
X101310284Y-36009243D01*
X101344436Y-35881789D01*
X101368119Y-35793402D01*
X101368119Y-35793400D01*
X101369543Y-35788087D01*
X101389498Y-35560000D01*
X101369543Y-35331913D01*
X101365226Y-35315802D01*
X101311707Y-35116067D01*
X101311706Y-35116065D01*
X101310284Y-35110757D01*
X101283351Y-35052999D01*
X101215849Y-34908238D01*
X101215846Y-34908233D01*
X101213523Y-34903251D01*
X101082198Y-34715700D01*
X100920300Y-34553802D01*
X100915792Y-34550645D01*
X100915789Y-34550643D01*
X100810977Y-34477253D01*
X100732749Y-34422477D01*
X100727767Y-34420154D01*
X100727762Y-34420151D01*
X100530225Y-34328039D01*
X100530224Y-34328039D01*
X100525243Y-34325716D01*
X100519935Y-34324294D01*
X100519933Y-34324293D01*
X100309402Y-34267881D01*
X100309400Y-34267881D01*
X100304087Y-34266457D01*
X100076000Y-34246502D01*
X99847913Y-34266457D01*
X99842600Y-34267881D01*
X99842598Y-34267881D01*
X99632067Y-34324293D01*
X99632065Y-34324294D01*
X99626757Y-34325716D01*
X99621776Y-34328039D01*
X99621775Y-34328039D01*
X99424238Y-34420151D01*
X99424233Y-34420154D01*
X99419251Y-34422477D01*
X99341023Y-34477253D01*
X99236211Y-34550643D01*
X99236208Y-34550645D01*
X99231700Y-34553802D01*
X99069802Y-34715700D01*
X98938477Y-34903251D01*
X98936154Y-34908233D01*
X98936151Y-34908238D01*
X98868649Y-35052999D01*
X98841716Y-35110757D01*
X98840294Y-35116065D01*
X98840293Y-35116067D01*
X98786774Y-35315802D01*
X98782457Y-35331913D01*
X98762502Y-35560000D01*
X97028000Y-35560000D01*
X97028000Y-31082950D01*
X109514493Y-31082950D01*
X109523789Y-31094965D01*
X109574994Y-31130819D01*
X109584489Y-31136302D01*
X109781947Y-31228378D01*
X109792239Y-31232124D01*
X110002688Y-31288513D01*
X110013481Y-31290416D01*
X110230525Y-31309405D01*
X110241475Y-31309405D01*
X110458519Y-31290416D01*
X110469312Y-31288513D01*
X110679761Y-31232124D01*
X110690053Y-31228378D01*
X110887511Y-31136302D01*
X110897006Y-31130819D01*
X110949048Y-31094379D01*
X110957424Y-31083900D01*
X110950356Y-31070454D01*
X110248812Y-30368910D01*
X110234868Y-30361296D01*
X110233035Y-30361427D01*
X110226420Y-30365678D01*
X109520923Y-31071175D01*
X109514493Y-31082950D01*
X97028000Y-31082950D01*
X97028000Y-30002363D01*
X108923483Y-30002363D01*
X108942472Y-30219407D01*
X108944375Y-30230200D01*
X109000764Y-30440649D01*
X109004510Y-30450941D01*
X109096586Y-30648399D01*
X109102069Y-30657894D01*
X109138509Y-30709936D01*
X109148988Y-30718312D01*
X109162434Y-30711244D01*
X109863978Y-30009700D01*
X109870356Y-29998020D01*
X110600408Y-29998020D01*
X110600539Y-29999853D01*
X110604790Y-30006468D01*
X111310287Y-30711965D01*
X111322062Y-30718395D01*
X111334077Y-30709099D01*
X111369931Y-30657894D01*
X111375414Y-30648399D01*
X111467490Y-30450941D01*
X111471236Y-30440649D01*
X111527625Y-30230200D01*
X111529528Y-30219407D01*
X111548517Y-30002363D01*
X111548517Y-29991413D01*
X111529528Y-29774369D01*
X111527625Y-29763576D01*
X111471236Y-29553127D01*
X111467490Y-29542835D01*
X111375414Y-29345377D01*
X111369931Y-29335882D01*
X111333491Y-29283840D01*
X111323012Y-29275464D01*
X111309566Y-29282532D01*
X110608022Y-29984076D01*
X110600408Y-29998020D01*
X109870356Y-29998020D01*
X109871592Y-29995756D01*
X109871461Y-29993923D01*
X109867210Y-29987308D01*
X109161713Y-29281811D01*
X109149938Y-29275381D01*
X109137923Y-29284677D01*
X109102069Y-29335882D01*
X109096586Y-29345377D01*
X109004510Y-29542835D01*
X109000764Y-29553127D01*
X108944375Y-29763576D01*
X108942472Y-29774369D01*
X108923483Y-29991413D01*
X108923483Y-30002363D01*
X97028000Y-30002363D01*
X97028000Y-28345022D01*
X108927500Y-28345022D01*
X108934255Y-28407204D01*
X108985385Y-28543593D01*
X109072739Y-28660149D01*
X109189295Y-28747503D01*
X109325684Y-28798633D01*
X109369252Y-28803366D01*
X109384486Y-28805021D01*
X109384489Y-28805021D01*
X109387866Y-28805388D01*
X109391185Y-28805388D01*
X109458110Y-28829041D01*
X109493804Y-28875044D01*
X109495734Y-28874029D01*
X109501442Y-28884888D01*
X109501632Y-28885133D01*
X109501653Y-28885291D01*
X109521644Y-28923322D01*
X110223188Y-29624866D01*
X110237132Y-29632480D01*
X110238965Y-29632349D01*
X110245580Y-29628098D01*
X110951077Y-28922601D01*
X110973871Y-28880859D01*
X110976047Y-28870859D01*
X111026253Y-28820661D01*
X111079814Y-28805437D01*
X111080719Y-28805388D01*
X111084134Y-28805388D01*
X111087530Y-28805019D01*
X111087532Y-28805019D01*
X111099879Y-28803678D01*
X111146316Y-28798633D01*
X111282705Y-28747503D01*
X111399261Y-28660149D01*
X111486615Y-28543593D01*
X111537745Y-28407204D01*
X111544500Y-28345022D01*
X111544500Y-26648754D01*
X111537745Y-26586572D01*
X111486615Y-26450183D01*
X111399261Y-26333627D01*
X111282705Y-26246273D01*
X111146316Y-26195143D01*
X111084134Y-26188388D01*
X109387866Y-26188388D01*
X109325684Y-26195143D01*
X109189295Y-26246273D01*
X109072739Y-26333627D01*
X108985385Y-26450183D01*
X108934255Y-26586572D01*
X108927500Y-26648754D01*
X108927500Y-28345022D01*
X97028000Y-28345022D01*
X97028000Y-21590000D01*
X106128502Y-21590000D01*
X106148457Y-21818087D01*
X106207716Y-22039243D01*
X106210039Y-22044224D01*
X106210039Y-22044225D01*
X106302151Y-22241762D01*
X106302154Y-22241767D01*
X106304477Y-22246749D01*
X106307634Y-22251257D01*
X106426461Y-22420959D01*
X106435802Y-22434300D01*
X106597700Y-22596198D01*
X106602208Y-22599355D01*
X106602211Y-22599357D01*
X106680389Y-22654098D01*
X106785251Y-22727523D01*
X106790233Y-22729846D01*
X106790238Y-22729849D01*
X106987775Y-22821961D01*
X106992757Y-22824284D01*
X106998065Y-22825706D01*
X106998067Y-22825707D01*
X107208598Y-22882119D01*
X107208600Y-22882119D01*
X107213913Y-22883543D01*
X107442000Y-22903498D01*
X107670087Y-22883543D01*
X107675400Y-22882119D01*
X107675402Y-22882119D01*
X107885933Y-22825707D01*
X107885935Y-22825706D01*
X107891243Y-22824284D01*
X107896225Y-22821961D01*
X108093762Y-22729849D01*
X108093767Y-22729846D01*
X108098749Y-22727523D01*
X108203611Y-22654098D01*
X108281789Y-22599357D01*
X108281792Y-22599355D01*
X108286300Y-22596198D01*
X108448198Y-22434300D01*
X108457540Y-22420959D01*
X108576366Y-22251257D01*
X108579523Y-22246749D01*
X108581846Y-22241767D01*
X108581849Y-22241762D01*
X108673961Y-22044225D01*
X108673961Y-22044224D01*
X108676284Y-22039243D01*
X108735543Y-21818087D01*
X108755498Y-21590000D01*
X108735543Y-21361913D01*
X108676284Y-21140757D01*
X108673961Y-21135775D01*
X108581849Y-20938238D01*
X108581846Y-20938233D01*
X108579523Y-20933251D01*
X108448198Y-20745700D01*
X108286300Y-20583802D01*
X108281792Y-20580645D01*
X108281789Y-20580643D01*
X108203611Y-20525902D01*
X108098749Y-20452477D01*
X108093767Y-20450154D01*
X108093762Y-20450151D01*
X107896225Y-20358039D01*
X107896224Y-20358039D01*
X107891243Y-20355716D01*
X107885935Y-20354294D01*
X107885933Y-20354293D01*
X107675402Y-20297881D01*
X107675400Y-20297881D01*
X107670087Y-20296457D01*
X107442000Y-20276502D01*
X107213913Y-20296457D01*
X107208600Y-20297881D01*
X107208598Y-20297881D01*
X106998067Y-20354293D01*
X106998065Y-20354294D01*
X106992757Y-20355716D01*
X106987776Y-20358039D01*
X106987775Y-20358039D01*
X106790238Y-20450151D01*
X106790233Y-20450154D01*
X106785251Y-20452477D01*
X106680389Y-20525902D01*
X106602211Y-20580643D01*
X106602208Y-20580645D01*
X106597700Y-20583802D01*
X106435802Y-20745700D01*
X106304477Y-20933251D01*
X106302154Y-20938233D01*
X106302151Y-20938238D01*
X106210039Y-21135775D01*
X106207716Y-21140757D01*
X106148457Y-21361913D01*
X106128502Y-21590000D01*
X97028000Y-21590000D01*
X97028000Y-17404703D01*
X98982743Y-17404703D01*
X99020268Y-17689734D01*
X99096129Y-17967036D01*
X99208923Y-18231476D01*
X99356561Y-18478161D01*
X99536313Y-18702528D01*
X99744851Y-18900423D01*
X99978317Y-19068186D01*
X99982112Y-19070195D01*
X99982113Y-19070196D01*
X100003869Y-19081715D01*
X100232392Y-19202712D01*
X100502373Y-19301511D01*
X100783264Y-19362755D01*
X100811841Y-19365004D01*
X101006282Y-19380307D01*
X101006291Y-19380307D01*
X101008739Y-19380500D01*
X101164271Y-19380500D01*
X101166407Y-19380354D01*
X101166418Y-19380354D01*
X101374548Y-19366165D01*
X101374554Y-19366164D01*
X101378825Y-19365873D01*
X101383020Y-19365004D01*
X101383022Y-19365004D01*
X101519583Y-19336724D01*
X101660342Y-19307574D01*
X101931343Y-19211607D01*
X102186812Y-19079750D01*
X102190313Y-19077289D01*
X102190317Y-19077287D01*
X102320300Y-18985933D01*
X102422023Y-18914441D01*
X102577366Y-18770087D01*
X102629479Y-18721661D01*
X102629481Y-18721658D01*
X102632622Y-18718740D01*
X102814713Y-18496268D01*
X102964927Y-18251142D01*
X103080483Y-17987898D01*
X103159244Y-17711406D01*
X103199751Y-17426784D01*
X103199845Y-17408951D01*
X103201235Y-17143583D01*
X103201235Y-17143576D01*
X103201257Y-17139297D01*
X103188388Y-17041543D01*
X103164292Y-16858522D01*
X103163732Y-16854266D01*
X103087871Y-16576964D01*
X103040498Y-16465901D01*
X102976763Y-16316476D01*
X102976761Y-16316472D01*
X102975077Y-16312524D01*
X102827439Y-16065839D01*
X102647687Y-15841472D01*
X102549188Y-15748000D01*
X106128502Y-15748000D01*
X106148457Y-15976087D01*
X106207716Y-16197243D01*
X106210039Y-16202224D01*
X106210039Y-16202225D01*
X106302151Y-16399762D01*
X106302154Y-16399767D01*
X106304477Y-16404749D01*
X106307634Y-16409257D01*
X106427962Y-16581103D01*
X106435802Y-16592300D01*
X106597700Y-16754198D01*
X106602208Y-16757355D01*
X106602211Y-16757357D01*
X106680389Y-16812098D01*
X106785251Y-16885523D01*
X106790233Y-16887846D01*
X106790238Y-16887849D01*
X106987775Y-16979961D01*
X106992757Y-16982284D01*
X106998065Y-16983706D01*
X106998067Y-16983707D01*
X107208598Y-17040119D01*
X107208600Y-17040119D01*
X107213913Y-17041543D01*
X107442000Y-17061498D01*
X107670087Y-17041543D01*
X107675400Y-17040119D01*
X107675402Y-17040119D01*
X107885933Y-16983707D01*
X107885935Y-16983706D01*
X107891243Y-16982284D01*
X107896225Y-16979961D01*
X108093762Y-16887849D01*
X108093767Y-16887846D01*
X108098749Y-16885523D01*
X108203611Y-16812098D01*
X108281789Y-16757357D01*
X108281792Y-16757355D01*
X108286300Y-16754198D01*
X108448198Y-16592300D01*
X108455060Y-16582500D01*
X108505665Y-16510229D01*
X108561122Y-16465901D01*
X108608878Y-16456500D01*
X112703500Y-16456500D01*
X112771621Y-16476502D01*
X112818114Y-16530158D01*
X112829500Y-16582500D01*
X112829500Y-31423500D01*
X112809498Y-31491621D01*
X112755842Y-31538114D01*
X112703500Y-31549500D01*
X112062912Y-31549500D01*
X112054342Y-31549208D01*
X112004224Y-31545791D01*
X112004220Y-31545791D01*
X111996648Y-31545275D01*
X111989171Y-31546580D01*
X111989170Y-31546580D01*
X111962692Y-31551201D01*
X111933697Y-31556262D01*
X111927179Y-31557223D01*
X111863758Y-31564898D01*
X111856657Y-31567581D01*
X111854048Y-31568222D01*
X111837738Y-31572685D01*
X111835202Y-31573450D01*
X111827716Y-31574757D01*
X111820759Y-31577811D01*
X111769205Y-31600442D01*
X111763101Y-31602933D01*
X111703344Y-31625513D01*
X111697081Y-31629817D01*
X111694715Y-31631054D01*
X111679903Y-31639299D01*
X111677648Y-31640633D01*
X111670695Y-31643685D01*
X111664676Y-31648304D01*
X111664667Y-31648309D01*
X111642498Y-31665321D01*
X111635666Y-31669655D01*
X111635871Y-31669956D01*
X111629586Y-31674227D01*
X111622839Y-31677709D01*
X111617121Y-31682697D01*
X111617114Y-31682702D01*
X111611382Y-31687703D01*
X111599925Y-31696591D01*
X111562019Y-31722643D01*
X111556968Y-31728313D01*
X111556966Y-31728314D01*
X111534806Y-31753186D01*
X111523560Y-31764315D01*
X111499344Y-31785440D01*
X111499339Y-31785446D01*
X111493615Y-31790439D01*
X111489245Y-31796657D01*
X111467914Y-31827008D01*
X111458903Y-31838378D01*
X111452996Y-31845007D01*
X111452994Y-31845010D01*
X111447943Y-31850679D01*
X111444388Y-31857393D01*
X111440054Y-31863630D01*
X111439817Y-31863465D01*
X111434962Y-31870940D01*
X111418213Y-31892301D01*
X111418211Y-31892305D01*
X111413524Y-31898282D01*
X111410398Y-31905205D01*
X111409006Y-31907504D01*
X111400643Y-31922165D01*
X111399378Y-31924525D01*
X111395010Y-31930739D01*
X111392250Y-31937818D01*
X111392249Y-31937820D01*
X111371798Y-31990275D01*
X111369247Y-31996344D01*
X111342955Y-32054573D01*
X111341571Y-32062040D01*
X111340770Y-32064595D01*
X111336141Y-32080848D01*
X111335478Y-32083428D01*
X111332718Y-32090509D01*
X111331727Y-32098040D01*
X111331726Y-32098042D01*
X111324379Y-32153852D01*
X111323348Y-32160359D01*
X111311704Y-32223186D01*
X111312141Y-32230766D01*
X111312141Y-32230767D01*
X111315291Y-32285392D01*
X111315500Y-32292646D01*
X111315500Y-33875122D01*
X111295498Y-33943243D01*
X111261771Y-33978335D01*
X111184211Y-34032643D01*
X111184208Y-34032645D01*
X111179700Y-34035802D01*
X111017802Y-34197700D01*
X110886477Y-34385251D01*
X110884154Y-34390233D01*
X110884151Y-34390238D01*
X110868195Y-34424457D01*
X110821278Y-34477742D01*
X110753001Y-34497203D01*
X110685041Y-34476661D01*
X110639805Y-34424457D01*
X110623849Y-34390238D01*
X110623846Y-34390233D01*
X110621523Y-34385251D01*
X110490198Y-34197700D01*
X110328300Y-34035802D01*
X110323792Y-34032645D01*
X110323789Y-34032643D01*
X110196112Y-33943243D01*
X110140749Y-33904477D01*
X110135767Y-33902154D01*
X110135762Y-33902151D01*
X109938225Y-33810039D01*
X109938224Y-33810039D01*
X109933243Y-33807716D01*
X109927935Y-33806294D01*
X109927933Y-33806293D01*
X109717402Y-33749881D01*
X109717400Y-33749881D01*
X109712087Y-33748457D01*
X109484000Y-33728502D01*
X109255913Y-33748457D01*
X109250600Y-33749881D01*
X109250598Y-33749881D01*
X109040067Y-33806293D01*
X109040065Y-33806294D01*
X109034757Y-33807716D01*
X109029776Y-33810039D01*
X109029775Y-33810039D01*
X108832238Y-33902151D01*
X108832233Y-33902154D01*
X108827251Y-33904477D01*
X108771888Y-33943243D01*
X108644211Y-34032643D01*
X108644208Y-34032645D01*
X108639700Y-34035802D01*
X108477802Y-34197700D01*
X108346477Y-34385251D01*
X108344154Y-34390233D01*
X108344151Y-34390238D01*
X108303852Y-34476661D01*
X108249716Y-34592757D01*
X108248294Y-34598065D01*
X108248293Y-34598067D01*
X108198171Y-34785124D01*
X108190457Y-34813913D01*
X108170502Y-35042000D01*
X108190457Y-35270087D01*
X108191881Y-35275400D01*
X108191881Y-35275402D01*
X108203751Y-35319699D01*
X108249716Y-35491243D01*
X108252039Y-35496224D01*
X108252039Y-35496225D01*
X108344151Y-35693762D01*
X108344154Y-35693767D01*
X108346477Y-35698749D01*
X108349634Y-35703257D01*
X108464831Y-35867775D01*
X108477802Y-35886300D01*
X108639700Y-36048198D01*
X108644208Y-36051355D01*
X108644211Y-36051357D01*
X108712814Y-36099393D01*
X108827251Y-36179523D01*
X108832233Y-36181846D01*
X108832238Y-36181849D01*
X108916750Y-36221257D01*
X109034757Y-36276284D01*
X109040065Y-36277706D01*
X109040067Y-36277707D01*
X109250598Y-36334119D01*
X109250600Y-36334119D01*
X109255913Y-36335543D01*
X109484000Y-36355498D01*
X109712087Y-36335543D01*
X109717400Y-36334119D01*
X109717402Y-36334119D01*
X109927933Y-36277707D01*
X109927935Y-36277706D01*
X109933243Y-36276284D01*
X110051250Y-36221257D01*
X110135762Y-36181849D01*
X110135767Y-36181846D01*
X110140749Y-36179523D01*
X110255186Y-36099393D01*
X110323789Y-36051357D01*
X110323792Y-36051355D01*
X110328300Y-36048198D01*
X110490198Y-35886300D01*
X110503170Y-35867775D01*
X110618366Y-35703257D01*
X110621523Y-35698749D01*
X110623846Y-35693767D01*
X110623849Y-35693762D01*
X110639805Y-35659543D01*
X110686722Y-35606258D01*
X110754999Y-35586797D01*
X110822959Y-35607339D01*
X110868195Y-35659543D01*
X110884151Y-35693762D01*
X110884154Y-35693767D01*
X110886477Y-35698749D01*
X110889634Y-35703257D01*
X111004831Y-35867775D01*
X111017802Y-35886300D01*
X111179700Y-36048198D01*
X111184208Y-36051355D01*
X111184211Y-36051357D01*
X111252814Y-36099393D01*
X111367251Y-36179523D01*
X111372233Y-36181846D01*
X111372238Y-36181849D01*
X111456750Y-36221257D01*
X111574757Y-36276284D01*
X111580065Y-36277706D01*
X111580067Y-36277707D01*
X111790598Y-36334119D01*
X111790600Y-36334119D01*
X111795913Y-36335543D01*
X112024000Y-36355498D01*
X112252087Y-36335543D01*
X112257400Y-36334119D01*
X112257402Y-36334119D01*
X112467933Y-36277707D01*
X112467935Y-36277706D01*
X112473243Y-36276284D01*
X112591250Y-36221257D01*
X112675762Y-36181849D01*
X112675767Y-36181846D01*
X112680749Y-36179523D01*
X112795186Y-36099393D01*
X112863789Y-36051357D01*
X112863792Y-36051355D01*
X112868300Y-36048198D01*
X113030198Y-35886300D01*
X113043170Y-35867775D01*
X113158366Y-35703257D01*
X113161523Y-35698749D01*
X113163846Y-35693767D01*
X113163849Y-35693762D01*
X113179805Y-35659543D01*
X113226722Y-35606258D01*
X113294999Y-35586797D01*
X113362959Y-35607339D01*
X113408195Y-35659543D01*
X113424151Y-35693762D01*
X113424154Y-35693767D01*
X113426477Y-35698749D01*
X113429634Y-35703257D01*
X113544831Y-35867775D01*
X113557802Y-35886300D01*
X113719700Y-36048198D01*
X113724208Y-36051355D01*
X113724211Y-36051357D01*
X113792814Y-36099393D01*
X113907251Y-36179523D01*
X113912233Y-36181846D01*
X113912238Y-36181849D01*
X113996750Y-36221257D01*
X114114757Y-36276284D01*
X114120065Y-36277706D01*
X114120067Y-36277707D01*
X114330598Y-36334119D01*
X114330600Y-36334119D01*
X114335913Y-36335543D01*
X114564000Y-36355498D01*
X114792087Y-36335543D01*
X114797400Y-36334119D01*
X114797402Y-36334119D01*
X115007933Y-36277707D01*
X115007935Y-36277706D01*
X115013243Y-36276284D01*
X115131250Y-36221257D01*
X115215762Y-36181849D01*
X115215767Y-36181846D01*
X115220749Y-36179523D01*
X115335186Y-36099393D01*
X115403789Y-36051357D01*
X115403792Y-36051355D01*
X115408300Y-36048198D01*
X115570198Y-35886300D01*
X115583170Y-35867775D01*
X115698366Y-35703257D01*
X115701523Y-35698749D01*
X115703846Y-35693767D01*
X115703849Y-35693762D01*
X115720081Y-35658951D01*
X115766998Y-35605666D01*
X115835275Y-35586205D01*
X115903235Y-35606747D01*
X115948471Y-35658951D01*
X115964586Y-35693511D01*
X115970069Y-35703007D01*
X116095028Y-35881467D01*
X116102084Y-35889875D01*
X116256125Y-36043916D01*
X116264533Y-36050972D01*
X116442993Y-36175931D01*
X116452489Y-36181414D01*
X116649947Y-36273490D01*
X116660239Y-36277236D01*
X116832503Y-36323394D01*
X116846599Y-36323058D01*
X116850000Y-36315116D01*
X116850000Y-36309967D01*
X117358000Y-36309967D01*
X117361973Y-36323498D01*
X117370522Y-36324727D01*
X117547761Y-36277236D01*
X117558053Y-36273490D01*
X117755511Y-36181414D01*
X117765007Y-36175931D01*
X117943467Y-36050972D01*
X117951875Y-36043916D01*
X118105916Y-35889875D01*
X118112972Y-35881467D01*
X118237931Y-35703007D01*
X118243414Y-35693511D01*
X118335490Y-35496053D01*
X118339236Y-35485761D01*
X118385394Y-35313497D01*
X118385058Y-35299401D01*
X118377116Y-35296000D01*
X117376115Y-35296000D01*
X117360876Y-35300475D01*
X117359671Y-35301865D01*
X117358000Y-35309548D01*
X117358000Y-36309967D01*
X116850000Y-36309967D01*
X116850000Y-34769885D01*
X117358000Y-34769885D01*
X117362475Y-34785124D01*
X117363865Y-34786329D01*
X117371548Y-34788000D01*
X118371967Y-34788000D01*
X118385498Y-34784027D01*
X118386727Y-34775478D01*
X118339236Y-34598239D01*
X118335490Y-34587947D01*
X118243414Y-34390489D01*
X118237931Y-34380993D01*
X118112972Y-34202533D01*
X118105916Y-34194125D01*
X117951875Y-34040084D01*
X117943467Y-34033028D01*
X117765007Y-33908069D01*
X117755511Y-33902586D01*
X117558053Y-33810510D01*
X117547761Y-33806764D01*
X117375497Y-33760606D01*
X117361401Y-33760942D01*
X117358000Y-33768884D01*
X117358000Y-34769885D01*
X116850000Y-34769885D01*
X116850000Y-33774033D01*
X116846027Y-33760502D01*
X116837478Y-33759273D01*
X116660239Y-33806764D01*
X116649947Y-33810510D01*
X116452489Y-33902586D01*
X116442993Y-33908069D01*
X116264533Y-34033028D01*
X116256125Y-34040084D01*
X116102084Y-34194125D01*
X116095028Y-34202533D01*
X115970069Y-34380993D01*
X115964586Y-34390489D01*
X115948471Y-34425049D01*
X115901554Y-34478334D01*
X115833277Y-34497795D01*
X115765317Y-34477253D01*
X115720081Y-34425049D01*
X115703849Y-34390238D01*
X115703846Y-34390233D01*
X115701523Y-34385251D01*
X115570198Y-34197700D01*
X115408300Y-34035802D01*
X115403792Y-34032645D01*
X115403789Y-34032643D01*
X115276112Y-33943243D01*
X115220749Y-33904477D01*
X115215767Y-33902154D01*
X115215762Y-33902151D01*
X115018225Y-33810039D01*
X115018224Y-33810039D01*
X115013243Y-33807716D01*
X115007935Y-33806294D01*
X115007933Y-33806293D01*
X114797402Y-33749881D01*
X114797400Y-33749881D01*
X114792087Y-33748457D01*
X114564000Y-33728502D01*
X114335913Y-33748457D01*
X114330600Y-33749881D01*
X114330598Y-33749881D01*
X114120067Y-33806293D01*
X114120065Y-33806294D01*
X114114757Y-33807716D01*
X114109776Y-33810039D01*
X114109775Y-33810039D01*
X113912238Y-33902151D01*
X113912233Y-33902154D01*
X113907251Y-33904477D01*
X113851888Y-33943243D01*
X113724211Y-34032643D01*
X113724208Y-34032645D01*
X113719700Y-34035802D01*
X113557802Y-34197700D01*
X113426477Y-34385251D01*
X113424154Y-34390233D01*
X113424151Y-34390238D01*
X113408195Y-34424457D01*
X113361278Y-34477742D01*
X113293001Y-34497203D01*
X113225041Y-34476661D01*
X113179805Y-34424457D01*
X113163849Y-34390238D01*
X113163846Y-34390233D01*
X113161523Y-34385251D01*
X113030198Y-34197700D01*
X112868300Y-34035802D01*
X112863792Y-34032645D01*
X112863789Y-34032643D01*
X112786229Y-33978335D01*
X112741901Y-33922878D01*
X112732500Y-33875122D01*
X112732500Y-33092500D01*
X112752502Y-33024379D01*
X112806158Y-32977886D01*
X112858500Y-32966500D01*
X113529238Y-32966500D01*
X113529898Y-32966502D01*
X113620031Y-32966974D01*
X113656619Y-32958190D01*
X113670895Y-32955622D01*
X113700700Y-32952015D01*
X113700702Y-32952015D01*
X113708242Y-32951102D01*
X113715349Y-32948417D01*
X113715351Y-32948416D01*
X113739330Y-32939355D01*
X113754457Y-32934701D01*
X113779394Y-32928715D01*
X113779398Y-32928713D01*
X113786777Y-32926942D01*
X113820219Y-32909682D01*
X113833461Y-32903786D01*
X113861549Y-32893173D01*
X113861552Y-32893171D01*
X113868656Y-32890487D01*
X113896056Y-32871655D01*
X113909613Y-32863541D01*
X113939161Y-32848291D01*
X113944882Y-32843300D01*
X113944888Y-32843296D01*
X113967513Y-32823558D01*
X113978979Y-32814664D01*
X114003720Y-32797661D01*
X114003725Y-32797656D01*
X114009981Y-32793357D01*
X114032095Y-32768537D01*
X114043338Y-32757412D01*
X114062659Y-32740557D01*
X114062662Y-32740553D01*
X114068385Y-32735561D01*
X114072753Y-32729347D01*
X114072755Y-32729344D01*
X114090021Y-32704778D01*
X114099028Y-32693414D01*
X114108578Y-32682694D01*
X114124057Y-32665321D01*
X114127609Y-32658612D01*
X114127612Y-32658608D01*
X114139611Y-32635946D01*
X114147876Y-32622459D01*
X114162619Y-32601481D01*
X114162621Y-32601478D01*
X114166990Y-32595261D01*
X114169751Y-32588180D01*
X114169753Y-32588176D01*
X114180657Y-32560210D01*
X114186694Y-32547023D01*
X114200746Y-32520482D01*
X114200747Y-32520480D01*
X114204300Y-32513769D01*
X114206149Y-32506409D01*
X114206151Y-32506403D01*
X114212397Y-32481534D01*
X114217209Y-32466457D01*
X114226521Y-32442573D01*
X114226521Y-32442572D01*
X114229282Y-32435491D01*
X114234192Y-32398193D01*
X114236910Y-32383941D01*
X114244225Y-32354818D01*
X114246076Y-32347451D01*
X114246287Y-32307324D01*
X114246335Y-32305965D01*
X114246500Y-32304706D01*
X114246500Y-32266762D01*
X114246502Y-32266102D01*
X114246951Y-32180372D01*
X114246951Y-32180371D01*
X114246974Y-32175969D01*
X114246610Y-32174452D01*
X114246500Y-32172550D01*
X114246500Y-32034062D01*
X116372493Y-32034062D01*
X116381789Y-32046077D01*
X116432994Y-32081931D01*
X116442489Y-32087414D01*
X116639947Y-32179490D01*
X116650239Y-32183236D01*
X116860688Y-32239625D01*
X116871481Y-32241528D01*
X117088525Y-32260517D01*
X117099475Y-32260517D01*
X117316519Y-32241528D01*
X117327312Y-32239625D01*
X117537761Y-32183236D01*
X117548053Y-32179490D01*
X117745511Y-32087414D01*
X117755006Y-32081931D01*
X117807048Y-32045491D01*
X117815424Y-32035012D01*
X117808356Y-32021566D01*
X117106812Y-31320022D01*
X117092868Y-31312408D01*
X117091035Y-31312539D01*
X117084420Y-31316790D01*
X116378923Y-32022287D01*
X116372493Y-32034062D01*
X114246500Y-32034062D01*
X114246500Y-30953475D01*
X115781483Y-30953475D01*
X115800472Y-31170519D01*
X115802375Y-31181312D01*
X115858764Y-31391761D01*
X115862510Y-31402053D01*
X115954586Y-31599511D01*
X115960069Y-31609006D01*
X115996509Y-31661048D01*
X116006988Y-31669424D01*
X116020434Y-31662356D01*
X116721978Y-30960812D01*
X116728356Y-30949132D01*
X117458408Y-30949132D01*
X117458539Y-30950965D01*
X117462790Y-30957580D01*
X118168287Y-31663077D01*
X118180062Y-31669507D01*
X118192077Y-31660211D01*
X118227931Y-31609006D01*
X118233414Y-31599511D01*
X118325490Y-31402053D01*
X118329236Y-31391761D01*
X118385625Y-31181312D01*
X118387528Y-31170519D01*
X118406517Y-30953475D01*
X118406517Y-30942525D01*
X118387528Y-30725481D01*
X118385625Y-30714688D01*
X118329236Y-30504239D01*
X118325490Y-30493947D01*
X118233414Y-30296489D01*
X118227931Y-30286994D01*
X118191491Y-30234952D01*
X118181012Y-30226576D01*
X118167566Y-30233644D01*
X117466022Y-30935188D01*
X117458408Y-30949132D01*
X116728356Y-30949132D01*
X116729592Y-30946868D01*
X116729461Y-30945035D01*
X116725210Y-30938420D01*
X116019713Y-30232923D01*
X116007938Y-30226493D01*
X115995923Y-30235789D01*
X115960069Y-30286994D01*
X115954586Y-30296489D01*
X115862510Y-30493947D01*
X115858764Y-30504239D01*
X115802375Y-30714688D01*
X115800472Y-30725481D01*
X115781483Y-30942525D01*
X115781483Y-30953475D01*
X114246500Y-30953475D01*
X114246500Y-29860988D01*
X116372576Y-29860988D01*
X116379644Y-29874434D01*
X117081188Y-30575978D01*
X117095132Y-30583592D01*
X117096965Y-30583461D01*
X117103580Y-30579210D01*
X117809077Y-29873713D01*
X117815507Y-29861938D01*
X117806211Y-29849923D01*
X117755006Y-29814069D01*
X117745511Y-29808586D01*
X117548053Y-29716510D01*
X117537761Y-29712764D01*
X117327312Y-29656375D01*
X117316519Y-29654472D01*
X117099475Y-29635483D01*
X117088525Y-29635483D01*
X116871481Y-29654472D01*
X116860688Y-29656375D01*
X116650239Y-29712764D01*
X116639947Y-29716510D01*
X116442489Y-29808586D01*
X116432994Y-29814069D01*
X116380952Y-29850509D01*
X116372576Y-29860988D01*
X114246500Y-29860988D01*
X114246500Y-25948000D01*
X115780502Y-25948000D01*
X115800457Y-26176087D01*
X115801881Y-26181400D01*
X115801881Y-26181402D01*
X115857799Y-26390087D01*
X115859716Y-26397243D01*
X115862039Y-26402224D01*
X115862039Y-26402225D01*
X115954151Y-26599762D01*
X115954154Y-26599767D01*
X115956477Y-26604749D01*
X116087802Y-26792300D01*
X116249700Y-26954198D01*
X116254208Y-26957355D01*
X116254211Y-26957357D01*
X116317207Y-27001467D01*
X116437251Y-27085523D01*
X116442233Y-27087846D01*
X116442238Y-27087849D01*
X116639775Y-27179961D01*
X116644757Y-27182284D01*
X116650065Y-27183706D01*
X116650067Y-27183707D01*
X116860598Y-27240119D01*
X116860600Y-27240119D01*
X116865913Y-27241543D01*
X117094000Y-27261498D01*
X117322087Y-27241543D01*
X117327400Y-27240119D01*
X117327402Y-27240119D01*
X117537933Y-27183707D01*
X117537935Y-27183706D01*
X117543243Y-27182284D01*
X117548225Y-27179961D01*
X117745762Y-27087849D01*
X117745767Y-27087846D01*
X117750749Y-27085523D01*
X117870793Y-27001467D01*
X117933789Y-26957357D01*
X117933792Y-26957355D01*
X117938300Y-26954198D01*
X118100198Y-26792300D01*
X118231523Y-26604749D01*
X118233846Y-26599767D01*
X118233849Y-26599762D01*
X118325961Y-26402225D01*
X118325961Y-26402224D01*
X118328284Y-26397243D01*
X118330202Y-26390087D01*
X118386119Y-26181402D01*
X118386119Y-26181400D01*
X118387543Y-26176087D01*
X118407498Y-25948000D01*
X118387543Y-25719913D01*
X118331428Y-25510489D01*
X118329707Y-25504067D01*
X118329706Y-25504065D01*
X118328284Y-25498757D01*
X118245960Y-25322211D01*
X118233849Y-25296238D01*
X118233846Y-25296233D01*
X118231523Y-25291251D01*
X118134738Y-25153028D01*
X118103357Y-25108211D01*
X118103355Y-25108208D01*
X118100198Y-25103700D01*
X117938300Y-24941802D01*
X117933792Y-24938645D01*
X117933789Y-24938643D01*
X117771487Y-24824998D01*
X117750749Y-24810477D01*
X117745767Y-24808154D01*
X117745762Y-24808151D01*
X117548225Y-24716039D01*
X117548224Y-24716039D01*
X117543243Y-24713716D01*
X117537935Y-24712294D01*
X117537933Y-24712293D01*
X117327402Y-24655881D01*
X117327400Y-24655881D01*
X117322087Y-24654457D01*
X117094000Y-24634502D01*
X116865913Y-24654457D01*
X116860600Y-24655881D01*
X116860598Y-24655881D01*
X116650067Y-24712293D01*
X116650065Y-24712294D01*
X116644757Y-24713716D01*
X116639776Y-24716039D01*
X116639775Y-24716039D01*
X116442238Y-24808151D01*
X116442233Y-24808154D01*
X116437251Y-24810477D01*
X116416513Y-24824998D01*
X116254211Y-24938643D01*
X116254208Y-24938645D01*
X116249700Y-24941802D01*
X116087802Y-25103700D01*
X116084645Y-25108208D01*
X116084643Y-25108211D01*
X116053262Y-25153028D01*
X115956477Y-25291251D01*
X115954154Y-25296233D01*
X115954151Y-25296238D01*
X115942040Y-25322211D01*
X115859716Y-25498757D01*
X115858294Y-25504065D01*
X115858293Y-25504067D01*
X115856572Y-25510489D01*
X115800457Y-25719913D01*
X115780502Y-25948000D01*
X114246500Y-25948000D01*
X114246500Y-23622000D01*
X123410502Y-23622000D01*
X123430457Y-23850087D01*
X123489716Y-24071243D01*
X123492039Y-24076224D01*
X123492039Y-24076225D01*
X123584151Y-24273762D01*
X123584154Y-24273767D01*
X123586477Y-24278749D01*
X123717802Y-24466300D01*
X123879700Y-24628198D01*
X123884208Y-24631355D01*
X123884211Y-24631357D01*
X123919235Y-24655881D01*
X124067251Y-24759523D01*
X124072233Y-24761846D01*
X124072238Y-24761849D01*
X124107049Y-24778081D01*
X124160334Y-24824998D01*
X124179795Y-24893275D01*
X124159253Y-24961235D01*
X124107049Y-25006471D01*
X124072489Y-25022586D01*
X124062993Y-25028069D01*
X123884533Y-25153028D01*
X123876125Y-25160084D01*
X123722084Y-25314125D01*
X123715028Y-25322533D01*
X123590069Y-25500993D01*
X123584586Y-25510489D01*
X123492510Y-25707947D01*
X123488764Y-25718239D01*
X123442606Y-25890503D01*
X123442942Y-25904599D01*
X123450884Y-25908000D01*
X125991967Y-25908000D01*
X126005498Y-25904027D01*
X126006727Y-25895478D01*
X125959236Y-25718239D01*
X125955490Y-25707947D01*
X125863414Y-25510489D01*
X125857931Y-25500993D01*
X125732972Y-25322533D01*
X125725916Y-25314125D01*
X125571875Y-25160084D01*
X125563467Y-25153028D01*
X125385007Y-25028069D01*
X125375511Y-25022586D01*
X125340951Y-25006471D01*
X125287666Y-24959554D01*
X125268205Y-24891277D01*
X125288747Y-24823317D01*
X125340951Y-24778081D01*
X125375762Y-24761849D01*
X125375767Y-24761846D01*
X125380749Y-24759523D01*
X125528765Y-24655881D01*
X125563789Y-24631357D01*
X125563792Y-24631355D01*
X125568300Y-24628198D01*
X125730198Y-24466300D01*
X125861523Y-24278749D01*
X125863846Y-24273767D01*
X125863849Y-24273762D01*
X125955961Y-24076225D01*
X125955961Y-24076224D01*
X125958284Y-24071243D01*
X126017543Y-23850087D01*
X126037498Y-23622000D01*
X126017543Y-23393913D01*
X125958284Y-23172757D01*
X125955961Y-23167775D01*
X125863849Y-22970238D01*
X125863846Y-22970233D01*
X125861523Y-22965251D01*
X125730198Y-22777700D01*
X125568300Y-22615802D01*
X125563792Y-22612645D01*
X125563789Y-22612643D01*
X125485611Y-22557902D01*
X125380749Y-22484477D01*
X125375767Y-22482154D01*
X125375762Y-22482151D01*
X125341543Y-22466195D01*
X125288258Y-22419278D01*
X125268797Y-22351001D01*
X125289339Y-22283041D01*
X125341543Y-22237805D01*
X125375762Y-22221849D01*
X125375767Y-22221846D01*
X125380749Y-22219523D01*
X125485611Y-22146098D01*
X125563789Y-22091357D01*
X125563792Y-22091355D01*
X125568300Y-22088198D01*
X125730198Y-21926300D01*
X125861523Y-21738749D01*
X125863846Y-21733767D01*
X125863849Y-21733762D01*
X125955961Y-21536225D01*
X125955961Y-21536224D01*
X125958284Y-21531243D01*
X126017543Y-21310087D01*
X126037498Y-21082000D01*
X126017543Y-20853913D01*
X125958284Y-20632757D01*
X125863966Y-20430489D01*
X125863849Y-20430238D01*
X125863846Y-20430233D01*
X125861523Y-20425251D01*
X125730198Y-20237700D01*
X125568300Y-20075802D01*
X125563789Y-20072643D01*
X125559576Y-20069108D01*
X125560527Y-20067974D01*
X125520529Y-20017929D01*
X125513224Y-19947310D01*
X125545258Y-19883951D01*
X125606462Y-19847970D01*
X125623517Y-19844918D01*
X125634316Y-19843745D01*
X125770705Y-19792615D01*
X125887261Y-19705261D01*
X125974615Y-19588705D01*
X126025745Y-19452316D01*
X126032500Y-19390134D01*
X126032500Y-18542000D01*
X138650502Y-18542000D01*
X138670457Y-18770087D01*
X138671881Y-18775400D01*
X138671881Y-18775402D01*
X138708355Y-18911522D01*
X138729716Y-18991243D01*
X138732039Y-18996224D01*
X138732039Y-18996225D01*
X138824151Y-19193762D01*
X138824154Y-19193767D01*
X138826477Y-19198749D01*
X138897399Y-19300036D01*
X138953741Y-19380500D01*
X138957802Y-19386300D01*
X139119700Y-19548198D01*
X139124208Y-19551355D01*
X139124211Y-19551357D01*
X139165542Y-19580297D01*
X139307251Y-19679523D01*
X139312233Y-19681846D01*
X139312238Y-19681849D01*
X139347049Y-19698081D01*
X139400334Y-19744998D01*
X139419795Y-19813275D01*
X139399253Y-19881235D01*
X139347049Y-19926471D01*
X139312489Y-19942586D01*
X139302993Y-19948069D01*
X139124533Y-20073028D01*
X139116125Y-20080084D01*
X138962084Y-20234125D01*
X138955028Y-20242533D01*
X138830069Y-20420993D01*
X138824586Y-20430489D01*
X138732510Y-20627947D01*
X138728764Y-20638239D01*
X138682606Y-20810503D01*
X138682942Y-20824599D01*
X138690884Y-20828000D01*
X141231967Y-20828000D01*
X141245498Y-20824027D01*
X141246727Y-20815478D01*
X141199236Y-20638239D01*
X141195490Y-20627947D01*
X141103414Y-20430489D01*
X141097931Y-20420993D01*
X140972972Y-20242533D01*
X140965916Y-20234125D01*
X140811875Y-20080084D01*
X140803467Y-20073028D01*
X140625007Y-19948069D01*
X140615511Y-19942586D01*
X140580951Y-19926471D01*
X140527666Y-19879554D01*
X140508205Y-19811277D01*
X140528747Y-19743317D01*
X140580951Y-19698081D01*
X140615762Y-19681849D01*
X140615767Y-19681846D01*
X140620749Y-19679523D01*
X140762458Y-19580297D01*
X140803789Y-19551357D01*
X140803792Y-19551355D01*
X140808300Y-19548198D01*
X140970198Y-19386300D01*
X140974260Y-19380500D01*
X141030601Y-19300036D01*
X141101523Y-19198749D01*
X141103846Y-19193767D01*
X141103849Y-19193762D01*
X141195961Y-18996225D01*
X141195961Y-18996224D01*
X141198284Y-18991243D01*
X141219646Y-18911522D01*
X141256119Y-18775402D01*
X141256119Y-18775400D01*
X141257543Y-18770087D01*
X141277498Y-18542000D01*
X141257543Y-18313913D01*
X141256119Y-18308598D01*
X141199707Y-18098067D01*
X141199706Y-18098065D01*
X141198284Y-18092757D01*
X141195961Y-18087775D01*
X141103849Y-17890238D01*
X141103846Y-17890233D01*
X141101523Y-17885251D01*
X140979795Y-17711406D01*
X140973357Y-17702211D01*
X140973355Y-17702208D01*
X140970198Y-17697700D01*
X140808300Y-17535802D01*
X140803792Y-17532645D01*
X140803789Y-17532643D01*
X140658679Y-17431036D01*
X140621072Y-17404703D01*
X144194743Y-17404703D01*
X144232268Y-17689734D01*
X144308129Y-17967036D01*
X144420923Y-18231476D01*
X144568561Y-18478161D01*
X144748313Y-18702528D01*
X144956851Y-18900423D01*
X145190317Y-19068186D01*
X145194112Y-19070195D01*
X145194113Y-19070196D01*
X145215869Y-19081715D01*
X145444392Y-19202712D01*
X145714373Y-19301511D01*
X145995264Y-19362755D01*
X146023841Y-19365004D01*
X146218282Y-19380307D01*
X146218291Y-19380307D01*
X146220739Y-19380500D01*
X146376271Y-19380500D01*
X146378407Y-19380354D01*
X146378418Y-19380354D01*
X146586548Y-19366165D01*
X146586554Y-19366164D01*
X146590825Y-19365873D01*
X146595020Y-19365004D01*
X146595022Y-19365004D01*
X146731583Y-19336724D01*
X146872342Y-19307574D01*
X147143343Y-19211607D01*
X147398812Y-19079750D01*
X147402313Y-19077289D01*
X147402317Y-19077287D01*
X147532300Y-18985933D01*
X147634023Y-18914441D01*
X147789366Y-18770087D01*
X147841479Y-18721661D01*
X147841481Y-18721658D01*
X147844622Y-18718740D01*
X148026713Y-18496268D01*
X148176927Y-18251142D01*
X148292483Y-17987898D01*
X148371244Y-17711406D01*
X148411751Y-17426784D01*
X148411845Y-17408951D01*
X148413235Y-17143583D01*
X148413235Y-17143576D01*
X148413257Y-17139297D01*
X148400388Y-17041543D01*
X148376292Y-16858522D01*
X148375732Y-16854266D01*
X148299871Y-16576964D01*
X148252498Y-16465901D01*
X148188763Y-16316476D01*
X148188761Y-16316472D01*
X148187077Y-16312524D01*
X148039439Y-16065839D01*
X147859687Y-15841472D01*
X147682750Y-15673565D01*
X147654258Y-15646527D01*
X147654255Y-15646525D01*
X147651149Y-15643577D01*
X147417683Y-15475814D01*
X147395843Y-15464250D01*
X147320675Y-15424451D01*
X147163608Y-15341288D01*
X146971452Y-15270969D01*
X146897658Y-15243964D01*
X146897656Y-15243963D01*
X146893627Y-15242489D01*
X146612736Y-15181245D01*
X146581685Y-15178801D01*
X146389718Y-15163693D01*
X146389709Y-15163693D01*
X146387261Y-15163500D01*
X146231729Y-15163500D01*
X146229593Y-15163646D01*
X146229582Y-15163646D01*
X146021452Y-15177835D01*
X146021446Y-15177836D01*
X146017175Y-15178127D01*
X146012980Y-15178996D01*
X146012978Y-15178996D01*
X145951126Y-15191805D01*
X145735658Y-15236426D01*
X145464657Y-15332393D01*
X145209188Y-15464250D01*
X145205687Y-15466711D01*
X145205683Y-15466713D01*
X145122190Y-15525393D01*
X144973977Y-15629559D01*
X144958892Y-15643577D01*
X144837091Y-15756762D01*
X144763378Y-15825260D01*
X144581287Y-16047732D01*
X144431073Y-16292858D01*
X144315517Y-16556102D01*
X144236756Y-16832594D01*
X144196249Y-17117216D01*
X144196227Y-17121505D01*
X144196226Y-17121512D01*
X144194907Y-17373358D01*
X144194743Y-17404703D01*
X140621072Y-17404703D01*
X140620749Y-17404477D01*
X140615767Y-17402154D01*
X140615762Y-17402151D01*
X140418225Y-17310039D01*
X140418224Y-17310039D01*
X140413243Y-17307716D01*
X140407935Y-17306294D01*
X140407933Y-17306293D01*
X140197402Y-17249881D01*
X140197400Y-17249881D01*
X140192087Y-17248457D01*
X139964000Y-17228502D01*
X139735913Y-17248457D01*
X139730600Y-17249881D01*
X139730598Y-17249881D01*
X139520067Y-17306293D01*
X139520065Y-17306294D01*
X139514757Y-17307716D01*
X139509776Y-17310039D01*
X139509775Y-17310039D01*
X139312238Y-17402151D01*
X139312233Y-17402154D01*
X139307251Y-17404477D01*
X139269321Y-17431036D01*
X139124211Y-17532643D01*
X139124208Y-17532645D01*
X139119700Y-17535802D01*
X138957802Y-17697700D01*
X138954645Y-17702208D01*
X138954643Y-17702211D01*
X138948205Y-17711406D01*
X138826477Y-17885251D01*
X138824154Y-17890233D01*
X138824151Y-17890238D01*
X138732039Y-18087775D01*
X138729716Y-18092757D01*
X138728294Y-18098065D01*
X138728293Y-18098067D01*
X138671881Y-18308598D01*
X138670457Y-18313913D01*
X138650502Y-18542000D01*
X126032500Y-18542000D01*
X126032500Y-17693866D01*
X126025745Y-17631684D01*
X125974615Y-17495295D01*
X125887261Y-17378739D01*
X125770705Y-17291385D01*
X125634316Y-17240255D01*
X125572134Y-17233500D01*
X123875866Y-17233500D01*
X123813684Y-17240255D01*
X123677295Y-17291385D01*
X123560739Y-17378739D01*
X123473385Y-17495295D01*
X123422255Y-17631684D01*
X123415500Y-17693866D01*
X123415500Y-19390134D01*
X123422255Y-19452316D01*
X123473385Y-19588705D01*
X123560739Y-19705261D01*
X123677295Y-19792615D01*
X123813684Y-19843745D01*
X123824474Y-19844917D01*
X123826606Y-19845803D01*
X123829222Y-19846425D01*
X123829121Y-19846848D01*
X123890035Y-19872155D01*
X123930463Y-19930517D01*
X123932922Y-20001471D01*
X123896629Y-20062490D01*
X123887969Y-20069489D01*
X123884207Y-20072646D01*
X123879700Y-20075802D01*
X123717802Y-20237700D01*
X123586477Y-20425251D01*
X123584154Y-20430233D01*
X123584151Y-20430238D01*
X123584034Y-20430489D01*
X123489716Y-20632757D01*
X123430457Y-20853913D01*
X123410502Y-21082000D01*
X123430457Y-21310087D01*
X123489716Y-21531243D01*
X123492039Y-21536224D01*
X123492039Y-21536225D01*
X123584151Y-21733762D01*
X123584154Y-21733767D01*
X123586477Y-21738749D01*
X123717802Y-21926300D01*
X123879700Y-22088198D01*
X123884208Y-22091355D01*
X123884211Y-22091357D01*
X123962389Y-22146098D01*
X124067251Y-22219523D01*
X124072233Y-22221846D01*
X124072238Y-22221849D01*
X124106457Y-22237805D01*
X124159742Y-22284722D01*
X124179203Y-22352999D01*
X124158661Y-22420959D01*
X124106457Y-22466195D01*
X124072238Y-22482151D01*
X124072233Y-22482154D01*
X124067251Y-22484477D01*
X123962389Y-22557902D01*
X123884211Y-22612643D01*
X123884208Y-22612645D01*
X123879700Y-22615802D01*
X123717802Y-22777700D01*
X123586477Y-22965251D01*
X123584154Y-22970233D01*
X123584151Y-22970238D01*
X123492039Y-23167775D01*
X123489716Y-23172757D01*
X123430457Y-23393913D01*
X123410502Y-23622000D01*
X114246500Y-23622000D01*
X114246500Y-21590000D01*
X118828502Y-21590000D01*
X118848457Y-21818087D01*
X118907716Y-22039243D01*
X118910039Y-22044224D01*
X118910039Y-22044225D01*
X119002151Y-22241762D01*
X119002154Y-22241767D01*
X119004477Y-22246749D01*
X119007634Y-22251257D01*
X119126461Y-22420959D01*
X119135802Y-22434300D01*
X119297700Y-22596198D01*
X119302208Y-22599355D01*
X119302211Y-22599357D01*
X119380389Y-22654098D01*
X119485251Y-22727523D01*
X119490233Y-22729846D01*
X119490238Y-22729849D01*
X119687775Y-22821961D01*
X119692757Y-22824284D01*
X119698065Y-22825706D01*
X119698067Y-22825707D01*
X119908598Y-22882119D01*
X119908600Y-22882119D01*
X119913913Y-22883543D01*
X120142000Y-22903498D01*
X120370087Y-22883543D01*
X120375400Y-22882119D01*
X120375402Y-22882119D01*
X120585933Y-22825707D01*
X120585935Y-22825706D01*
X120591243Y-22824284D01*
X120596225Y-22821961D01*
X120793762Y-22729849D01*
X120793767Y-22729846D01*
X120798749Y-22727523D01*
X120903611Y-22654098D01*
X120981789Y-22599357D01*
X120981792Y-22599355D01*
X120986300Y-22596198D01*
X121148198Y-22434300D01*
X121157540Y-22420959D01*
X121276366Y-22251257D01*
X121279523Y-22246749D01*
X121281846Y-22241767D01*
X121281849Y-22241762D01*
X121373961Y-22044225D01*
X121373961Y-22044224D01*
X121376284Y-22039243D01*
X121435543Y-21818087D01*
X121455498Y-21590000D01*
X121435543Y-21361913D01*
X121376284Y-21140757D01*
X121373961Y-21135775D01*
X121281849Y-20938238D01*
X121281846Y-20938233D01*
X121279523Y-20933251D01*
X121148198Y-20745700D01*
X120986300Y-20583802D01*
X120981792Y-20580645D01*
X120981789Y-20580643D01*
X120903611Y-20525902D01*
X120798749Y-20452477D01*
X120793767Y-20450154D01*
X120793762Y-20450151D01*
X120596225Y-20358039D01*
X120596224Y-20358039D01*
X120591243Y-20355716D01*
X120585935Y-20354294D01*
X120585933Y-20354293D01*
X120375402Y-20297881D01*
X120375400Y-20297881D01*
X120370087Y-20296457D01*
X120142000Y-20276502D01*
X119913913Y-20296457D01*
X119908600Y-20297881D01*
X119908598Y-20297881D01*
X119698067Y-20354293D01*
X119698065Y-20354294D01*
X119692757Y-20355716D01*
X119687776Y-20358039D01*
X119687775Y-20358039D01*
X119490238Y-20450151D01*
X119490233Y-20450154D01*
X119485251Y-20452477D01*
X119380389Y-20525902D01*
X119302211Y-20580643D01*
X119302208Y-20580645D01*
X119297700Y-20583802D01*
X119135802Y-20745700D01*
X119004477Y-20933251D01*
X119002154Y-20938233D01*
X119002151Y-20938238D01*
X118910039Y-21135775D01*
X118907716Y-21140757D01*
X118848457Y-21361913D01*
X118828502Y-21590000D01*
X114246500Y-21590000D01*
X114246500Y-15756762D01*
X114246502Y-15756102D01*
X114246544Y-15748000D01*
X118828502Y-15748000D01*
X118848457Y-15976087D01*
X118907716Y-16197243D01*
X118910039Y-16202224D01*
X118910039Y-16202225D01*
X119002151Y-16399762D01*
X119002154Y-16399767D01*
X119004477Y-16404749D01*
X119007634Y-16409257D01*
X119127962Y-16581103D01*
X119135802Y-16592300D01*
X119297700Y-16754198D01*
X119302208Y-16757355D01*
X119302211Y-16757357D01*
X119380389Y-16812098D01*
X119485251Y-16885523D01*
X119490233Y-16887846D01*
X119490238Y-16887849D01*
X119687775Y-16979961D01*
X119692757Y-16982284D01*
X119698065Y-16983706D01*
X119698067Y-16983707D01*
X119908598Y-17040119D01*
X119908600Y-17040119D01*
X119913913Y-17041543D01*
X120142000Y-17061498D01*
X120370087Y-17041543D01*
X120375400Y-17040119D01*
X120375402Y-17040119D01*
X120585933Y-16983707D01*
X120585935Y-16983706D01*
X120591243Y-16982284D01*
X120596225Y-16979961D01*
X120793762Y-16887849D01*
X120793767Y-16887846D01*
X120798749Y-16885523D01*
X120903611Y-16812098D01*
X120981789Y-16757357D01*
X120981792Y-16757355D01*
X120986300Y-16754198D01*
X121148198Y-16592300D01*
X121156039Y-16581103D01*
X121276366Y-16409257D01*
X121279523Y-16404749D01*
X121281846Y-16399767D01*
X121281849Y-16399762D01*
X121373961Y-16202225D01*
X121373961Y-16202224D01*
X121376284Y-16197243D01*
X121435543Y-15976087D01*
X121455498Y-15748000D01*
X121435543Y-15519913D01*
X121434119Y-15514598D01*
X121377707Y-15304067D01*
X121377706Y-15304065D01*
X121376284Y-15298757D01*
X121365681Y-15276019D01*
X121281849Y-15096238D01*
X121281846Y-15096233D01*
X121279523Y-15091251D01*
X121148198Y-14903700D01*
X120986300Y-14741802D01*
X120981792Y-14738645D01*
X120981789Y-14738643D01*
X120903611Y-14683902D01*
X120798749Y-14610477D01*
X120793767Y-14608154D01*
X120793762Y-14608151D01*
X120596225Y-14516039D01*
X120596224Y-14516039D01*
X120591243Y-14513716D01*
X120585935Y-14512294D01*
X120585933Y-14512293D01*
X120375402Y-14455881D01*
X120375400Y-14455881D01*
X120370087Y-14454457D01*
X120142000Y-14434502D01*
X119913913Y-14454457D01*
X119908600Y-14455881D01*
X119908598Y-14455881D01*
X119698067Y-14512293D01*
X119698065Y-14512294D01*
X119692757Y-14513716D01*
X119687776Y-14516039D01*
X119687775Y-14516039D01*
X119490238Y-14608151D01*
X119490233Y-14608154D01*
X119485251Y-14610477D01*
X119380389Y-14683902D01*
X119302211Y-14738643D01*
X119302208Y-14738645D01*
X119297700Y-14741802D01*
X119135802Y-14903700D01*
X119004477Y-15091251D01*
X119002154Y-15096233D01*
X119002151Y-15096238D01*
X118918319Y-15276019D01*
X118907716Y-15298757D01*
X118906294Y-15304065D01*
X118906293Y-15304067D01*
X118849881Y-15514598D01*
X118848457Y-15519913D01*
X118828502Y-15748000D01*
X114246544Y-15748000D01*
X114246934Y-15673565D01*
X114246974Y-15665969D01*
X114238190Y-15629379D01*
X114235622Y-15615105D01*
X114232015Y-15585300D01*
X114232015Y-15585298D01*
X114231102Y-15577758D01*
X114219355Y-15546670D01*
X114214701Y-15531543D01*
X114208715Y-15506606D01*
X114208713Y-15506602D01*
X114206942Y-15499223D01*
X114189682Y-15465781D01*
X114183786Y-15452539D01*
X114173173Y-15424451D01*
X114173171Y-15424448D01*
X114170487Y-15417344D01*
X114151655Y-15389944D01*
X114143541Y-15376387D01*
X114128291Y-15346839D01*
X114123300Y-15341118D01*
X114123296Y-15341112D01*
X114103558Y-15318487D01*
X114094664Y-15307021D01*
X114077661Y-15282280D01*
X114077656Y-15282275D01*
X114073357Y-15276019D01*
X114048537Y-15253905D01*
X114037412Y-15242662D01*
X114020557Y-15223341D01*
X114020553Y-15223338D01*
X114015561Y-15217615D01*
X114009347Y-15213247D01*
X114009344Y-15213245D01*
X113984778Y-15195979D01*
X113973414Y-15186972D01*
X113962694Y-15177422D01*
X113945321Y-15161943D01*
X113938612Y-15158391D01*
X113938608Y-15158388D01*
X113915946Y-15146389D01*
X113902459Y-15138124D01*
X113881481Y-15123381D01*
X113881478Y-15123379D01*
X113875261Y-15119010D01*
X113868180Y-15116249D01*
X113868176Y-15116247D01*
X113840210Y-15105343D01*
X113827023Y-15099306D01*
X113800482Y-15085254D01*
X113800480Y-15085253D01*
X113793769Y-15081700D01*
X113786409Y-15079851D01*
X113786403Y-15079849D01*
X113761534Y-15073603D01*
X113746457Y-15068791D01*
X113722573Y-15059479D01*
X113722572Y-15059479D01*
X113715491Y-15056718D01*
X113707961Y-15055727D01*
X113707958Y-15055726D01*
X113678193Y-15051808D01*
X113663941Y-15049090D01*
X113659169Y-15047891D01*
X113627451Y-15039924D01*
X113619853Y-15039884D01*
X113619852Y-15039884D01*
X113613239Y-15039849D01*
X113587324Y-15039713D01*
X113585965Y-15039665D01*
X113584706Y-15039500D01*
X113546762Y-15039500D01*
X113546102Y-15039498D01*
X113460372Y-15039049D01*
X113460371Y-15039049D01*
X113455969Y-15039026D01*
X113454452Y-15039390D01*
X113452550Y-15039500D01*
X108608878Y-15039500D01*
X108540757Y-15019498D01*
X108505665Y-14985771D01*
X108451357Y-14908211D01*
X108451355Y-14908208D01*
X108448198Y-14903700D01*
X108286300Y-14741802D01*
X108281792Y-14738645D01*
X108281789Y-14738643D01*
X108203611Y-14683902D01*
X108098749Y-14610477D01*
X108093767Y-14608154D01*
X108093762Y-14608151D01*
X107896225Y-14516039D01*
X107896224Y-14516039D01*
X107891243Y-14513716D01*
X107885935Y-14512294D01*
X107885933Y-14512293D01*
X107675402Y-14455881D01*
X107675400Y-14455881D01*
X107670087Y-14454457D01*
X107442000Y-14434502D01*
X107213913Y-14454457D01*
X107208600Y-14455881D01*
X107208598Y-14455881D01*
X106998067Y-14512293D01*
X106998065Y-14512294D01*
X106992757Y-14513716D01*
X106987776Y-14516039D01*
X106987775Y-14516039D01*
X106790238Y-14608151D01*
X106790233Y-14608154D01*
X106785251Y-14610477D01*
X106680389Y-14683902D01*
X106602211Y-14738643D01*
X106602208Y-14738645D01*
X106597700Y-14741802D01*
X106435802Y-14903700D01*
X106304477Y-15091251D01*
X106302154Y-15096233D01*
X106302151Y-15096238D01*
X106218319Y-15276019D01*
X106207716Y-15298757D01*
X106206294Y-15304065D01*
X106206293Y-15304067D01*
X106149881Y-15514598D01*
X106148457Y-15519913D01*
X106128502Y-15748000D01*
X102549188Y-15748000D01*
X102470750Y-15673565D01*
X102442258Y-15646527D01*
X102442255Y-15646525D01*
X102439149Y-15643577D01*
X102205683Y-15475814D01*
X102183843Y-15464250D01*
X102108675Y-15424451D01*
X101951608Y-15341288D01*
X101759452Y-15270969D01*
X101685658Y-15243964D01*
X101685656Y-15243963D01*
X101681627Y-15242489D01*
X101400736Y-15181245D01*
X101369685Y-15178801D01*
X101177718Y-15163693D01*
X101177709Y-15163693D01*
X101175261Y-15163500D01*
X101019729Y-15163500D01*
X101017593Y-15163646D01*
X101017582Y-15163646D01*
X100809452Y-15177835D01*
X100809446Y-15177836D01*
X100805175Y-15178127D01*
X100800980Y-15178996D01*
X100800978Y-15178996D01*
X100739126Y-15191805D01*
X100523658Y-15236426D01*
X100252657Y-15332393D01*
X99997188Y-15464250D01*
X99993687Y-15466711D01*
X99993683Y-15466713D01*
X99910190Y-15525393D01*
X99761977Y-15629559D01*
X99746892Y-15643577D01*
X99625091Y-15756762D01*
X99551378Y-15825260D01*
X99369287Y-16047732D01*
X99219073Y-16292858D01*
X99103517Y-16556102D01*
X99024756Y-16832594D01*
X98984249Y-17117216D01*
X98984227Y-17121505D01*
X98984226Y-17121512D01*
X98982907Y-17373358D01*
X98982743Y-17404703D01*
X97028000Y-17404703D01*
X97028000Y-13334000D01*
X97048002Y-13265879D01*
X97101658Y-13219386D01*
X97154000Y-13208000D01*
X149226000Y-13208000D01*
X149294121Y-13228002D01*
G37*
%TD.AperFunction*%
%TD*%
M02*
