M48
; DRILL file {KiCad (6.0.2)} date Mon Mar 21 18:19:06 2022
; FORMAT={-:-/ absolute / inch / decimal}
; #@! TF.CreationDate,2022-03-21T18:19:06-04:00
; #@! TF.GenerationSoftware,Kicad,Pcbnew,(6.0.2)
; #@! TF.FileFunction,Plated,1,2,PTH
FMAT,2
INCH
; #@! TA.AperFunction,Plated,PTH,ComponentDrill
T1C0.0315
; #@! TA.AperFunction,Plated,PTH,ComponentDrill
T2C0.0394
; #@! TA.AperFunction,Plated,PTH,ComponentDrill
T3C0.0512
%
G90
G05
T1
X3.94Y-1.4
X3.94Y-1.9
X4.13Y-1.5316
X4.13Y-1.7284
X4.23Y-0.62
X4.23Y-0.85
X4.29Y-1.85
X4.3104Y-1.3796
X4.3104Y-1.6796
X4.34Y-1.0826
X4.34Y-1.181
X4.4104Y-1.3796
X4.4104Y-1.6796
X4.5104Y-1.3796
X4.5104Y-1.6796
X4.59Y-1.85
X4.61Y-1.0216
X4.61Y-1.2184
X4.6104Y-1.3796
X4.6104Y-1.6796
X4.73Y-0.62
X4.73Y-0.85
T2
X4.9104Y-0.73
X4.9104Y-0.83
X4.9104Y-0.93
X4.9104Y-1.03
X4.9104Y-1.13
X4.9104Y-1.23
X4.9104Y-1.33
X4.9104Y-1.43
X4.9104Y-1.53
X4.9104Y-1.63
X4.9104Y-1.73
X4.9104Y-1.83
X4.9104Y-1.93
X4.9104Y-2.03
X4.9104Y-2.13
X5.5104Y-0.73
X5.5104Y-0.83
X5.5104Y-0.93
X5.5104Y-1.03
X5.5104Y-1.13
X5.5104Y-1.23
X5.5104Y-1.33
X5.5104Y-1.43
X5.5104Y-1.53
X5.5104Y-1.63
X5.5104Y-1.73
X5.5104Y-1.83
X5.5104Y-1.93
X5.5104Y-2.03
X5.5104Y-2.13
T3
X4.43Y-2.19
X4.63Y-2.19
T0
M30
