%TF.GenerationSoftware,KiCad,Pcbnew,(6.0.2)*%
%TF.CreationDate,2022-03-21T18:21:57-04:00*%
%TF.ProjectId,dccsniffer,64636373-6e69-4666-9665-722e6b696361,rev?*%
%TF.SameCoordinates,Original*%
%TF.FileFunction,Copper,L1,Top*%
%TF.FilePolarity,Positive*%
%FSLAX46Y46*%
G04 Gerber Fmt 4.6, Leading zero omitted, Abs format (unit mm)*
G04 Created by KiCad (PCBNEW (6.0.2)) date 2022-03-21 18:21:57*
%MOMM*%
%LPD*%
G01*
G04 APERTURE LIST*
%TA.AperFunction,ComponentPad*%
%ADD10R,1.600000X1.600000*%
%TD*%
%TA.AperFunction,ComponentPad*%
%ADD11O,1.600000X1.600000*%
%TD*%
%TA.AperFunction,ComponentPad*%
%ADD12C,1.600000*%
%TD*%
%TA.AperFunction,ComponentPad*%
%ADD13R,2.600000X2.600000*%
%TD*%
%TA.AperFunction,ComponentPad*%
%ADD14C,2.600000*%
%TD*%
%TA.AperFunction,Conductor*%
%ADD15C,0.400000*%
%TD*%
%TA.AperFunction,Conductor*%
%ADD16C,0.800000*%
%TD*%
G04 APERTURE END LIST*
D10*
%TO.P,D1,1,K*%
%TO.N,Net-(C1-Pad1)*%
X108966000Y-46990000D03*
D11*
%TO.P,D1,2,A*%
%TO.N,Net-(C1-Pad2)*%
X116586000Y-46990000D03*
%TD*%
D12*
%TO.P,R2,1*%
%TO.N,+5V*%
X120142000Y-15748000D03*
D11*
%TO.P,R2,2*%
%TO.N,Net-(R2-Pad2)*%
X107442000Y-15748000D03*
%TD*%
D12*
%TO.P,C1,1*%
%TO.N,Net-(C1-Pad1)*%
X104902000Y-38902000D03*
%TO.P,C1,2*%
%TO.N,Net-(C1-Pad2)*%
X104902000Y-43902000D03*
%TD*%
D10*
%TO.P,U1,1,NC*%
%TO.N,unconnected-(U1-Pad1)*%
X109484000Y-42662000D03*
D11*
%TO.P,U1,2,A*%
%TO.N,Net-(C1-Pad1)*%
X112024000Y-42662000D03*
%TO.P,U1,3,C*%
%TO.N,Net-(C1-Pad2)*%
X114564000Y-42662000D03*
%TO.P,U1,4*%
%TO.N,N/C*%
X117104000Y-42662000D03*
%TO.P,U1,5,GND*%
%TO.N,GND*%
X117104000Y-35042000D03*
%TO.P,U1,6,VO*%
%TO.N,Net-(A1-Pad5)*%
X114564000Y-35042000D03*
%TO.P,U1,7,EN*%
%TO.N,Net-(R2-Pad2)*%
X112024000Y-35042000D03*
%TO.P,U1,8,VCC*%
%TO.N,+5V*%
X109484000Y-35042000D03*
%TD*%
D12*
%TO.P,R3,1*%
%TO.N,+5V*%
X107442000Y-21590000D03*
D11*
%TO.P,R3,2*%
%TO.N,Net-(A1-Pad5)*%
X120142000Y-21590000D03*
%TD*%
D12*
%TO.P,C3,1*%
%TO.N,+5V*%
X117094000Y-25948000D03*
%TO.P,C3,2*%
%TO.N,GND*%
X117094000Y-30948000D03*
%TD*%
D10*
%TO.P,C2,1*%
%TO.N,+5V*%
X110236000Y-27496888D03*
D12*
%TO.P,C2,2*%
%TO.N,GND*%
X110236000Y-29996888D03*
%TD*%
D10*
%TO.P,A1,1,D1/TX*%
%TO.N,unconnected-(A1-Pad1)*%
X124724000Y-18542000D03*
D11*
%TO.P,A1,2,D0/RX*%
%TO.N,unconnected-(A1-Pad2)*%
X124724000Y-21082000D03*
%TO.P,A1,3,~{RESET}*%
%TO.N,unconnected-(A1-Pad3)*%
X124724000Y-23622000D03*
%TO.P,A1,4,GND*%
%TO.N,GND*%
X124724000Y-26162000D03*
%TO.P,A1,5,D2*%
%TO.N,Net-(A1-Pad5)*%
X124724000Y-28702000D03*
%TO.P,A1,6,D3*%
%TO.N,unconnected-(A1-Pad6)*%
X124724000Y-31242000D03*
%TO.P,A1,7,D4*%
%TO.N,unconnected-(A1-Pad7)*%
X124724000Y-33782000D03*
%TO.P,A1,8,D5*%
%TO.N,unconnected-(A1-Pad8)*%
X124724000Y-36322000D03*
%TO.P,A1,9,D6*%
%TO.N,unconnected-(A1-Pad9)*%
X124724000Y-38862000D03*
%TO.P,A1,10,D7*%
%TO.N,unconnected-(A1-Pad10)*%
X124724000Y-41402000D03*
%TO.P,A1,11,D8*%
%TO.N,unconnected-(A1-Pad11)*%
X124724000Y-43942000D03*
%TO.P,A1,12,D9*%
%TO.N,unconnected-(A1-Pad12)*%
X124724000Y-46482000D03*
%TO.P,A1,13,D10*%
%TO.N,unconnected-(A1-Pad13)*%
X124724000Y-49022000D03*
%TO.P,A1,14,D11*%
%TO.N,unconnected-(A1-Pad14)*%
X124724000Y-51562000D03*
%TO.P,A1,15,D12*%
%TO.N,unconnected-(A1-Pad15)*%
X124724000Y-54102000D03*
%TO.P,A1,16,D13*%
%TO.N,unconnected-(A1-Pad16)*%
X139964000Y-54102000D03*
%TO.P,A1,17,3V3*%
%TO.N,unconnected-(A1-Pad17)*%
X139964000Y-51562000D03*
%TO.P,A1,18,AREF*%
%TO.N,unconnected-(A1-Pad18)*%
X139964000Y-49022000D03*
%TO.P,A1,19,A0*%
%TO.N,unconnected-(A1-Pad19)*%
X139964000Y-46482000D03*
%TO.P,A1,20,A1*%
%TO.N,unconnected-(A1-Pad20)*%
X139964000Y-43942000D03*
%TO.P,A1,21,A2*%
%TO.N,unconnected-(A1-Pad21)*%
X139964000Y-41402000D03*
%TO.P,A1,22,A3*%
%TO.N,unconnected-(A1-Pad22)*%
X139964000Y-38862000D03*
%TO.P,A1,23,A4*%
%TO.N,unconnected-(A1-Pad23)*%
X139964000Y-36322000D03*
%TO.P,A1,24,A5*%
%TO.N,unconnected-(A1-Pad24)*%
X139964000Y-33782000D03*
%TO.P,A1,25,A6*%
%TO.N,unconnected-(A1-Pad25)*%
X139964000Y-31242000D03*
%TO.P,A1,26,A7*%
%TO.N,unconnected-(A1-Pad26)*%
X139964000Y-28702000D03*
%TO.P,A1,27,+5V*%
%TO.N,+5V*%
X139964000Y-26162000D03*
%TO.P,A1,28,~{RESET}*%
%TO.N,unconnected-(A1-Pad28)*%
X139964000Y-23622000D03*
%TO.P,A1,29,GND*%
%TO.N,GND*%
X139964000Y-21082000D03*
%TO.P,A1,30,VIN*%
%TO.N,unconnected-(A1-Pad30)*%
X139964000Y-18542000D03*
%TD*%
D13*
%TO.P,J1,1,Pin_1*%
%TO.N,Net-(J1-Pad1)*%
X112522000Y-55626000D03*
D14*
%TO.P,J1,2,Pin_2*%
%TO.N,Net-(C1-Pad2)*%
X117602000Y-55626000D03*
%TD*%
D12*
%TO.P,R1,1*%
%TO.N,Net-(J1-Pad1)*%
X100076000Y-48260000D03*
D11*
%TO.P,R1,2*%
%TO.N,Net-(C1-Pad1)*%
X100076000Y-35560000D03*
%TD*%
D15*
%TO.N,Net-(A1-Pad5)*%
X124724000Y-28702000D02*
X120142000Y-28702000D01*
X114574000Y-33274000D02*
X120142000Y-33274000D01*
X114564000Y-33284000D02*
X114574000Y-33274000D01*
X114564000Y-35042000D02*
X114564000Y-33284000D01*
X120142000Y-33274000D02*
X120142000Y-28702000D01*
X120142000Y-28702000D02*
X120142000Y-21590000D01*
%TO.N,+5V*%
X107522000Y-25988000D02*
X110236000Y-25988000D01*
X107522000Y-34878000D02*
X107686000Y-35042000D01*
X117094000Y-25948000D02*
X110276000Y-25948000D01*
X136652000Y-15748000D02*
X120142000Y-15748000D01*
X110276000Y-25948000D02*
X110236000Y-25988000D01*
X107686000Y-35042000D02*
X109484000Y-35042000D01*
X136652000Y-26162000D02*
X136652000Y-15748000D01*
X139964000Y-26162000D02*
X136652000Y-26162000D01*
X117094000Y-15748000D02*
X117094000Y-25948000D01*
X120142000Y-15748000D02*
X117094000Y-15748000D01*
X107522000Y-25988000D02*
X107522000Y-34878000D01*
X107442000Y-21590000D02*
X107442000Y-25908000D01*
X107442000Y-25908000D02*
X107522000Y-25988000D01*
X110236000Y-25988000D02*
X110236000Y-27496888D01*
D16*
%TO.N,Net-(C1-Pad1)*%
X111974000Y-38902000D02*
X112024000Y-38952000D01*
X112014000Y-46990000D02*
X108966000Y-46990000D01*
X112024000Y-46980000D02*
X112014000Y-46990000D01*
X104902000Y-38902000D02*
X111974000Y-38902000D01*
X104902000Y-35560000D02*
X104902000Y-38902000D01*
X100076000Y-35560000D02*
X104902000Y-35560000D01*
X112024000Y-38952000D02*
X112024000Y-42662000D01*
X104862000Y-38862000D02*
X104902000Y-38902000D01*
X112024000Y-42662000D02*
X112024000Y-46980000D01*
%TO.N,Net-(C1-Pad2)*%
X114554000Y-46990000D02*
X114564000Y-46980000D01*
X116073000Y-47503000D02*
X116586000Y-46990000D01*
X104902000Y-49530000D02*
X105151000Y-49779000D01*
X114564000Y-46980000D02*
X114564000Y-42662000D01*
X117597000Y-49779000D02*
X116073000Y-49779000D01*
X116586000Y-46990000D02*
X114554000Y-46990000D01*
X105151000Y-49779000D02*
X116073000Y-49779000D01*
X104902000Y-43902000D02*
X104902000Y-49530000D01*
X117602000Y-55626000D02*
X117602000Y-49784000D01*
X116073000Y-49779000D02*
X116073000Y-47503000D01*
X117602000Y-49784000D02*
X117597000Y-49779000D01*
%TO.N,Net-(J1-Pad1)*%
X110993000Y-51821000D02*
X110988000Y-51816000D01*
X100076000Y-51816000D02*
X100076000Y-48260000D01*
X110993000Y-51821000D02*
X110998000Y-51816000D01*
X110998000Y-51816000D02*
X112522000Y-51816000D01*
X110988000Y-51816000D02*
X100076000Y-51816000D01*
X112522000Y-51816000D02*
X112522000Y-55626000D01*
%TD*%
M02*
